<svg width="73" height="71" viewBox="0 0 73 71" fill="none" xmlns="http://www.w3.org/2000/svg">
<path d="M7.64554 58.2549C6.87083 58.2549 6.22523 58.1921 5.76614 58.1057C2.66729 57.5322 0.601389 55.9926 0.249899 53.9974C-0.768706 48.2082 1.64869 47.462 1.75629 47.4306C1.82802 47.407 1.90692 47.4463 1.94279 47.5249C1.97866 47.6034 1.96431 47.6898 1.89975 47.7448C1.89258 47.7448 1.10352 48.491 0.881146 49.2687C0.644428 50.1249 1.01027 51.0439 1.34741 51.4288C2.1006 52.2772 3.95131 53.2748 6.0459 53.5183C7.02147 53.6283 9.68993 53.479 13.5205 52.1986C14.5606 51.853 15.7298 51.2874 16.8632 50.7376C17.4944 50.4312 18.0898 50.1485 18.6565 49.8971C18.7139 49.8735 24.1226 47.5249 27.0206 47.1714C31.2743 46.6529 34.1221 48.2947 34.244 48.3575C34.3014 48.3889 34.3301 48.4518 34.3301 48.5225C34.3301 48.5932 34.2871 48.656 34.2297 48.6796L30.3203 50.4705C30.2916 50.4862 30.2629 50.4862 30.2342 50.4862C30.2127 50.4862 28.3691 50.227 26.2315 51.0596C24.0221 51.9237 21.2102 53.3455 18.7354 54.6101C16.9995 55.4899 15.364 56.3225 14.0656 56.896C11.6984 57.9486 9.35278 58.2549 7.63837 58.2549H7.64554ZM0.479442 49.8421C0.199685 51.146 0.357498 52.7171 0.572696 53.9267C0.895494 55.7727 2.86097 57.1945 5.82353 57.7443C5.98135 57.7757 9.71862 58.4356 13.9509 56.5582C15.242 55.9848 16.8704 55.1521 18.6063 54.2724C21.0883 53.0077 23.9074 51.5781 26.1311 50.714C28.1539 49.9285 29.9401 50.0778 30.2414 50.117L33.7706 48.4989C33.4478 48.3418 32.8955 48.1061 32.1566 47.9019C31.0304 47.5798 29.2371 47.2578 27.0708 47.517C24.2158 47.8626 18.8502 50.1956 18.7928 50.2192C18.2261 50.4705 17.6379 50.7533 17.0067 51.0596C15.8661 51.6095 14.6825 52.1829 13.6281 52.5364C9.74731 53.8325 7.02147 53.9817 6.02438 53.8718C4.3817 53.6832 2.16516 52.8663 1.12504 51.6802C0.773547 51.2874 0.493789 50.5726 0.486616 49.85L0.479442 49.8421Z" fill="#1F1F1F"/>
<path d="M33.4664 48.4906C33.4664 48.4906 29.27 46.9824 24.4352 48.4906C22.5271 49.0876 16.4872 51.7897 13.6897 53.0387C10.9782 54.2562 8.25232 54.4683 7.23372 54.5469C4.42897 54.759 0.914062 52.2768 0.914062 52.2768C0.914062 52.2768 0.928409 53.0858 1.15795 53.9656C1.21534 54.1777 1.53096 54.9946 2.12635 55.6152C2.65717 56.165 3.46057 56.5264 3.84793 56.6678C5.69146 57.3433 9.43591 58.1052 14.45 55.7566C14.45 55.7566 17.3552 54.3034 19.9663 52.9994C21.9891 51.9861 23.8398 51.0592 24.0407 50.9571C24.4926 50.7215 28.0003 49.1426 30.4393 49.5982L31.0777 49.7788L31.8165 49.4332L33.4735 48.4906H33.4664Z" fill="#1F1F1F"/>
<path d="M1.3782 48.9387C1.39255 48.8287 1.43559 48.7266 1.4858 48.6324C1.73686 48.2317 2.54745 47.242 4.34076 47.6033C4.44119 47.6269 4.54161 47.6662 4.63487 47.7133C4.97201 47.9018 5.77542 48.4203 5.99062 48.978L4.77833 51.1696C4.77833 51.1696 3.95341 50.8789 3.31499 51.3188C3.31499 51.3188 0.825858 52.552 1.37103 48.9387H1.3782ZM2.94915 49.9284C3.03523 49.9991 2.84872 50.1641 2.84872 50.1641C2.73395 51.3659 4.31924 49.8499 4.31924 49.8499C4.31924 49.8499 4.11122 49.6928 3.94623 49.5278C3.78125 49.3629 4.1973 49.3 4.1973 49.3L4.17578 49.0487C4.15426 48.7973 4.73529 49.0487 4.73529 49.0487C4.47706 48.2789 3.60191 48.2632 3.15 48.326C2.69091 48.381 2.3179 48.8287 2.30355 49.1194C2.28203 49.4179 2.87024 49.8577 2.95632 49.9284H2.94915Z" fill="#1F1F1F"/>
<path d="M6.36264 47.2351C5.02124 45.7269 4.9495 43.5118 5.11449 42.2785C5.46598 39.6156 7.08714 38.618 6.83607 40.7625C6.58501 42.9069 7.5534 44.038 7.5534 44.038C9.12435 45.7583 10.6738 46.2532 12.1515 46.0804C13.995 45.8683 15.7381 44.2894 17.3162 43.0719C18.5142 42.1528 19.6188 41.5873 20.6016 41.1709C23.93 39.7727 27.1795 40.8175 27.1795 40.8175C27.1795 40.8175 31.4117 44.1716 31.383 44.5801C31.3687 44.7607 29.5251 43.7788 28.98 43.9516C28.2626 44.1716 27.8179 46.481 27.8179 46.481C26.8567 45.7426 26.082 47.5021 26.082 47.5021L24.1882 47.997L22.0936 48.7118L22.1869 48.2484C22.5958 47.2272 23.2342 46.3317 24.0376 45.6405L25.3001 44.5722C25.3503 44.5329 25.3216 44.4465 25.2642 44.4465C24.3962 44.3994 22.7966 45.1927 21.5772 46.261C19.8986 47.7378 18.7078 49.6466 18.7078 49.6466L18.6361 50.1179L14.7984 51.8931L14.2604 51.8381C12.2089 51.791 11.4772 50.5264 11.4772 50.5264C17.2301 51.4297 20.0779 44.7843 20.0779 44.7843C20.0779 44.7843 16.8571 48.0127 13.6363 49.0653C10.5303 49.8272 7.10866 48.0756 6.36264 47.2351ZM6.44154 40.5975C6.212 40.8882 6.03984 41.0531 5.9179 41.2888C5.65249 41.7915 5.62379 42.2707 5.69552 42.5534C5.76008 42.797 5.90355 42.9619 6.05419 43.0719C6.24786 43.2211 6.44154 43.2761 6.44154 43.2761V40.5975ZM17.5314 48.9161C15.1642 50.9348 13.622 51.0055 13.622 51.0055C13.9735 51.304 14.4469 51.2569 14.949 51.0369C15.4727 50.8013 16.5989 50.0943 17.0508 49.6859C17.6605 49.1439 17.5314 48.9161 17.5314 48.9161ZM23.2987 47.2351C23.2557 47.4236 23.4924 47.3607 23.5713 47.2901C25.2499 45.884 25.5942 45.2792 25.6229 45.0278C25.6444 44.8943 25.4292 44.9571 25.3646 45.0042C23.7578 46.1825 23.3633 46.8816 23.2916 47.2272L23.2987 47.2351ZM18.7724 44.258C18.7724 44.258 20.4581 43.9988 20.6446 43.8338C20.8311 43.6689 21.9071 43.7788 21.8928 43.8495C21.8784 43.9202 21.0965 44.6822 21.3189 44.8314C21.5413 44.9807 22.8683 43.8338 24.0017 43.6139C25.1351 43.3939 26.5984 43.1897 27.409 43.7788C27.409 43.7788 26.9858 44.4072 26.7993 44.3523C26.6128 44.2973 26.8352 44.8314 27.3086 44.368C27.782 43.9045 27.8322 43.4961 27.8322 43.4961C27.8322 43.4961 27.947 42.8834 25.8094 42.8127C23.6646 42.742 23.4637 42.5927 23.4637 42.5927H22.7034L22.6388 42.4278C22.6388 42.4278 23.8511 41.9486 26.3546 42.1685L24.6688 41.5951L26.3043 41.925L25.2929 41.3359L26.5052 41.8386L25.3216 41.1552C25.3216 41.1552 22.3303 40.4876 19.748 42.1371C18.4281 42.7812 18.3635 43.0954 18.3635 43.0954L18.7652 44.258H18.7724ZM7.661 44.9571L7.27364 46.5674C10.9535 48.7511 13.622 47.1408 13.622 47.1408L13.1988 46.7166C9.74125 47.2351 7.661 44.9571 7.661 44.9571ZM14.4684 46.5124L14.1456 46.2375L13.5216 46.5124L13.8085 46.8973L14.4684 46.5124Z" fill="#1F1F1F"/>
<path d="M35.9084 50.7305C35.3417 51.029 34.7822 51.7438 34.3087 52.5136C33.9644 53.0791 33.8425 53.8254 33.6201 54.2967C33.3619 54.8465 33.0391 55.0743 33.0391 55.0743C33.0391 55.0743 34.0218 55.2236 34.4737 54.1396C35.0476 52.7414 35.9084 50.7383 35.9084 50.7383V50.7305Z" fill="#1F1F1F"/>
<path d="M31.7773 49.8831C31.7773 49.8831 32.3082 49.8281 32.3584 50.1345C32.4014 50.433 32.3584 50.9043 32.3584 50.9043C32.3584 50.9043 34.453 49.0426 35.6366 49.2547C35.6366 49.2547 35.0699 48.6342 33.9221 48.8698C32.5951 49.1447 31.7773 49.8831 31.7773 49.8831Z" fill="#1F1F1F"/>
<path d="M30.2761 50.3924L32.9948 48.6643C33.4037 48.3736 34.0995 48.2637 34.5658 48.4051L36.3232 48.79V50.9423C36.3232 50.9423 35.9717 51.7592 35.5413 52.906C35.4768 53.0631 35.3692 53.2988 35.3118 53.4637C35.0535 54.2021 34.7451 54.8855 34.1712 55.2468C33.7121 55.5453 33.1813 55.6553 32.5214 55.4668C32.3564 55.4197 32.3564 55.184 32.3994 55.1212L32.6935 54.7441C32.9087 54.4378 33.0307 54.1786 33.2028 53.8408C33.4539 53.3224 33.7121 52.5211 33.9345 52.1755C34.616 51.1465 35.5915 50.6045 35.5915 50.6045C33.8915 50.9815 32.5931 54.3592 32.5931 54.3592C32.5931 54.3592 32.464 54.7755 31.8399 54.6263C31.2158 54.4849 31.0293 53.5894 31.0293 53.5894C31.8041 53.8408 32.2775 52.9296 32.2775 52.9296L31.2374 52.9689L32.5788 51.8377C32.5788 51.8377 31.7825 52.0341 30.7855 51.8377C29.7884 51.6414 30.2905 50.3924 30.2905 50.3924H30.2761ZM33.5759 51.0287L34.5873 50.5417L34.0278 50.9894C34.0278 50.9894 33.9345 51.0915 34.0349 51.0679C34.2286 51.013 34.6805 50.6909 35.032 50.5966C35.692 50.4238 36.2945 50.4631 36.2945 50.4631L35.7063 50.738C35.2401 50.958 34.7523 51.5078 34.3075 52.1519C34.1139 52.4347 33.8987 52.7411 33.748 53.071C33.6404 53.3145 33.5974 53.5894 33.4826 53.7937C33.0594 54.587 32.6864 55.0897 32.6864 55.0897C32.6864 55.0897 32.5573 55.1997 32.6864 55.2468C32.8155 55.294 33.8126 55.5846 34.5729 54.5477C34.7308 54.3278 34.867 53.6994 35.0177 53.3773C35.5915 52.1834 36.0937 50.9108 36.0937 50.9108L36.2874 50.471V50.1803L36.1654 49.9761C35.9861 49.9761 35.7996 49.9918 35.6131 50.0232C35.1181 50.1096 34.6232 50.2981 34.243 50.4945C33.7982 50.7223 33.5615 50.8716 33.5256 50.9658C33.4826 51.0679 33.5687 51.0365 33.5687 51.0365L33.5759 51.0287ZM31.8041 52.7568C31.8327 52.7646 31.8758 52.851 31.9619 52.851C32.0695 52.851 32.2058 52.7725 32.3134 52.7568C32.421 52.7411 32.507 52.7882 32.507 52.7882C32.0121 54.0372 31.2517 53.7937 31.2517 53.7937C32.3564 54.9798 33.0379 52.639 33.0379 52.3562C33.0379 52.2226 32.9446 52.2541 32.8514 52.3248C32.8514 52.2933 32.8227 52.2698 32.7294 52.2698C32.4138 52.2541 31.8041 52.7725 31.8041 52.7725V52.7568ZM31.2876 51.2957C31.9188 51.5 32.4999 50.9423 32.4999 50.9423C32.4999 50.9423 35.1755 49.2534 36.2084 49.874C36.2084 49.874 35.9646 49.0021 34.7953 48.6172C33.6261 48.2323 31.3378 49.8347 31.3378 49.8347C31.3378 49.8347 31.8614 50.4788 31.8614 50.5731C31.8614 50.6673 31.5889 51.1544 31.2517 50.7616C30.9146 50.3688 31.0007 50.0703 31.0007 50.0703L30.6133 50.3453C30.6133 50.3453 30.685 51.0994 31.2876 51.2879V51.2957Z" fill="#1F1F1F"/>
<path d="M64.973 58.2557C63.2658 58.2557 60.9201 57.9494 58.5457 56.8968C57.2474 56.3234 55.6119 55.4907 53.876 54.611C51.4012 53.3542 48.5892 51.9245 46.3799 51.0605C44.2422 50.2278 42.3987 50.4792 42.3772 50.4871C42.3485 50.4871 42.3198 50.4871 42.2911 50.4713L38.3817 48.6804C38.3243 48.6568 38.2812 48.594 38.2812 48.5233C38.2812 48.4526 38.3099 48.3897 38.3673 48.3583C38.4893 48.2876 41.3371 46.6459 45.5908 47.1722C48.4888 47.5257 53.8975 49.8744 53.9549 49.8979C54.5215 50.1493 55.1169 50.4321 55.7482 50.7384C56.8815 51.2883 58.0508 51.8538 59.0909 52.1995C62.9214 53.4798 65.5899 53.6291 66.5655 53.5191C68.6601 53.2756 70.5179 52.2859 71.264 51.4297C71.6011 51.0448 71.9669 50.1257 71.7302 49.2695C71.515 48.4919 70.7188 47.7535 70.7116 47.7456C70.6542 47.6906 70.6399 47.5964 70.6686 47.5257C70.7044 47.455 70.7834 47.4157 70.8551 47.4314C70.9555 47.4628 73.3801 48.2091 72.3615 53.9983C72.01 55.9935 69.9441 57.5331 66.8452 58.1065C66.3861 58.1929 65.7405 58.2557 64.9658 58.2557H64.973ZM43.1017 50.0864C43.8692 50.0864 45.1246 50.1886 46.4875 50.7227C48.7112 51.5868 51.5303 53.0242 54.0122 54.2811C55.741 55.1608 57.3765 55.9935 58.6677 56.5669C62.8999 58.4442 66.6372 57.7844 66.795 57.753C69.7576 57.2032 71.7159 55.7735 72.0458 53.9354C72.261 52.7179 72.4117 51.1469 72.1391 49.8508C72.1391 50.5813 71.8522 51.2883 71.5007 51.681C70.4534 52.8671 68.244 53.6841 66.6013 53.8726C65.6042 53.9904 62.8784 53.8412 58.9977 52.5372C57.936 52.1838 56.7596 51.6103 55.6191 51.0605C54.995 50.7541 54.3996 50.4713 53.8329 50.22C53.7827 50.1964 48.4099 47.8635 45.555 47.5178C43.3886 47.2508 41.5953 47.5807 40.4691 47.9027C39.7303 48.1148 39.1779 48.3505 38.8551 48.4997L42.3844 50.1179C42.4848 50.11 42.7358 50.0864 43.1089 50.0864H43.1017Z" fill="#1F1F1F"/>
<path d="M39.1595 48.4906C39.1595 48.4906 43.3559 46.9824 48.1907 48.4906C50.0988 49.0876 56.1387 51.7897 58.9362 53.0387C61.6477 54.2562 64.3736 54.4683 65.3922 54.5469C68.1969 54.759 71.7118 52.2768 71.7118 52.2768C71.7118 52.2768 71.6975 53.0858 71.4679 53.9656C71.4106 54.1777 71.0949 54.9946 70.4995 55.6152C69.9687 56.165 69.1653 56.5264 68.778 56.6678C66.9344 57.3433 63.19 58.1052 58.1759 55.7566C58.1759 55.7566 55.2707 54.3034 52.6596 52.9994C50.6368 51.9861 48.7861 51.0592 48.5852 50.9571C48.1333 50.7215 44.6256 49.1426 42.1866 49.5982L41.5482 49.7788L40.8094 49.4332L39.1523 48.4906H39.1595Z" fill="#1F1F1F"/>
<path d="M71.2413 48.9407C71.227 48.8307 71.1839 48.7286 71.1337 48.6343C70.8827 48.2337 70.0721 47.244 68.2788 47.6053C68.1783 47.6289 68.0779 47.6681 67.9847 47.7153C67.6475 47.9038 66.8441 48.4222 66.6289 48.9799L67.8412 51.1715C67.8412 51.1715 68.6661 50.8809 69.3045 51.3208C69.3045 51.3208 71.7937 52.554 71.2485 48.9407H71.2413ZM69.6704 49.9304C69.5843 50.0011 69.7708 50.166 69.7708 50.166C69.8856 51.3679 68.3003 49.8518 68.3003 49.8518C68.3003 49.8518 68.5083 49.6947 68.6733 49.5298C68.8383 49.3648 68.4222 49.302 68.4222 49.302L68.4437 49.0506C68.4653 48.7993 67.8842 49.0506 67.8842 49.0506C68.1425 48.2808 69.0176 48.2651 69.4695 48.328C69.9286 48.383 70.3016 48.8307 70.316 49.1213C70.3375 49.4198 69.7493 49.8597 69.6632 49.9304H69.6704Z" fill="#1F1F1F"/>
<path d="M66.2549 47.2351C67.5963 45.7269 67.668 43.5118 67.5031 42.2785C67.1516 39.6156 65.5304 38.618 65.7815 40.7625C66.0325 42.9069 65.0641 44.038 65.0641 44.038C63.4932 45.7583 61.9438 46.2532 60.4661 46.0804C58.6225 45.8683 56.8794 44.2894 55.3013 43.0719C54.1034 42.1528 52.9987 41.5873 52.016 41.1709C48.6876 39.7727 45.4381 40.8175 45.4381 40.8175C45.4381 40.8175 41.2058 44.1716 41.2345 44.5801C41.2489 44.7607 43.0924 43.7788 43.6376 43.9516C44.3549 44.1716 44.7996 46.481 44.7996 46.481C45.7609 45.7426 46.5356 47.5021 46.5356 47.5021L48.4293 47.997L50.5239 48.7118L50.4307 48.2484C50.0218 47.2272 49.3834 46.3317 48.58 45.6405L47.3175 44.5722C47.2672 44.5329 47.2959 44.4465 47.3533 44.4465C48.2213 44.3994 49.8209 45.1927 51.0404 46.261C52.7189 47.7378 53.9097 49.6466 53.9097 49.6466L53.9814 50.1179L57.8191 51.8931L58.3571 51.8381C60.4087 51.791 61.1404 50.5264 61.1404 50.5264C55.3874 51.4297 52.5396 44.7843 52.5396 44.7843C52.5396 44.7843 55.7604 48.0127 58.9812 49.0653C62.0872 49.8272 65.5089 48.0756 66.2549 47.2351ZM66.176 40.5975C66.4055 40.8882 66.5777 41.0531 66.6996 41.2888C66.9651 41.7915 66.9937 42.2707 66.922 42.5534C66.8575 42.797 66.714 42.9619 66.5634 43.0719C66.3697 43.2211 66.176 43.2761 66.176 43.2761V40.5975ZM55.0861 48.9161C57.4533 50.9348 58.9955 51.0055 58.9955 51.0055C58.6441 51.304 58.1706 51.2569 57.6685 51.0369C57.1448 50.8013 56.0186 50.0943 55.5667 49.6859C54.957 49.1439 55.0861 48.9161 55.0861 48.9161ZM49.3188 47.2351C49.3618 47.4236 49.1251 47.3607 49.0462 47.2901C47.3677 45.884 47.0234 45.2792 46.9947 45.0278C46.9731 44.8943 47.1883 44.9571 47.2529 45.0042C48.8597 46.1825 49.2542 46.8816 49.326 47.2272L49.3188 47.2351ZM53.8451 44.258C53.8451 44.258 52.1594 43.9988 51.9729 43.8338C51.7864 43.6689 50.7104 43.7788 50.7248 43.8495C50.7391 43.9202 51.521 44.6822 51.2986 44.8314C51.0763 44.9807 49.7492 43.8338 48.6158 43.6139C47.4824 43.3939 46.0191 43.1897 45.2085 43.7788C45.2085 43.7788 45.6317 44.4072 45.8182 44.3523C46.0047 44.2973 45.7824 44.8314 45.3089 44.368C44.8355 43.9045 44.7853 43.4961 44.7853 43.4961C44.7853 43.4961 44.6705 42.8834 46.8082 42.8127C48.953 42.742 49.1538 42.5927 49.1538 42.5927H49.9142L49.9787 42.4278C49.9787 42.4278 48.7665 41.9486 46.263 42.1685L47.9487 41.5951L46.3132 41.925L47.3246 41.3359L46.1123 41.8386L47.2959 41.1552C47.2959 41.1552 50.2872 40.4876 52.8696 42.1371C54.1895 42.7812 54.254 43.0954 54.254 43.0954L53.8523 44.258H53.8451ZM64.9494 44.9571L65.3367 46.5674C61.6568 48.7511 58.9884 47.1408 58.9884 47.1408L59.4116 46.7166C62.8691 47.2351 64.9494 44.9571 64.9494 44.9571ZM58.1491 46.5124L58.4719 46.2375L59.096 46.5124L58.809 46.8973L58.1491 46.5124Z" fill="#1F1F1F"/>
<path d="M36.7148 50.7305C37.2815 51.029 37.841 51.7438 38.3145 52.5136C38.6588 53.0791 38.7807 53.8254 39.0031 54.2967C39.2614 54.8465 39.5842 55.0743 39.5842 55.0743C39.5842 55.0743 38.6014 55.2236 38.1495 54.1396C37.5756 52.7414 36.7148 50.7383 36.7148 50.7383V50.7305Z" fill="#1F1F1F"/>
<path d="M40.8397 49.8831C40.8397 49.8831 40.3089 49.8281 40.2587 50.1345C40.2156 50.433 40.2587 50.9043 40.2587 50.9043C40.2587 50.9043 38.1641 49.0426 36.9805 49.2547C36.9805 49.2547 37.5472 48.6342 38.6949 48.8698C40.0219 49.1447 40.8397 49.8831 40.8397 49.8831Z" fill="#1F1F1F"/>
<path d="M42.3439 50.3924L39.6253 48.6643C39.2164 48.3736 38.5206 48.2637 38.0543 48.4051L36.2969 48.79V50.9423C36.2969 50.9423 36.6484 51.7592 37.0788 52.906C37.1433 53.0631 37.2509 53.2988 37.3083 53.4637C37.5665 54.2021 37.875 54.8855 38.4489 55.2468C38.9079 55.5453 39.4388 55.6553 40.0987 55.4668C40.2637 55.4197 40.2637 55.184 40.2207 55.1212L39.9266 54.7441C39.7114 54.4378 39.5894 54.1786 39.4172 53.8408C39.1662 53.3224 38.9079 52.5211 38.6856 52.1755C38.0041 51.1465 37.0285 50.6045 37.0285 50.6045C38.7286 50.9815 40.027 54.3592 40.027 54.3592C40.027 54.3592 40.1561 54.7755 40.7802 54.6263C41.4042 54.4849 41.5908 53.5894 41.5908 53.5894C40.816 53.8408 40.3426 52.9296 40.3426 52.9296L41.3827 52.9689L40.0413 51.8377C40.0413 51.8377 40.8376 52.0341 41.8346 51.8377C42.8317 51.6414 42.3296 50.3924 42.3296 50.3924H42.3439ZM39.0442 51.0287L38.0328 50.5417L38.5923 50.9894C38.5923 50.9894 38.6856 51.0915 38.5851 51.0679C38.3915 51.013 37.9396 50.6909 37.5881 50.5966C36.9281 50.4238 36.3256 50.4631 36.3256 50.4631L36.9138 50.738C37.38 50.958 37.8678 51.5078 38.3126 52.1519C38.5062 52.4347 38.7214 52.7411 38.8721 53.071C38.9797 53.3145 39.0227 53.5894 39.1375 53.7937C39.5607 54.587 39.9337 55.0897 39.9337 55.0897C39.9337 55.0897 40.0628 55.1997 39.9337 55.2468C39.8046 55.294 38.8075 55.5846 38.0472 54.5477C37.8893 54.3278 37.7531 53.6994 37.6024 53.3773C37.0285 52.1834 36.5264 50.9108 36.5264 50.9108L36.3327 50.471V50.1803L36.4547 49.9761C36.634 49.9761 36.8205 49.9918 37.007 50.0232C37.502 50.1096 37.9969 50.2981 38.3771 50.4945C38.8219 50.7223 39.0586 50.8716 39.0945 50.9658C39.1375 51.0679 39.0514 51.0365 39.0514 51.0365L39.0442 51.0287ZM40.816 52.7568C40.7873 52.7646 40.7443 52.851 40.6582 52.851C40.5506 52.851 40.4143 52.7725 40.3067 52.7568C40.1991 52.7411 40.1131 52.7882 40.1131 52.7882C40.608 54.0372 41.3684 53.7937 41.3684 53.7937C40.2637 54.9798 39.5822 52.639 39.5822 52.3562C39.5822 52.2226 39.6755 52.2541 39.7687 52.3248C39.7687 52.2933 39.7974 52.2698 39.8907 52.2698C40.2063 52.2541 40.816 52.7725 40.816 52.7725V52.7568ZM41.3325 51.2957C40.7013 51.5 40.1202 50.9423 40.1202 50.9423C40.1202 50.9423 37.4446 49.2534 36.4116 49.874C36.4116 49.874 36.6555 49.0021 37.8248 48.6172C38.994 48.2323 41.2823 49.8347 41.2823 49.8347C41.2823 49.8347 40.7587 50.4788 40.7587 50.5731C40.7587 50.6673 41.0312 51.1544 41.3684 50.7616C41.7055 50.3688 41.6194 50.0703 41.6194 50.0703L42.0068 50.3453C42.0068 50.3453 41.9351 51.0994 41.3325 51.2879V51.2957Z" fill="#1F1F1F"/>
<path d="M60.8308 36.7828C60.7878 36.4136 60.3789 35.7773 60.3789 35.7773L60.8308 36.7828Z" fill="#1F1F1F"/>
<path d="M61.8294 38.7475L61.564 37.7734C61.564 37.7734 61.4779 38.5589 61.8294 38.7475Z" fill="#1F1F1F"/>
<path d="M60.6719 32.4238C60.9373 32.6438 61.1525 32.9423 61.3246 33.2486C61.5327 33.6099 61.6905 33.9791 61.7407 34.419C61.8985 35.7858 61.6905 37.2076 61.6905 37.2076C62.7449 33.2093 60.6719 32.4317 60.6719 32.4317V32.4238Z" fill="#1F1F1F"/>
<path d="M54.3438 24.1669C54.3578 24.1669 54.3648 24.1592 54.3719 24.1515C54.3719 24.1438 54.3719 24.1515 54.3438 24.1669Z" fill="#1F1F1F"/>
<path d="M56.3622 25.9813C56.2689 24.7402 56.9791 21.873 56.9791 21.873C55.7955 23.9232 56.3622 25.9813 56.3622 25.9813Z" fill="#1F1F1F"/>
<path d="M58.0766 19.6042C58.1555 20.0362 58.0336 20.6096 58.0336 20.6096C58.7079 19.9341 58.6146 19.3842 58.6146 19.3842C58.1053 18.8815 58.3277 18.7637 58.3277 18.7637C58.3277 18.7637 57.9188 18.9758 58.0049 19.3685C57.9834 19.6277 57.926 20.0519 57.7969 20.3347C57.7969 20.3347 57.9905 20.0912 58.0623 19.6042H58.0766Z" fill="#1F1F1F"/>
<path d="M55.3952 17.3653L55.4526 16.9883L54.5703 17.491V17.6403L55.3952 17.3653Z" fill="#1F1F1F"/>
<path d="M56.6077 16.3136H57.1241C57.1241 16.3136 57.2748 16.2036 57.2676 16.1015C57.2604 15.9994 56.9448 15.3945 56.9448 15.3945C56.9448 15.3945 56.457 16.0386 56.457 16.1879C56.457 16.3371 56.6077 16.3136 56.6077 16.3136Z" fill="#1F1F1F"/>
<path d="M65.2443 25.9819C65.1725 25.8876 65.2227 25.6991 65.1438 25.6205C64.4911 25.0314 63.6231 25.11 63.6231 25.11C60.5673 25.8326 61.9374 28.9275 61.9374 28.9275C61.9374 28.9275 61.6648 29.4067 61.8011 29.8151C61.9876 30.3807 62.5184 31.017 62.8914 31.6297C63.4007 32.4623 63.7379 33.24 63.5944 33.4992C63.4653 33.727 62.9345 33.7348 62.6619 33.727C62.6404 33.6092 62.6117 33.4913 62.5543 33.3892C62.4682 33.2085 62.3463 32.9493 62.2028 32.6273C61.6863 31.4412 59.3622 30.1136 58.6592 28.3541C57.7912 26.1861 58.4727 25.1414 58.8314 24.3637C59.3263 25.7384 60.0723 25.5184 60.0723 25.5184C60.0723 25.5184 60.4453 25.4634 60.7681 25.2906C61.0407 25.1414 61.2631 24.89 61.2846 24.7958C61.299 24.7172 60.9116 24.78 60.5529 24.8193C60.4095 24.6229 60.2302 24.2066 60.5171 23.484C60.5171 23.484 60.4812 23.9867 60.6534 23.9238C60.8184 23.8531 60.7681 23.6175 61.0766 23.6175C61.385 23.6175 61.7867 23.5546 61.8513 21.9601C61.8513 21.9601 62.4897 23.0126 62.7408 23.0676C62.9919 23.1226 62.6045 22.0622 62.6045 22.0622C62.6045 22.0622 62.5686 20.3419 62.7551 20.3341C62.9416 20.3184 62.7193 18.1425 60.1441 16.7443C60.1441 16.7443 59.6563 16.595 60.1441 16.9642C60.6318 17.3334 62.1095 18.0875 62.2745 21.7873C62.2745 21.7873 61.923 21.748 61.8728 21.1667C61.7437 19.5486 61.4926 18.5824 61.0336 17.9068L61.2631 18.5824C61.4137 19.1715 61.4783 19.7764 61.464 20.389L61.4137 21.5595L61.3564 22.887C61.3564 22.887 61.1914 23.0598 61.0049 23.0362C60.8542 23.0126 60.6964 22.7848 60.5243 22.8634C60.266 22.9812 60.0508 23.2719 60.058 23.9238C60.058 23.9238 60.0078 24.513 60.0652 24.8507C59.1685 24.8115 59.477 23.5861 59.477 23.5861L59.1255 21.9286C59.7567 21.5595 60.9044 20.8682 60.926 20.6483C60.9618 20.3419 60.6319 19.8235 60.6319 19.8235C60.6175 20.2791 60.5601 20.389 60.474 20.5383C60.2875 20.8682 59.9934 20.8132 59.8571 20.5776C59.7639 20.4126 59.6491 20.1927 59.5774 19.9177C59.4052 19.2344 59.3622 18.3703 59.398 18.4174C59.4841 18.5353 59.7137 19.8156 59.7137 19.8156C59.7137 19.8156 59.728 19.1715 59.6635 18.4646C59.6276 18.009 59.5272 17.5534 59.4913 17.1528C59.477 16.9485 59.4267 16.7443 59.3622 16.5558L59.5487 16.4301L59.4913 16.3044C59.4913 16.3044 59.3765 16.3358 59.2689 16.3201C59.0035 15.7074 58.5875 15.2754 58.5875 15.2754C58.3794 15.1497 58.2145 15.0947 58.0925 15.079C57.8988 15.0633 57.7984 15.1576 57.7482 15.3068C57.7123 15.4246 57.8271 15.566 57.8343 15.7231C57.863 16.1395 57.8988 16.595 57.8988 16.595C57.7697 19.1558 56.1486 18.7866 56.0625 18.7866C55.9764 18.7866 55.9979 18.5353 55.8186 18.7866C55.6393 19.038 55.0152 19.1794 55.0152 19.1794C55.0152 19.1794 55.0295 18.818 54.8645 18.5981C54.6996 18.3781 54.4987 18.9751 54.3911 19.1401C54.2763 19.305 52.648 20.2084 52.2104 20.1455C51.7729 20.0827 51.6294 19.2815 51.6294 19.2815C51.8805 19.2501 51.902 19.0537 52.232 18.8259C52.5619 18.5981 53.2003 18.3389 53.5662 18.0011C53.889 17.7026 53.9966 17.3491 54.3194 17.0349C54.592 16.76 55.2519 16.5086 55.503 16.2651C55.6106 16.163 55.6608 16.0609 55.7325 15.9666C55.8903 15.7703 56.0266 15.5974 56.1916 15.4561C57.2891 14.5134 58.114 14.7727 58.4368 14.757C58.7596 14.7412 60.0006 16.2416 60.2445 16.2573C60.4884 16.273 61.0407 17.1685 61.6146 17.4748C62.1813 17.7812 62.8197 17.7576 62.791 17.4905C62.7767 17.3413 61.8585 16.87 61.2272 16.5715C62.0808 16.6108 62.6978 15.2597 62.2745 15.6053C61.7939 16.0059 61.1268 15.4403 61.1268 15.4403C59.0753 12.5261 55.2949 14.5449 55.1802 14.8119C55.0582 15.079 55.1802 15.7703 55.1802 15.7703L54.4054 16.3751C54.1544 16.5715 53.9248 16.8071 53.724 17.0742C53.5949 17.247 53.4227 17.6005 53.0497 17.8676C52.7341 18.0875 52.3611 18.2368 52.0383 18.3939C51.6294 18.6059 51.3066 18.8023 51.3066 18.8023C50.9695 19.0773 50.8905 19.6035 51.1273 19.9884C51.4501 20.5226 51.8805 20.7033 52.318 20.8211C52.6193 20.8996 52.9851 21.0803 53.2936 20.9232C53.8101 20.6483 54.5991 20.3655 55.051 20.2555C55.919 20.0434 56.3279 20.1377 56.3279 20.1377L54.9219 21.0253C53.8962 21.6459 52.9923 22.4785 52.2606 23.4682L51.2277 24.8664L50.7758 24.6151L49.6639 23.4054C49.3268 23.0048 48.9538 22.7613 48.4588 22.722L47.763 22.667L47.017 22.5256V23.9395H47.7056L48.0069 23.9867C48.4445 24.0574 48.8318 24.348 49.0614 24.7643L50.4315 27.3015C50.2378 27.3172 50.0441 27.3879 49.8576 27.49C49.4272 27.82 48.8175 28.5898 48.4373 29.226C48.0858 29.8151 47.763 30.3179 47.763 30.3179L46.9883 30.3493V31.826L47.268 32.4073L49.3985 29.7209C49.6137 29.446 49.9222 29.2731 50.2593 29.2339L51.3568 29.116L51.5003 29.5402C51.8159 30.4907 52.3969 31.3155 53.1573 31.8889L54.5633 32.8394C54.9291 33.0907 55.2806 33.3735 55.5962 33.6956L55.7899 33.8919L54.4485 35.188C53.4299 36.1699 53.0425 37.7331 53.4658 39.147L53.6594 39.799C53.8603 40.1446 53.9033 40.4352 53.9392 40.6787C54.1042 41.7156 53.0856 41.8413 53.0856 41.8413L54.7713 42.8546L55.6034 42.4618C55.9477 42.2969 56.0553 42.0848 56.2777 41.7549L56.1127 40.4588C56.0338 39.8461 56.0123 39.2255 56.041 38.6128C56.041 38.4714 56.1055 38.3379 56.1988 38.2358C56.6722 37.7016 57.325 37.4032 58.0064 37.4032H59.3765C59.3909 37.5367 59.5415 37.6859 59.6276 37.8352C59.7639 38.0708 60.1799 38.8642 60.4453 39.1234C61.3205 39.9875 62.4108 40.3567 62.9775 40.718C63.1353 40.8201 63.2214 41.0086 63.2071 41.205L63.0062 43.6637C62.9273 44.6141 62.5686 45.5017 61.9733 46.2008L63.6733 45.5882L64.7421 40.7259C64.778 40.5845 64.735 40.4352 64.6274 40.341L63.5872 39.4533L62.8412 38.8563C62.3247 38.2122 62.1526 37.3874 62.2817 36.5391L62.3176 36.3034C62.6332 35.6515 62.7695 34.9209 62.7121 34.1904C64.4911 34.1669 63.8311 32.6665 63.8311 32.6665C63.8311 32.6665 63.4007 30.6478 64.0965 32.6665C64.6345 34.214 63.4223 34.5596 62.8269 34.6382C64.1468 34.7874 64.5198 34.1119 64.5198 33.4442C64.5198 33.0829 64.3333 32.7215 64.3548 32.4859C64.4193 31.8182 64.2113 32.1245 64.2113 32.1245C64.2113 32.1245 64.0463 33.1928 64.0463 32.046C64.0463 30.8991 63.3505 30.1058 63.4438 28.9511C64.1826 28.0949 64.1683 27.9299 64.1683 27.9299C64.1396 27.1209 64.7708 27.3644 64.7708 27.3644C64.7708 27.3644 65.0506 27.9928 65.273 27.9928C65.4953 27.9928 65.4308 28.3148 65.4308 28.3148C65.4308 28.3148 65.3877 28.9747 65.4308 29.1082C65.4738 29.2417 65.7392 28.9982 65.7392 28.9982L65.8325 27.3408C65.8038 26.6653 65.4882 26.3039 65.2371 25.974L65.2443 25.9819ZM61.8154 37.1125C61.7365 37.576 61.8011 38.0551 62.0019 38.4714C62.0019 38.4714 62.8125 39.4455 62.6475 39.5712C62.4826 39.6968 60.9762 38.5107 60.9762 38.5107C60.7036 38.3301 60.5027 38.0394 60.4238 37.6938L59.8858 35.4001C59.8284 35.1802 59.728 34.9838 59.5917 34.811L58.9748 34.0333C58.8744 33.8998 58.7525 33.7898 58.6305 33.6877L57.1456 32.5251L56.5431 31.9046L55.9047 31.0405C55.6321 30.6949 55.5101 30.2315 55.5747 29.7759L55.6177 29.3596L55.5603 29.3438C55.8831 29.2731 56.3207 29.2653 56.3207 29.2653C56.2203 29.2182 55.8544 29.2339 55.5245 29.2653C55.7182 28.9825 55.9979 28.6997 55.9979 28.6997C55.8975 28.739 55.6392 29.0139 55.4169 29.281C55.3738 29.281 55.3308 29.2889 55.2878 29.2967H55.2662C55.4599 29.0061 55.7469 28.7076 55.7469 28.7076C55.6464 28.7469 55.4025 29.0139 55.1802 29.2731L55.1228 29.2574C55.3021 28.9432 55.6823 28.5426 55.6823 28.5426C55.5675 28.5819 55.2519 28.9354 55.008 29.226L54.8861 29.1946C55.0295 28.8647 55.503 28.3777 55.503 28.3777C55.3738 28.4248 55.0008 28.8568 54.7498 29.1632L54.6278 29.1318C54.7569 28.8097 55.2519 28.2913 55.2519 28.2913C55.1228 28.3384 54.7282 28.794 54.4844 29.0925H54.4557C54.6422 28.7704 55.008 28.3855 55.008 28.3855C54.8932 28.4248 54.5991 28.7626 54.3552 29.0453C54.4126 28.7311 55.008 28.1184 55.008 28.1184C54.8645 28.1734 54.4054 28.7154 54.1616 29.0139L54.097 28.9982C54.1042 28.6997 54.7498 28.032 54.7498 28.032C54.6135 28.0792 54.1974 28.574 53.9464 28.8725C53.6236 28.7311 54.0468 28.1184 54.0468 28.1184C53.8675 28.1813 53.602 28.7626 53.5518 28.8725L53.4514 28.849C53.5734 28.5191 53.7957 28.142 53.7957 28.142C53.7096 28.2049 53.5375 28.5191 53.3797 28.8254C53.3151 28.6447 53.5949 28.2284 53.5949 28.2284C53.4299 28.2756 53.1716 28.574 53.0282 28.7547L52.8704 28.7154C52.8488 28.4798 53.0927 28.1263 53.0927 28.1263C52.9636 28.1734 52.7986 28.4641 52.6982 28.6762L52.5691 28.6447C52.5691 28.6447 52.5691 28.6447 52.5691 28.629C52.691 28.3305 52.8632 28.0478 52.8632 28.0478C52.7986 28.0949 52.6839 28.2755 52.5691 28.4955C52.5619 28.4327 52.5332 28.3698 52.4615 28.3698C52.3109 28.3698 51.9378 28.9432 51.9378 28.9432L51.5935 28.8804C51.2277 28.7626 50.5032 28.5033 49.9293 28.8647C48.8749 29.5324 47.9208 31.1034 47.8778 31.017C47.806 30.8834 47.8778 30.6714 47.8778 30.6714C47.8778 30.6714 49.8146 28.2049 50.2449 27.9142C50.6825 27.6157 54.8 26.9795 54.8 26.9795L54.965 26.8302V26.6495L54.8287 26.6103L54.8 26.736L54.678 26.7045L54.8502 26.5239L54.8 26.4532C54.8 26.4532 54.6278 26.5396 54.5991 26.6338C54.5633 26.7202 54.4198 26.5867 54.4198 26.5867L54.5202 26.4218L54.5704 26.2882H54.5346L54.0611 26.3825L54.0253 26.3196L54.4557 26.029L54.47 25.9033H54.0898C54.0898 25.8955 54.3768 25.6598 54.3768 25.6598V25.542L54.0396 25.5734L54.3409 25.2749L53.9607 25.2199L54.3122 24.89C54.3122 24.89 54.1687 24.8272 54.0683 24.7958C54.1974 24.7408 54.4126 24.5287 54.4126 24.5287C54.4126 24.5287 54.1759 24.4658 54.0611 24.458C54.1472 24.403 54.2907 24.2616 54.3552 24.2145C54.2763 24.2302 54.0827 24.1752 54.0827 24.1752L54.3983 23.9553L54.2046 23.9238L54.4054 23.7589L54.2548 23.7118L54.5489 23.5311L54.3552 23.4447C54.3552 23.4054 54.3696 23.3583 54.3911 23.3033C54.7641 23.1148 56.0553 22.4628 56.1773 22.29L55.4958 22.5256C55.6393 22.4471 55.7469 22.3685 55.7899 22.3135L54.8645 22.5413C54.8645 22.5335 54.8789 22.5256 54.8861 22.5178C55.2591 22.3371 56.0912 21.9208 56.1773 21.803L55.3093 22.0779C55.5747 21.8344 55.8688 21.6066 56.1557 21.4102C56.414 21.2374 56.665 21.0882 56.8874 20.8761C57.4613 20.3341 57.7625 19.6978 57.698 19.6899C57.5187 19.6585 57.5904 19.3365 57.5904 19.3365C58.1499 18.496 58.3651 17.8204 58.4368 17.3099C58.487 16.9171 58.4584 16.6265 58.4368 16.4301C58.4153 16.2416 58.4081 16.1473 58.4942 16.1395C58.7811 16.1159 59.3694 17.2784 59.0681 17.5219C58.7668 17.7655 59.025 18.4724 59.025 18.4724C59.2761 19.8156 59.0394 21.1117 58.8744 21.7715C58.8027 22.0465 58.7453 22.2114 58.7453 22.2114C58.7453 22.2114 58.7525 22.2114 58.774 22.1957L58.609 22.5099C57.7482 24.1595 57.4111 26.084 57.6478 27.9692L58.1284 28.904C58.5516 29.713 59.0753 30.4593 59.6993 31.1034L61.1698 32.5016C61.3635 32.6823 61.5357 32.8943 61.672 33.1378C61.9374 33.5934 62.2315 34.2218 62.253 34.5753L61.8154 37.1754V37.1125ZM63.5657 31.8732C63.6446 32.1167 63.5299 32.0224 63.3649 31.7161C63.2214 31.4411 63.0492 30.9934 62.7623 30.6871C62.3319 30.2393 62.0091 29.6031 62.3176 29.5481C62.3176 29.5481 63.3003 31.0641 63.5657 31.8732ZM64.5628 26.139L63.2071 26.6181C62.8556 26.7438 62.6045 27.0737 62.5471 27.4586C62.5399 27.5215 62.7049 27.7414 62.6906 27.8749C62.6762 27.9771 62.4897 27.9928 62.4897 27.9928L62.6834 28.307L62.5615 28.5269L62.7193 28.684L62.6188 28.7861L62.8197 28.9982L62.6906 29.2653L62.8269 29.4302L62.9416 30.2393C62.9416 30.2393 62.2458 29.2889 62.1239 28.142C62.0808 27.7571 61.923 27.3094 62.1239 26.9245C62.9345 25.3849 63.4725 25.4949 63.7451 25.864C64.0176 26.2332 64.1037 26.0369 64.3835 25.9819C64.6632 25.9269 64.5843 26.1468 64.5843 26.1468L64.5628 26.139Z" fill="#1F1F1F"/>
<path d="M18.5268 39.9227C15.9516 37.2127 19.61 37.0163 19.0505 35.2489C18.491 33.4815 15.6217 33.1438 14.3879 33.4501C13.1469 33.7565 13.4051 36.2151 13.4051 36.2151C15.8799 37.0242 15.2773 35.4924 16.0377 35.9952C16.7981 36.49 15.9301 37.3777 15.3778 38.7052C14.8254 40.0327 18.5914 42.3264 18.5914 42.3264L21.2957 41.0146C20.3273 41.0381 19.3446 40.7711 18.534 39.9227H18.5268ZM16.0305 38.9487C15.9086 38.6973 17.1137 37.0949 17.0635 35.9637C17.0133 34.8326 14.7896 35.1625 14.7896 35.1625C14.0507 34.377 14.7609 33.9607 15.1339 33.8193C15.2486 33.7722 15.3706 33.7643 15.4925 33.7879C15.9445 33.8743 17.1854 34.1571 18.0964 34.8405C19.237 35.6888 18.1395 36.1366 18.0821 36.1366C18.0247 36.1366 16.4466 37.7547 16.9559 38.9487C17.4652 40.1505 19.9041 41.046 19.9041 41.046L19.3087 41.6351C18.5627 41.478 16.1453 39.2 16.0234 38.9487H16.0305Z" fill="#1F1F1F"/>
<path d="M25.0843 21.3072L25.2709 20.0818C25.2709 20.0818 25.1848 19.9326 24.8763 19.8069C24.5679 19.6733 24.7257 20.0661 24.1518 19.8619C23.578 19.6576 24.6611 19.0764 24.6611 19.0764L24.367 18.9742C23.8505 18.88 23.9725 19.3277 23.413 19.0764C22.8535 18.825 23.6497 18.2437 23.6497 18.2437C23.1619 18.1652 22.2007 19.0135 22.1505 19.2963C22.1003 19.5869 23.1332 20.0818 22.8104 20.4746C22.4876 20.8673 21.4045 23.8287 21.1821 23.8837C20.9597 23.9387 20.7445 23.7894 20.7445 23.7894L20.5724 23.0746C20.4863 22.9096 20.3213 22.4226 20.1204 21.9827C19.8335 21.3622 19.2812 20.7495 19.0445 20.5217C18.5065 19.8697 17.8824 19.1706 17.9254 18.4558C17.9685 18.0945 18.2769 17.4346 18.8723 19.1471C18.8723 19.1471 19.0229 18.9035 19.4175 18.4322C19.7976 17.9766 19.647 17.8195 19.5824 17.4661C19.5466 17.2933 19.5681 17.034 19.5681 17.034C19.4246 17.0576 19.2525 17.2304 19.0875 17.4189C19.0875 17.4189 18.7862 17.5682 18.5208 16.9398C18.2984 16.4135 18.3558 15.9893 18.5854 15.7537C18.7575 15.8008 18.9512 15.9108 19.0588 16.0129C19.2094 16.1543 19.3099 16.3349 19.3959 16.5313C19.6111 17.0262 19.7833 17.5996 20.3356 17.741C21.1319 17.9452 21.9138 16.9241 21.4905 16.115C21.4905 16.115 21.4905 16.6177 21.1749 16.8848C20.6297 17.3561 20.1563 17.0026 19.8335 16.5627C19.5179 16.1307 19.1951 15.7458 18.6212 15.7301C18.8938 15.4866 19.3673 15.4866 19.8837 15.8244C19.9555 15.8715 20.0344 15.9265 20.1061 15.9972C20.1061 15.9972 20.02 16.2093 20.0272 16.5235C20.0272 16.5392 20.0272 16.5549 20.0272 16.5784C20.0272 16.5784 20.3787 16.4135 20.515 16.2799C20.8952 15.8793 21.4905 15.0388 21.3399 14.8503C21.1319 14.599 19.5681 13.9234 19.5681 13.9234C19.5681 13.9234 19.604 13.6956 19.3099 13.5699C19.1162 13.4914 17.6887 12.8787 16.254 13.24C15.9743 13.24 15.6228 13.0044 14.1092 12.5566C14.1092 12.5566 14.0734 13.8056 14.7333 14.2455C14.3101 14.5204 14.432 14.3476 14.1021 14.9132C14.1021 14.9132 13.7936 15.7772 13.1122 16.1935C13.1122 16.1935 13.4421 16.5706 14.0088 16.225C13.9873 16.2485 13.2556 17.0183 13.0978 17.7174C13.0978 17.7174 13.5999 17.2618 13.9299 17.4818C13.851 17.4975 13.7936 17.5289 13.7793 17.576L13.894 17.6389C13.5999 17.9531 12.7678 18.9742 13.0046 20.451C12.9902 20.7181 13.1408 20.0582 13.3489 19.8697C13.1767 20.5688 13.0117 21.3308 13.0117 21.3308C12.818 21.5271 12.4379 22.6818 12.4235 22.8389C12.4092 22.996 13.0906 22.3598 13.2054 22.2498C13.313 22.1398 13.3202 22.242 13.3202 22.242C12.5383 24.3236 12.6602 25.1248 12.6818 24.8656C12.7033 24.6063 13.1982 24.2293 13.1982 24.2293C13.4134 25.5882 12.237 27.0885 12.3016 27.2535C12.3661 27.4185 14.1164 25.8239 14.1164 25.8239C14.1092 26.1381 14.059 26.4366 13.8869 26.7272C13.1408 27.9762 11.1754 28.9423 11.2471 28.9738C10.9387 29.1152 10.5226 29.5393 10.0779 30.0342C9.5829 30.5919 9.05208 31.456 8.63603 31.8566C8.33475 32.1472 8.09086 32.0922 7.9474 32.0215C7.41657 31.7545 9.00187 30.6705 8.30606 30.6155C7.61025 30.5526 7.71785 30.1599 7.71785 30.1599C7.83262 29.9007 8.12673 29.8064 8.47104 29.5865C8.94448 29.2801 9.76224 28.9266 10.042 28.5653C10.8454 27.5363 10.953 26.4837 10.953 26.4837L11.1897 26.9786C11.326 26.3894 11.2256 25.7296 11.0032 25.0698C10.7235 24.245 9.87701 23.6166 9.41792 22.9411C8.77232 21.9984 8.52843 21.1265 8.52843 21.1265C11.5986 19.0842 10.085 17.5603 10.085 17.5603C8.36344 17.6153 8.12673 18.338 7.91153 20.1996C7.69633 22.0613 8.6719 23.538 10.042 25.2347C11.4121 26.9314 7.8398 29.2487 7.8398 29.2487C7.14399 29.6729 7.0077 30.1049 6.89292 30.5605C6.59165 31.7466 7.24442 32.6971 7.7322 33.0348C8.22715 33.3805 8.80819 33.4197 8.80819 33.4197C9.00187 35.3599 9.76941 36.7424 9.60442 36.7817C9.43944 36.8131 7.76806 37.4101 7.76806 37.4101C7.20855 39.9944 8.89427 44.0791 8.89427 44.0791C8.49974 44.1498 8.49256 45.548 8.49256 45.548L9.05208 45.5873C8.98035 45.1474 9.55421 44.7625 9.55421 44.7625C9.55421 44.7625 10.2142 45.8308 10.2931 45.6187C10.3648 45.4066 10.3074 44.7939 10.3074 44.7939C10.5513 44.9117 11.1825 45.1631 11.1825 45.1631C11.1825 44.7075 10.9243 44.3854 10.9243 44.3854C11.1969 44.5504 12.0075 44.6839 12.0075 44.6839C12.0075 44.354 11.448 43.8748 11.448 43.8748C11.5627 43.702 12.3518 44.1419 12.3518 44.1419C12.4881 42.5788 9.85548 42.1939 9.85548 42.1939C9.60442 41.9739 9.51834 39.3503 9.51834 39.3503C11.1323 38.7298 11.9788 37.9521 12.5096 37.0488C12.9974 36.224 13.0691 35.3757 13.1695 34.7158C13.2341 34.2838 13.3632 33.9303 13.4421 33.7025C13.7721 32.7285 14.9485 32.485 16.4621 32.1472C17.9685 31.8094 17.9326 30.9768 18.0545 30.859C18.1765 30.7412 18.5495 31.4874 18.5495 31.4874C18.4275 32.6578 19.0301 32.4536 19.0803 32.6107C19.1305 32.7678 19.6327 31.9823 19.6614 31.778C19.6972 31.5738 19.8479 31.5895 19.8479 31.5895C20.185 32.54 19.6614 32.2965 19.5609 32.3514C19.4605 32.4064 19.2597 33.4433 19.5968 33.1684C19.9339 32.8934 20.0846 32.7049 20.0846 33.3019C20.0846 33.8989 19.274 33.7497 19.5394 33.9853C19.812 34.2288 20.6584 33.7811 20.7947 33.6868C20.931 33.5926 20.9669 33.8361 20.9669 33.8361C20.4145 35.5328 21.2682 35.6899 21.2682 35.6899C21.6914 35.7291 21.7918 34.9122 21.7918 34.9122C22.0572 35.4149 22.7243 36.2633 22.7243 36.2633C23.2982 35.6349 23.0256 34.7394 23.0256 34.7394C23.4847 35.1479 24.2522 35.2578 24.2522 35.2578C24.1949 33.9932 23.4488 33.9068 23.4632 33.8125C23.4775 33.7182 24.6683 34.1267 24.6683 34.1267L24.532 33.5533C24.3312 32.3279 22.0787 32.1629 22.0787 32.1629C21.3256 30.8118 20.8521 29.7907 20.5437 29.068C20.1276 28.1018 19.9626 27.6384 20.02 27.387C20.0846 27.12 20.2639 27.12 20.2639 27.12L20.9382 27.3242C20.9812 27.7405 21.1175 27.8741 21.2969 27.8583C21.4977 27.8348 21.8205 27.8898 22.0357 27.6463C22.3226 27.3242 22.4733 26.6801 22.4733 26.6801C23.5708 26.6408 23.2839 25.6039 23.2839 25.6039C23.6497 25.494 23.8721 25.3054 24.0012 25.0855C24.2809 24.622 24.1662 24.0565 24.1662 23.9465C24.1662 23.7894 24.3814 22.3598 24.3814 22.3598L25.0987 21.3622L25.0843 21.3072ZM18.7719 17.7253C18.9512 17.7881 19.1449 17.7646 19.3099 17.6624L19.4892 17.5525L19.4605 17.9138C19.4533 18.0473 19.4103 18.173 19.3386 18.2751L18.9727 18.8171L18.4562 17.6075L18.779 17.7174L18.7719 17.7253ZM19.439 14.2298L20.8952 14.8975C20.9812 14.9367 21.0028 15.1567 20.9525 15.2352L20.2209 16.2407L20.3141 15.8165C20.3141 15.8165 19.6111 15.1567 19.0014 15.3295L19.5322 14.7325L19.439 14.2376V14.2298ZM18.0976 13.7506C18.2697 13.9234 18.9584 14.0177 19.0875 14.1512C19.2166 14.2848 19.1018 14.6304 19.1018 14.6304C19.1018 14.6304 19.0445 14.4026 18.5423 14.1748C18.0545 13.947 18.0976 13.7585 18.0976 13.7506ZM16.1608 13.5935L17.6026 13.7977L15.4363 14.0412L14.719 13.2322L16.1608 13.5857V13.5935ZM15.3933 14.3319L15.1924 15.2352L17.1435 16.17L18.1693 17.254L17.6026 18.3615C17.6026 18.3615 17.452 19.1785 18.0976 19.9875L17.8106 19.8226C17.0359 19.1471 15.2426 17.4896 14.7979 17.3718L16.5338 17.4346L14.224 16.6177L16.4764 16.3664L14.0877 15.683L15.3933 14.3162V14.3319ZM16.1034 31.2203C15.508 31.6209 14.6185 31.8644 13.8438 32.0922C12.9328 32.3593 12.3374 33.3098 12.4307 34.3388L12.4594 34.6844C12.5885 36.1297 11.8497 37.4965 10.6374 38.0778L8.93014 38.8869C8.93014 38.8869 9.00904 42.3353 9.96308 42.673C11.4336 42.8144 11.7205 43.5685 11.7205 43.5685C11.7205 43.5685 10.4222 43.3407 10.7306 43.4978C11.0391 43.6549 11.491 44.1576 11.491 44.2912C11.491 44.4247 10.2428 43.5606 10.2428 43.5606C10.2428 43.5606 10.8526 44.3304 10.8167 44.8175C10.7593 44.8018 10.6804 44.7232 10.6159 44.6054C10.4796 44.3776 9.84831 43.812 9.84831 43.812L9.95591 44.2048C10.042 44.5111 10.0922 44.8332 10.0994 45.1474V45.2338L9.40357 44.1576C9.16685 44.4168 8.85123 44.9274 8.85123 44.9274C8.80819 44.4483 9.05925 43.9848 9.20272 43.7649C8.54278 41.8797 8.28454 37.905 8.28454 37.905L10.25 37.3394C10.788 37.1823 11.1252 36.6089 11.0319 36.0119L10.8669 34.9515C10.8669 34.9515 11.1108 35.0615 11.1036 34.9672C11.0893 34.8729 10.9458 34.5509 10.9458 34.5509C10.9028 34.4095 10.4437 34.0246 10.4437 33.8361C10.4437 33.7339 10.8095 33.8596 10.7665 33.7182C10.7163 33.569 10.4007 33.2391 10.3576 33.0977C10.2357 32.6971 10.1352 32.3279 10.1209 32.1158C10.1137 31.9823 10.5872 32.7756 10.5728 32.6421C10.5585 32.5007 10.5369 32.3593 10.5154 32.2179C10.4939 32.1158 10.4509 31.8409 10.3504 31.7073C10.2644 31.5895 10.1209 31.6052 10.1065 31.5267C10.0563 31.1103 10.8024 30.4584 10.8956 30.3641C11.2614 30.0106 11.2615 29.9635 12.4594 28.9109C15.5798 26.1695 16.7203 29.0209 16.7203 29.0209V30.0185C16.7203 30.4976 16.4979 30.9375 16.1249 31.1889L16.1034 31.2203ZM20.0344 24.952C20.0344 24.952 19.3672 24.7399 19.5466 25.0776C19.7259 25.4233 19.9196 26.5308 19.9196 26.5308H19.2668C19.5609 28.2825 21.6914 32.4928 21.6914 32.4928C24.1088 32.917 24.2307 33.4983 24.2307 33.4983C24.2307 33.4983 23.786 33.3333 23.4201 33.349C23.0543 33.3726 22.7674 33.5847 22.918 33.5847C23.2336 33.5847 23.8003 34.7708 23.8003 34.7708C23.1332 34.1738 22.1863 33.9303 22.3155 34.0717C22.4446 34.2131 22.588 35.4935 22.588 35.4935C22.3011 35.0536 21.8492 34.4488 21.4905 34.3545C21.1319 34.2602 21.1032 35.1164 21.1032 35.1164C20.8449 34.7237 21.1606 33.8675 21.1606 33.8675L20.8593 32.9641C20.8593 32.862 20.8234 32.7049 20.7804 32.54C20.7158 32.2965 20.6871 32.0215 20.6011 31.8409C20.5437 31.7152 20.4361 31.6366 20.4074 31.6288C20.3069 31.6131 20.4002 32.1394 20.2926 32.1394C20.185 32.1394 20.3069 31.7545 20.2926 31.6209C20.2783 31.4874 19.8407 30.5055 19.69 30.427C19.5394 30.3484 19.3816 30.804 19.3816 30.804C19.3816 30.804 18.8651 31.1653 18.9655 30.8983C19.066 30.6312 18.8651 30.2384 18.8436 30.0813C18.8293 29.9321 19.3314 29.9871 19.2597 29.8535C19.1879 29.72 18.5495 29.1701 18.5495 29.1701C18.5495 29.1701 18.7217 29.5315 18.4993 29.5315C18.2769 29.5315 17.9111 28.7538 17.9111 28.7538L18.2482 29.0366L18.1837 28.8402C18.0402 28.4161 17.6887 28.0233 17.4663 27.6463L16.7705 26.3973C16.5123 26.0281 16.2756 25.6432 16.0604 25.2426L14.0805 21.6135C13.9658 21.4015 13.8869 21.1737 13.8725 20.9302C13.8151 20.1839 14.0303 19.5084 14.2455 19.0528C14.4033 18.7307 14.5755 18.5108 14.6185 18.4558C14.719 18.3066 14.7692 18.7307 14.7692 18.7307L14.2455 20.0347C14.2455 20.0347 14.5038 19.5162 14.6759 19.1706C14.6974 19.1313 14.7046 19.0921 14.7261 19.0449C14.7692 18.9507 14.7835 18.9193 14.8122 18.8878C14.8553 18.8407 14.8553 18.9035 14.8122 19.0135C14.7835 19.0842 14.7692 19.1549 14.762 19.2335C14.7261 19.6733 14.762 20.3332 14.762 20.2625C14.762 20.1918 15.0418 20.0661 15.0418 20.0661C15.0418 20.0661 14.9772 19.9718 15.4865 20.341C15.9958 20.7024 16.1895 21.6842 16.3043 21.9199C16.419 22.1555 16.4406 21.2758 16.4406 21.2758C16.4406 21.2758 16.5553 21.3386 16.7131 21.425C16.8709 21.5114 16.8279 21.8335 16.8853 22.0849C16.9427 22.3441 17.0001 21.7314 17.0001 21.7314C17.0001 21.7314 17.1722 21.5743 17.3157 21.8256C17.452 22.0849 16.9642 22.6583 17.1579 22.7054C17.3516 22.7447 17.5309 21.912 17.5309 21.912L17.7676 22.1477C17.7676 22.1477 18.2554 21.2051 17.9828 22.1477C17.7102 23.0903 17.9254 23.0667 17.9828 23.0667C18.0402 23.0667 18.3558 22.4855 18.3558 22.4855C18.3558 22.4855 18.2984 23.2317 18.528 23.1689C18.7575 23.106 18.6284 22.4855 18.6284 22.4855C19.2166 22.4619 20.0917 23.5302 19.9985 23.6794C19.8981 23.8287 19.8048 24.0879 19.8048 24.0879C20.3715 24.6613 20.0415 24.9441 20.0415 24.9441L20.0344 24.952ZM21.3686 26.8607L21.4116 26.2323C21.634 25.7689 21.6699 25.219 21.6699 25.219C21.6483 25.3683 21.5623 25.5725 21.4403 25.7846L21.4547 25.5882C21.8133 24.9048 21.8707 24.0486 21.8707 24.0486C21.842 24.2843 21.6914 24.6063 21.4977 24.9362L21.5121 24.7556C21.5121 24.7556 23.248 21.2758 23.291 20.828C23.3269 20.3882 23.04 19.367 22.6885 19.2963C22.337 19.2256 22.9611 18.8171 22.9611 18.8171C22.9611 18.8171 22.9324 19.3984 23.413 19.422C23.951 19.4534 23.664 19.257 24.0657 19.1863C24.0657 19.1863 23.5995 19.744 23.8434 19.8226C24.0873 19.8933 24.0801 20.3567 24.3742 20.1918C24.6683 20.019 24.2738 21.37 23.7788 21.8335C23.2839 22.2891 22.8463 24.4414 22.8463 24.4414L21.3614 26.8607H21.3686ZM23.6067 23.1217C23.4775 23.5145 23.6282 24.0015 23.5564 24.3078C23.3628 25.1562 22.753 25.3054 22.753 25.3054C22.753 25.3054 23.4273 24.6692 23.3269 24.0408C23.2767 23.7658 23.3699 23.3731 23.4775 23.0196C23.6353 22.5247 23.951 22.1084 24.3527 21.8178C24.3527 21.8178 23.8362 22.4069 23.6067 23.1139V23.1217Z" fill="#1F1F1F"/>
<path d="M36.1063 49.6783L26.8312 41.2655C25.3966 39.9144 24.543 37.8643 24.543 35.7748V19.9783L36.0991 17.8652L47.4472 19.9783V35.7748C47.4472 37.8957 46.5793 39.8987 45.0657 41.2655L36.1063 49.6783ZM25.2029 20.5831V35.767C25.2029 37.6522 25.9704 39.4981 27.2545 40.7078L36.0991 48.7279L44.6425 40.7078C46.0054 39.4746 46.7873 37.6758 46.7873 35.767V20.5831L36.0991 18.5879L25.1957 20.5831H25.2029Z" fill="#1F1F1F"/>
<mask id="mask0_18230_14441" style="mask-type:luminance" maskUnits="userSpaceOnUse" x="24" y="17" width="24" height="33">
<path d="M36.1063 49.6783L26.8312 41.2655C25.3966 39.9144 24.543 37.8643 24.543 35.7748V19.9783L36.0991 17.8652L47.4472 19.9783V35.7748C47.4472 37.8957 46.5793 39.8987 45.0657 41.2655L36.1063 49.6783Z" fill="white"/>
</mask>
<g mask="url(#mask0_18230_14441)">
<path fill-rule="evenodd" clip-rule="evenodd" d="M29.25 21.5H43.0442V23.291H29.25V21.5ZM41.9395 24.155V25.946H30.3547V24.155H41.9395Z" fill="#1F1F1F"/>
<path d="M47.2371 17.8555H25.043V20.5733H47.2371V17.8555Z" fill="#1F1F1F"/>
<path fill-rule="evenodd" clip-rule="evenodd" d="M33.0011 50.1489V28.7988H31.918V27.0078H34.6366V50.1489H33.0011Z" fill="#1F1F1F"/>
<path d="M36.9714 27.0078H35.3359V51.4214H36.9714V27.0078Z" fill="#1F1F1F"/>
<path fill-rule="evenodd" clip-rule="evenodd" d="M37.6523 50.1489V27.0078H40.371V28.7988H39.2878V50.1489H37.6523Z" fill="#1F1F1F"/>
</g>
<path d="M36.8217 12.0991C36.7213 12.0755 36.628 12.0441 36.542 11.9891C36.5061 11.9656 36.4702 11.942 36.4344 11.9184C36.542 12.0048 36.6209 12.1227 36.6783 12.2484C36.7572 12.4212 36.793 12.6175 36.793 12.8139C36.7643 12.7354 36.7213 12.6568 36.6854 12.5861C36.6567 12.539 36.6352 12.484 36.6065 12.4447C36.628 12.5704 36.6496 12.7039 36.6352 12.8375C36.6209 12.9789 36.6065 13.1124 36.6065 13.2538C36.5922 13.2302 36.5922 13.1988 36.5778 13.1674C36.5061 12.9789 36.4344 12.7904 36.3626 12.594C36.2622 12.3348 36.1618 12.0677 36.0327 11.8242C35.8605 11.4628 35.6166 11.1408 35.3512 10.8502C35.2077 10.7088 35.0499 10.5752 34.8706 10.4888C34.7773 10.4417 34.6841 10.3946 34.5837 10.371C34.6482 10.371 34.7199 10.3946 34.7845 10.4103C35.0643 10.481 35.3368 10.5831 35.5879 10.748C35.7314 10.8344 35.8677 10.9444 35.9896 11.0622C36.1546 11.2115 36.2909 11.3843 36.4272 11.5571C36.5276 11.6828 36.6137 11.8163 36.7213 11.9342C36.6854 11.887 36.6496 11.8399 36.6137 11.7928C36.4344 11.5257 36.2479 11.2586 36.0255 11.0308C35.8892 10.8973 35.7529 10.7637 35.6023 10.6616C35.4229 10.5281 35.2221 10.4181 35.0212 10.3317C34.9136 10.2924 34.806 10.2453 34.6984 10.2217C34.4904 10.1746 34.2824 10.1746 34.0672 10.1903C34.0385 10.2453 34.0026 10.2924 33.9883 10.3553C33.9094 10.1903 33.7731 10.0646 33.6296 9.97038C33.5722 9.93896 33.5077 9.9154 33.4431 9.89183C33.5435 10.0018 33.6583 10.1039 33.7444 10.2217C33.8663 10.4024 33.9668 10.5988 34.0241 10.8109C34.0744 10.9915 34.0959 11.1879 34.0528 11.3764C34.0385 11.29 34.0313 11.2115 34.0098 11.1251C33.9883 11.0544 33.9524 10.9915 33.9165 10.9287C33.8663 10.8502 33.8018 10.7952 33.7372 10.7402C33.8018 10.8266 33.8376 10.9366 33.8663 11.0387C33.9165 11.2193 33.9309 11.4079 33.9094 11.5964C33.8879 11.7378 33.8305 11.8713 33.7659 11.997C33.7874 11.9342 33.8018 11.8635 33.8089 11.8006C33.8305 11.6042 33.8233 11.4 33.7229 11.2272C33.7372 11.4707 33.6368 11.7221 33.4646 11.8792C33.3068 12.0284 33.1131 12.1227 32.9123 12.1777C32.8262 12.2012 32.733 12.2169 32.6397 12.2405C32.5967 12.2484 32.5536 12.2641 32.5106 12.2719C32.5895 12.2326 32.6612 12.1855 32.7258 12.1227C32.7975 12.052 32.8692 11.9656 32.8979 11.8635C32.941 11.7221 32.8405 11.5493 32.7043 11.5493C32.6038 11.565 32.5034 11.5964 32.4245 11.6671C32.3743 11.7142 32.3312 11.7692 32.3241 11.8399C32.2308 11.7378 32.1304 11.6199 32.1017 11.4707C32.073 11.345 32.1232 11.2036 32.2093 11.1172C32.1663 11.0858 32.1232 11.0465 32.1017 10.9994C32.073 10.9444 32.0874 10.8737 32.0945 10.8109C32.073 10.7637 32.0156 10.7245 32.0156 10.6616C32.0156 10.6145 32.0658 10.5831 32.0945 10.5595C32.1447 10.5281 32.1878 10.481 32.2452 10.4495C32.3599 10.3867 32.4819 10.3239 32.5967 10.2532C32.6325 10.2139 32.6469 10.1589 32.6756 10.1118C32.6899 10.0961 32.7114 10.0882 32.7258 10.0804C32.8262 10.0254 32.9123 9.95467 33.0199 9.90754C33.0342 9.78186 33.0557 9.65618 33.1131 9.54621C33.1849 9.39696 33.2996 9.27128 33.4431 9.20844C33.4001 9.24771 33.3642 9.27913 33.3283 9.32626C33.2279 9.45195 33.1777 9.62476 33.149 9.78972C33.1849 9.67974 33.2279 9.56977 33.2925 9.47551C33.4072 9.32627 33.5651 9.23986 33.7229 9.17702C33.8663 9.12989 34.0241 9.10632 34.182 9.12203C34.1389 9.13774 34.0959 9.1456 34.0528 9.16916C33.9811 9.20058 33.9237 9.25557 33.8663 9.3027C33.7874 9.3734 33.73 9.46765 33.6583 9.54621C33.8161 9.42838 33.9955 9.32626 34.1963 9.31055C34.39 9.29484 34.5765 9.35769 34.7558 9.45195C34.9423 9.54621 35.1073 9.6876 35.301 9.76615C35.344 9.78972 35.3942 9.79757 35.4444 9.82113C35.2651 9.85255 35.093 9.76615 34.9136 9.74258C34.7989 9.72687 34.6841 9.71902 34.5693 9.73473C34.6769 9.74258 34.7917 9.75044 34.8993 9.78972C35.0212 9.82899 35.1432 9.87612 35.2579 9.95467C35.4731 10.0961 35.631 10.316 35.8605 10.426C36.0111 10.5045 36.1905 10.5281 36.3483 10.4653C36.3268 10.5124 36.2909 10.5517 36.255 10.5831C36.1546 10.6852 36.0183 10.7323 35.882 10.748C36.0255 10.8894 36.169 11.023 36.2981 11.1879C36.4272 11.3529 36.542 11.5335 36.6567 11.7142C36.7572 11.8792 36.8791 12.0363 37.0441 12.1227C36.9724 12.1227 36.9078 12.1227 36.8361 12.0991H36.8217ZM32.1519 11.4314C32.1519 11.5178 32.2093 11.5964 32.2452 11.6671C32.2523 11.6357 32.238 11.5728 32.281 11.5728C32.281 11.5807 32.281 11.5964 32.281 11.6042C32.2882 11.5807 32.2954 11.5571 32.3097 11.5335C32.3097 11.5493 32.3097 11.565 32.3169 11.5807C32.4102 11.51 32.5249 11.4943 32.6182 11.4157C32.6254 11.4079 32.6325 11.3922 32.6397 11.3843C32.5106 11.3215 32.3958 11.2272 32.2739 11.1565C32.2523 11.1408 32.238 11.1565 32.2237 11.1722C32.1591 11.235 32.1304 11.3372 32.1447 11.4236L32.1519 11.4314ZM33.1777 9.99395C33.2207 9.96253 33.2638 9.93111 33.314 9.90754C33.2423 9.90754 33.1705 9.9154 33.106 9.93111C33.0342 9.95467 32.9697 9.99395 32.9051 10.0332C32.8692 10.0568 32.8262 10.0804 32.8047 10.1275C32.7832 10.1353 32.7545 10.1432 32.733 10.1589C32.7043 10.1903 32.6899 10.2375 32.6684 10.2767C32.6469 10.3003 32.6254 10.3239 32.611 10.3474C32.5751 10.3317 32.5464 10.3631 32.5178 10.371C32.3815 10.4417 32.238 10.4967 32.1232 10.6145C32.1878 10.6145 32.2595 10.6145 32.3169 10.6459C32.3815 10.6145 32.4317 10.5595 32.4962 10.5281C32.5536 10.4967 32.611 10.4495 32.6756 10.426C32.733 10.3788 32.7473 10.2846 32.7975 10.2296C32.8908 10.1825 32.9984 10.1903 33.0844 10.2296C33.1131 10.2453 33.1418 10.2453 33.1633 10.2767C33.1203 10.2767 33.0701 10.2767 33.0271 10.3003C33.0055 10.3239 32.9912 10.3631 32.9553 10.3788C32.9123 10.4024 32.8549 10.3788 32.8119 10.3788C32.776 10.3946 32.7473 10.426 32.7114 10.4495C32.6756 10.4731 32.6325 10.481 32.5967 10.5045C32.5106 10.5517 32.4317 10.6066 32.3528 10.6616C32.281 10.7009 32.2165 10.7559 32.1591 10.8187C32.1376 10.8737 32.1304 10.9366 32.1591 10.9915C32.1878 11.0387 32.2236 11.078 32.2739 11.1015C32.3241 11.1251 32.3743 11.1486 32.4245 11.1565C32.4962 11.1801 32.5393 11.1722 32.5393 11.1722C32.6182 11.1722 32.7043 11.1565 32.776 11.1094C32.819 11.0779 32.8477 11.0151 32.8262 10.9601C32.776 10.858 32.6827 10.7795 32.5751 10.7559C32.6612 10.7402 32.7545 10.7559 32.8262 10.8109C32.8621 10.8423 32.8908 10.8816 32.9195 10.9208C32.8979 10.8423 32.8549 10.7716 32.7903 10.7245C32.7545 10.7009 32.7043 10.6931 32.6612 10.6931C32.733 10.6616 32.8047 10.6695 32.8836 10.6695C32.8549 10.6459 32.819 10.6459 32.7832 10.6459L32.7688 10.6616C32.7688 10.6616 32.7688 10.6538 32.7688 10.6459C32.8692 10.5988 32.9768 10.5988 33.0844 10.5831C33.2064 10.5595 33.3212 10.4417 33.314 10.3003C33.3427 10.3239 33.357 10.3631 33.3785 10.3946C33.4216 10.4731 33.4575 10.5517 33.479 10.6381C33.5507 10.968 33.4646 11.3293 33.2638 11.5807C33.4072 11.455 33.522 11.2743 33.5722 11.0779C33.6153 10.8894 33.6081 10.6931 33.5507 10.5124C33.479 10.3003 33.3427 10.1275 33.1849 9.99395H33.1777ZM34.06 9.6876C33.9954 9.6012 33.8807 9.57763 33.7874 9.6169C33.7157 9.64047 33.6583 9.69545 33.6153 9.75829C33.7013 9.72687 33.7803 9.67974 33.8735 9.69545C33.9237 9.69545 33.9811 9.72687 34.0026 9.78186C34.017 9.87612 34.0026 9.97824 33.9883 10.0725C33.9883 10.1432 33.9811 10.2217 33.9883 10.2924C34.0098 10.1668 34.0744 10.0489 34.0959 9.9154C34.1102 9.83684 34.1102 9.7583 34.0672 9.6876H34.06Z" fill="#1F1F1F"/>
<path d="M40.3587 15.6891C40.2224 15.7441 40.0718 15.7284 39.9283 15.6891C39.7633 15.6263 39.6055 15.5399 39.4692 15.4299C39.2899 15.2964 39.1177 15.155 38.9527 15.0058C38.9241 14.9822 38.9025 14.9508 38.8738 14.9351C38.9312 15.0529 38.9886 15.1629 39.0317 15.2885C39.1106 15.5006 39.1608 15.7284 39.1966 15.9562C39.211 16.0505 39.2325 16.1526 39.254 16.2469C39.3186 16.4668 39.3975 16.6867 39.5338 16.8753C39.6199 17.0009 39.7346 17.1109 39.8709 17.1659C39.914 17.5272 39.9427 17.8886 39.9498 18.2578C39.9498 18.3992 39.9498 18.5484 39.9498 18.6898C39.8781 18.6741 39.8064 18.6584 39.7346 18.6505C39.5051 18.6191 39.2827 18.5641 39.0532 18.5405C39.003 18.5405 38.9527 18.5327 38.9097 18.517C38.9599 18.4541 39.0173 18.3992 39.089 18.3677C39.1966 18.3285 39.3258 18.3363 39.4334 18.3834C39.4334 18.2813 39.4334 18.1792 39.419 18.0771C39.3688 17.8336 39.254 17.6058 39.0819 17.4408C38.9743 17.3309 38.838 17.268 38.7089 17.1895C38.5224 17.0716 38.343 16.946 38.1852 16.7889C38.0489 16.6553 37.927 16.4904 37.8337 16.3176C37.762 16.5139 37.7405 16.7417 37.7692 16.9538C37.805 17.1738 37.9126 17.378 38.0776 17.5037C38.0776 17.5272 38.0776 17.5429 38.0633 17.5665C37.9772 17.8179 37.8552 18.0457 37.7261 18.2735C37.7118 18.3049 37.6974 18.3363 37.6759 18.3677C37.4751 18.352 37.2742 18.3285 37.0734 18.3127C37.1666 18.1871 37.2742 18.0614 37.3244 17.9043C37.3531 17.81 37.3531 17.7158 37.3316 17.6215C37.3172 17.5351 37.2599 17.4644 37.2025 17.4016C37.0805 17.268 36.9729 17.1266 36.8653 16.9774C36.7792 16.8596 36.7147 16.7339 36.6501 16.6003C36.5856 16.4747 36.5497 16.3411 36.5067 16.1997C36.3273 16.2626 36.1337 16.2704 35.9471 16.2469C35.8826 16.2469 35.818 16.2154 35.7535 16.1919C35.8324 16.2626 35.9041 16.3254 35.9974 16.3725C35.9041 16.349 35.818 16.3176 35.7319 16.2783C35.6961 16.2626 35.6674 16.2311 35.6243 16.2233C35.5526 16.4589 35.5024 16.7103 35.445 16.9538C35.3948 17.2052 35.3302 17.4565 35.3374 17.7079C35.3374 17.7236 35.3374 17.7472 35.3302 17.7629C35.2155 17.92 35.1222 18.1007 35.0505 18.2892C34.9572 18.2892 34.8712 18.2892 34.7779 18.3049C34.8209 18.2578 34.8568 18.2028 34.8855 18.1478C34.9788 17.9671 35.0648 17.7707 35.0935 17.5665C35.115 17.4487 35.1222 17.3309 35.1366 17.213C35.1868 16.7417 35.237 16.2704 35.2513 15.7991C35.3159 16.0976 35.3231 16.4118 35.3016 16.726C35.3231 16.6082 35.3518 16.4982 35.3661 16.3804C35.3805 16.2469 35.4163 16.1133 35.4235 15.9798C35.4307 15.8855 35.4092 15.7991 35.3876 15.7049C35.3446 15.5478 35.3016 15.3749 35.3159 15.21C35.3374 15.0293 35.402 14.8565 35.4881 14.6994C35.4881 14.8015 35.4881 14.8958 35.5239 14.99C35.5885 15.1707 35.6961 15.3435 35.8467 15.4535C36.0045 15.5713 36.1839 15.642 36.3704 15.6734C36.564 15.7049 36.7649 15.697 36.9586 15.6734C36.851 15.6499 36.7506 15.6027 36.6501 15.5556C36.4851 15.4771 36.3273 15.3671 36.1839 15.2414C36.2843 15.2414 36.3775 15.2414 36.478 15.2493C36.6932 15.2493 36.9155 15.2807 37.1164 15.3828C37.1809 15.4142 37.2455 15.4535 37.2957 15.5163C37.2168 15.32 37.1164 15.1236 36.9944 14.9586C36.894 14.8329 36.7864 14.7073 36.6573 14.613C36.5927 14.5737 36.5282 14.5266 36.4565 14.5109C36.7936 14.5659 37.1092 14.7308 37.3459 14.99C37.4607 15.1079 37.5468 15.2571 37.64 15.3985C37.7548 15.587 37.8265 15.7991 37.9413 15.9876C38.0346 16.1447 38.1422 16.3018 38.2713 16.4354C38.3502 16.5218 38.4219 16.6082 38.508 16.671C38.343 16.4904 38.2354 16.2547 38.1493 16.0191C38.0561 15.7598 38.0202 15.4849 37.9413 15.2178C37.8911 15.0372 37.8122 14.8722 37.7118 14.723C37.7907 14.8015 37.8552 14.8958 37.9126 14.9979C38.0202 15.1864 38.0776 15.3985 38.1493 15.6027C38.2282 15.8463 38.3358 16.0819 38.465 16.3018C38.5367 16.4275 38.63 16.5375 38.7232 16.6553C38.8595 16.8203 39.0317 16.946 39.1895 17.0795C39.4405 17.3073 39.6414 17.6215 39.6988 17.9828C39.6988 17.7707 39.6414 17.5587 39.5696 17.3544C39.5625 17.3309 39.5481 17.2994 39.541 17.2759C39.5983 17.3466 39.6772 17.3858 39.749 17.433C39.6988 17.378 39.6486 17.323 39.5983 17.268C39.5625 17.2209 39.5194 17.1895 39.4907 17.1423C39.3401 16.9695 39.2038 16.7653 39.1106 16.5454C39.0317 16.349 38.9814 16.129 38.9527 15.9169C38.9312 15.7677 38.9025 15.6185 38.8667 15.4692C38.7878 15.1943 38.6658 14.9272 38.4865 14.7073C38.2856 14.4559 38.0059 14.2909 37.7118 14.1888C37.6257 14.1574 37.5324 14.1181 37.4464 14.0946C37.2599 14.0396 37.0734 13.9689 36.894 13.8825C36.7721 13.8196 36.6645 13.7489 36.5569 13.6625C36.4923 13.6154 36.4493 13.5447 36.3991 13.4819C36.3202 13.8039 36.1695 14.1024 35.94 14.3224C36.0404 14.0396 36.0404 13.7254 36.0045 13.4347C35.983 13.2855 35.94 13.1441 35.8898 13.0027C35.8898 13.0577 35.8969 13.1048 35.9041 13.1598C35.9185 13.4112 35.8826 13.6625 35.7822 13.8825C35.7535 13.9375 35.7319 14.0003 35.6889 14.0474C35.7391 13.8825 35.7965 13.7097 35.7822 13.5369C35.775 13.5447 35.7678 13.5604 35.7678 13.5761C35.7248 13.7489 35.6387 13.8982 35.5454 14.0396C35.3948 14.2517 35.2155 14.4323 35.0218 14.5894C34.8783 14.7073 34.7349 14.8408 34.6057 14.9822C34.5412 15.0607 34.491 15.1393 34.4408 15.2257C34.4408 15.1629 34.4479 15.1 34.4551 15.045C34.4766 14.8329 34.5627 14.6287 34.6918 14.4638C34.4479 14.6444 34.2686 14.9194 34.1897 15.2257C34.1323 15.4378 34.118 15.6656 34.161 15.8777C34.1969 16.0583 34.2686 16.2233 34.3547 16.3725C34.3188 16.2783 34.2758 16.184 34.2543 16.0819C34.2112 15.8777 34.1969 15.6577 34.2399 15.4535C34.2901 15.5478 34.326 15.642 34.3834 15.7363C34.4623 15.8934 34.5627 16.0426 34.6201 16.2233C34.6631 16.3647 34.6775 16.5139 34.6918 16.6632C34.7277 17.0874 34.7133 17.5194 34.5771 17.9278C34.5555 17.9907 34.5412 18.0535 34.5053 18.1085C34.5771 18.0928 34.656 18.1085 34.7205 18.1478C34.656 18.1478 34.5914 18.1321 34.5268 18.1478C34.4623 18.1635 34.4121 18.2106 34.3762 18.2656C34.3475 18.3049 34.3475 18.3599 34.326 18.4149C34.3116 18.4149 34.2973 18.4149 34.2829 18.4149C34.2829 18.3599 34.2901 18.297 34.3188 18.2499C34.3619 18.1871 34.4264 18.1478 34.491 18.1164C34.4121 18.1164 34.3332 18.1321 34.2614 18.1714C34.1682 18.2185 34.1036 18.3127 34.0821 18.4149C34.0606 18.4227 34.0391 18.4306 34.0175 18.4306C34.0247 18.3206 34.0821 18.2185 34.161 18.1635C34.118 18.1714 34.0677 18.1949 34.0319 18.2263C33.9817 18.2813 33.953 18.3599 33.953 18.4306C33.6732 18.462 33.3935 18.517 33.1209 18.5798C33.1352 18.4541 33.1926 18.3206 33.293 18.2499C33.3935 18.1714 33.5298 18.1635 33.6517 18.1792C33.6804 18.1085 33.7163 18.0378 33.7378 17.9593C33.7952 17.7315 33.8023 17.4958 33.788 17.2602C33.7593 16.8596 33.6589 16.4747 33.5871 16.0819C33.5871 16.0505 33.5656 16.0348 33.5513 16.0112C33.5011 15.9484 33.4437 15.8855 33.4078 15.807C33.3648 15.7127 33.3361 15.6185 33.3002 15.5163C33.2643 15.587 33.25 15.6656 33.2285 15.7441C33.1926 15.9169 33.1926 16.0898 33.2285 16.2626C33.1783 16.1683 33.1137 16.0898 33.0635 15.9955C32.9415 15.7598 32.8555 15.5085 32.8411 15.2414C32.8196 14.9743 32.8411 14.6994 32.9057 14.4402C32.9989 14.0789 33.1496 13.7332 33.3648 13.4426C33.4293 13.3483 33.5154 13.2698 33.5871 13.1912C33.6589 13.1205 33.7378 13.0577 33.8095 12.9949C33.5298 13.1677 33.2715 13.4033 33.0778 13.694C32.92 13.9375 32.8053 14.2203 32.755 14.5187C32.6833 14.8565 32.6761 15.21 32.755 15.5478C32.712 15.4849 32.6761 15.4142 32.6403 15.3435C32.4681 14.9979 32.3605 14.6051 32.382 14.2124C32.382 14.0317 32.4394 13.8511 32.504 13.6861C32.5901 13.474 32.7263 13.2934 32.8698 13.1284C33.1065 12.8927 33.3791 12.6964 33.6804 12.5785C33.6302 12.5785 33.5871 12.6021 33.5441 12.6178C33.3002 12.7121 33.0635 12.8299 32.8555 13.0106C32.5757 13.2541 32.3533 13.584 32.2601 13.9689C32.2457 14.0396 32.2386 14.1103 32.2314 14.181C32.2027 13.961 32.174 13.7254 32.2242 13.5054C32.2673 13.2855 32.382 13.097 32.5255 12.9477C32.6474 12.8142 32.8053 12.7121 32.9559 12.6257C32.9774 12.6257 32.9918 12.61 33.0133 12.5942C32.9989 12.5942 32.9846 12.5942 32.9774 12.5942C32.9487 12.6178 32.92 12.6257 32.8913 12.6414C32.6833 12.7592 32.4825 12.9006 32.3246 13.097C32.2099 13.2541 32.1094 13.419 32.0664 13.6154C32.0808 13.364 32.1381 13.1205 32.2673 12.9085C32.3533 12.7435 32.4753 12.6021 32.6187 12.4921C32.4753 12.4686 32.3462 12.3979 32.2027 12.39C32.2816 12.3743 32.3605 12.3586 32.4394 12.3429C32.5255 12.3272 32.6116 12.3193 32.6977 12.3036C32.9057 12.2722 33.128 12.2251 33.3074 12.1072C33.4293 12.0287 33.5369 11.9266 33.6302 11.8087C33.58 11.9344 33.5226 12.0522 33.4437 12.1622C33.3791 12.2408 33.3217 12.3272 33.2356 12.3822C33.3432 12.3586 33.4437 12.3193 33.5441 12.2879C33.6374 12.2565 33.7234 12.2172 33.8095 12.1701C33.9458 12.0837 34.0893 11.9894 34.1897 11.848C34.326 11.6752 34.369 11.4396 34.369 11.2196C34.4623 11.6045 34.4551 12.0208 34.326 12.39C34.2614 12.5707 34.1825 12.7513 34.0462 12.8849C34.1467 12.7985 34.2327 12.7042 34.3045 12.5942C34.4264 12.4214 34.4981 12.2093 34.5197 11.9894C34.5268 11.9109 34.5412 11.8323 34.534 11.7538C34.5914 12.0365 34.5842 12.335 34.5268 12.6178C34.4766 12.8613 34.3762 13.0891 34.2471 13.2933C34.1467 13.4505 34.0319 13.5918 33.9028 13.7175C33.9673 13.6704 34.0247 13.6154 34.0893 13.5683C34.2399 13.4426 34.3905 13.3091 34.5125 13.1441C34.6057 13.0184 34.6703 12.877 34.7277 12.7278C34.8209 12.4686 34.8425 12.1858 34.8138 11.9109C34.7994 11.7616 34.7707 11.6045 34.7205 11.4631C34.6273 11.196 34.5053 10.929 34.3188 10.7247C34.4479 10.8033 34.5627 10.9211 34.656 11.0468C34.7922 11.2196 34.9142 11.4238 34.9716 11.6438C34.9501 11.4945 34.9142 11.3531 34.864 11.2118C34.7994 11.0154 34.6918 10.8426 34.5555 10.7012C34.5914 10.709 34.6201 10.7247 34.6488 10.7404C34.7707 10.8033 34.8855 10.874 35.0003 10.9525C35.1222 11.0389 35.237 11.1411 35.3446 11.251C35.4378 11.3374 35.5168 11.4396 35.6028 11.5338C35.7391 11.6988 35.8539 11.8794 35.9615 12.068C36.0476 12.2251 36.1193 12.39 36.1839 12.555C36.2699 12.7828 36.3202 13.0184 36.3775 13.2541C36.3775 13.2933 36.4062 13.3169 36.4278 13.3405C36.5569 13.4897 36.7075 13.6154 36.8653 13.7175C37.059 13.8432 37.2599 13.9453 37.4679 14.0082C37.7046 14.0789 37.9485 14.1338 38.1709 14.2438C38.5367 14.4009 38.8595 14.6601 39.1608 14.9272C39.3329 15.0765 39.4979 15.2336 39.6916 15.3592C39.8064 15.4378 39.9283 15.5006 40.0574 15.5163C40.1435 15.5242 40.2511 15.5163 40.3157 15.4378C40.4017 15.3435 40.4089 15.2021 40.3874 15.0843C40.3515 14.9272 40.2798 14.7858 40.1937 14.6601C40.0718 14.4716 39.914 14.3067 39.749 14.1574C39.6844 14.1103 39.6199 14.0553 39.5481 14.0239C39.3903 13.9532 39.2253 13.8825 39.0819 13.7804C38.9456 13.6861 38.8308 13.5604 38.7447 13.4033C38.6802 13.2934 38.6586 13.1598 38.6371 13.0263C38.6156 12.822 38.6443 12.6178 38.6945 12.4214C38.6945 12.61 38.6873 12.8063 38.7447 12.987C38.8236 13.2227 38.9527 13.4505 39.1393 13.6076C39.1966 13.6547 39.2469 13.7018 39.3114 13.7332C39.0603 13.5604 38.8954 13.2698 38.8165 12.9713C38.7519 12.6964 38.7375 12.4057 38.8165 12.1308C38.8165 12.2251 38.8308 12.3115 38.8523 12.4057C38.9025 12.5785 38.9958 12.7356 39.1106 12.8692C39.1608 12.9242 39.211 12.9634 39.2684 13.0027C39.3616 13.0734 39.4405 13.152 39.5051 13.2541C39.6127 13.419 39.6557 13.6233 39.6486 13.8196C39.5912 13.6547 39.4836 13.5133 39.3688 13.3876C39.4692 13.5526 39.5553 13.7254 39.6414 13.8982C39.6557 13.9296 39.6772 13.961 39.6988 13.9767C39.9211 14.1417 40.1148 14.3538 40.287 14.5816C40.3874 14.7308 40.4735 14.8879 40.5237 15.0607C40.5739 15.2257 40.5811 15.4142 40.495 15.5635C40.452 15.6342 40.3874 15.6892 40.3157 15.7206L40.3587 15.6891ZM35.9687 15.7206C35.775 15.6342 35.61 15.4771 35.5096 15.2728C35.5454 15.3828 35.5885 15.4928 35.6674 15.5713C35.7822 15.697 35.9256 15.7834 36.0834 15.8148C36.2054 15.8384 36.3273 15.8541 36.4493 15.8541C36.2843 15.8227 36.1193 15.7913 35.9687 15.7127V15.7206ZM34.4695 18.03C34.534 17.8886 34.5699 17.7393 34.5986 17.5901C34.6488 17.2994 34.6488 17.0009 34.6273 16.7103C34.5699 16.8753 34.5268 17.0402 34.4695 17.1973C34.3762 17.4723 34.3045 17.755 34.2184 18.0378C34.2973 17.9985 34.3834 17.9985 34.4695 18.0221V18.03ZM35.5526 11.9187C35.5239 11.8166 35.4809 11.7223 35.4235 11.6281C35.3733 11.5417 35.3231 11.4553 35.2585 11.3767C35.3733 11.5495 35.4737 11.738 35.5024 11.9501C35.5526 12.2251 35.5167 12.5157 35.4092 12.7671C35.3446 12.932 35.237 13.0656 35.1222 13.1912C35.0433 13.2776 34.9501 13.3562 34.864 13.4269C34.7349 13.5369 34.5914 13.6311 34.4551 13.7332C34.3045 13.8432 34.1538 13.961 34.0247 14.1024C33.9458 14.1967 33.8669 14.2909 33.8023 14.4009C33.7163 14.5659 33.6445 14.7387 33.6015 14.9272C33.5226 15.2807 33.5441 15.6656 33.6947 15.9876C33.7378 16.074 33.7808 16.1605 33.8454 16.2233C33.6445 15.9169 33.5728 15.5163 33.6302 15.1472C33.6732 14.9036 33.7593 14.6601 33.9028 14.4638C33.953 14.3931 34.0104 14.3302 34.0677 14.2674C34.2112 14.1103 34.3834 13.9767 34.5627 13.8668C34.7205 13.7568 34.8927 13.6704 35.0433 13.5526C35.1724 13.4662 35.2944 13.3562 35.3805 13.2148C35.5024 13.0341 35.5741 12.8142 35.61 12.5942C35.6459 12.3665 35.6243 12.1308 35.5526 11.9109V11.9187Z" fill="#1F1F1F"/>
<path d="M32.6367 10.9711C32.6367 10.9552 32.644 10.9473 32.6585 10.9473C32.673 10.9473 32.6803 10.9552 32.6803 10.9711C32.6803 10.987 32.673 10.9949 32.6585 10.9949C32.644 10.9949 32.6367 10.987 32.6367 10.9711Z" fill="#1F1F1F"/>
<path d="M32.5943 10.9711C32.5943 10.987 32.5871 10.9949 32.5725 10.9949C32.558 10.9949 32.5508 10.987 32.5508 10.9711C32.5508 10.9552 32.558 10.9473 32.5725 10.9473C32.5871 10.9473 32.5943 10.9552 32.5943 10.9711Z" fill="#1F1F1F"/>
<path d="M32.5023 10.9781C32.4953 10.9781 32.4883 10.9781 32.4883 10.9627C32.4883 10.9473 32.4883 10.9473 32.5023 10.9473C32.5164 10.9473 32.5164 10.9473 32.5164 10.9627C32.5164 10.9781 32.5164 10.9781 32.5023 10.9781Z" fill="#1F1F1F"/>
<path d="M32.6311 11.0469C32.6457 11.0469 32.6529 11.0628 32.6529 11.0707C32.6529 11.0866 32.6384 11.0945 32.6311 11.0945C32.6166 11.0945 32.6094 11.0787 32.6094 11.0707C32.6094 11.0548 32.6239 11.0469 32.6311 11.0469Z" fill="#1F1F1F"/>
<path d="M32.5709 11.0707C32.5709 11.0866 32.5636 11.0945 32.5491 11.0945C32.5346 11.0945 32.5273 11.0866 32.5273 11.0707C32.5273 11.0548 32.5346 11.0469 32.5491 11.0469C32.5636 11.0469 32.5709 11.0548 32.5709 11.0707Z" fill="#1F1F1F"/>
<path d="M32.4755 11.071C32.4682 11.071 32.4609 11.063 32.4609 11.0471C32.4609 11.0392 32.4682 11.0312 32.4827 11.0312C32.49 11.0312 32.4972 11.0392 32.4972 11.0551C32.4972 11.063 32.49 11.071 32.4755 11.071Z" fill="#1F1F1F"/>
<path d="M32.4125 11.0542C32.4055 11.0542 32.3984 11.0542 32.3984 11.0388C32.3984 11.0311 32.3984 11.0234 32.4125 11.0234C32.4195 11.0234 32.4266 11.0234 32.4266 11.0388C32.4266 11.0465 32.4266 11.0542 32.4125 11.0542Z" fill="#1F1F1F"/>
<path d="M40.2782 2.65853L39.6613 2.19508L39.9984 1.70806L39.8693 0.796875H39.1161L38.7072 1.26032L38.4777 0.89899L37.7819 0.922554L37.7532 1.6845V2.28934C37.746 2.28934 33.4492 6.85314 33.4492 6.85314L34.145 7.72506L38.7144 3.25551H39.0013L39.195 4.90508C39.195 4.90508 41.1103 4.81868 41.2824 2.49357L40.2782 2.66638V2.65853ZM38.4418 1.21319L38.327 1.31531L37.868 1.03253L38.4418 1.21319ZM36.1177 5.61204L34.4104 7.29303H34.2168L34.3961 7.15949L35.9814 5.40781L36.2683 5.47065L36.1248 5.61204H36.1177ZM38.6785 3.04343L36.9713 4.72442H36.7776V4.48876L38.3629 2.90204H38.8292L38.6857 3.04343H38.6785ZM39.7043 4.56731L39.3313 4.51233L39.3672 4.1667C39.3672 4.1667 40.8664 3.00415 40.8807 2.76065L41.0744 2.72137C41.0744 2.72137 40.2136 4.56731 39.7043 4.57517V4.56731Z" fill="#1F1F1F"/>
<path d="M34.8795 2.28934V1.6845C34.8724 1.6845 34.8365 0.922554 34.8365 0.922554L34.1407 0.89899L33.9111 1.26032L33.5023 0.796875H32.7491L32.62 1.70806L32.9571 2.19508L32.3402 2.65853L31.3359 2.48572C31.5081 4.81868 33.4234 4.89723 33.4234 4.89723L33.617 3.24766H33.904L38.4733 7.7172L39.1692 6.84529L34.8795 2.28148V2.28934ZM32.9141 4.56731C32.4119 4.56731 31.544 2.71351 31.544 2.71351L31.7376 2.75279C31.752 3.00415 33.2512 4.15885 33.2512 4.15885L33.2799 4.50447L32.9069 4.55946L32.9141 4.56731ZM34.7504 1.03253L34.2913 1.31531L34.1766 1.21319L34.7504 1.03253ZM35.8479 4.72442H35.6542L33.947 3.04343L33.8035 2.90204H34.2698L35.8551 4.48876V4.72442H35.8479ZM38.2151 7.29303L36.5079 5.61204L36.3644 5.47065L36.6513 5.40781L38.2366 7.15949L38.416 7.29303H38.2223H38.2151Z" fill="#1F1F1F"/>
<path d="M30.3685 13.3349C30.3685 13.3349 29.2925 13.4134 28.7043 14.1439C28.2022 14.7645 27.5566 16.4062 27.7718 17.6866C27.779 17.7259 27.7933 17.7966 27.822 17.8673C27.8077 17.8673 27.8005 17.8594 27.7862 17.8515C27.7431 17.7651 27.6929 17.6787 27.6427 17.5845C27.4705 17.2703 27.3199 16.7283 27.1908 16.0999C27.241 16.0135 27.3629 15.8014 27.5207 15.55C27.6642 15.3222 27.8364 15.0866 28.0085 14.7409C28.2596 14.2304 28.525 13.6805 28.6326 12.9107C28.7043 12.4315 28.7402 11.9131 28.6828 11.3633C28.6828 11.3633 28.3241 11.3083 27.9153 11.5361C27.614 11.701 27.3486 12.0152 27.1119 12.4551C26.9612 12.7379 26.8321 13.0678 26.7675 13.4841C26.7102 12.9893 26.6671 12.5965 26.6456 12.4158L26.6599 12.3451C26.7532 12.2587 26.9541 12.0702 27.2051 11.8424C27.449 11.6303 27.7288 11.4261 28.0372 11.0805C28.4963 10.5856 28.9841 10.0357 29.3643 9.17168C29.601 8.63754 29.809 8.04841 29.931 7.37287C29.931 7.37287 29.5293 7.16864 28.9769 7.27861C28.5752 7.35716 28.1592 7.62423 27.7431 8.04055C27.2266 8.55899 26.7389 9.36021 26.6169 10.7191C26.5165 10.3185 26.3587 9.99647 26.1865 9.7294C25.9068 9.30522 25.6126 9.01458 25.297 8.88104C24.8595 8.69252 24.5008 8.78679 24.5008 8.78679C24.5008 9.35235 24.5797 9.87864 24.6873 10.3499C24.8666 11.1197 25.1823 11.6539 25.4764 12.1409C25.6772 12.4708 25.8709 12.6908 26.0359 12.9107C26.2439 13.1856 26.4017 13.4134 26.4376 13.4606C26.5165 13.9004 26.6169 14.4503 26.6815 14.9138C26.6026 14.8038 26.5093 14.6938 26.3945 14.5917C26.1076 14.3246 25.7059 14.0497 25.1966 13.8769C24.8092 13.7512 24.3645 13.6962 23.8552 13.6805C23.8552 13.6805 23.64 13.979 23.8767 14.6153C23.9915 14.9216 24.1636 15.3144 24.4219 15.6757C24.7303 16.1234 25.0101 16.4455 25.4979 16.7911C25.9283 17.0975 26.8751 17.0975 27.0043 16.7518C27.1119 17.0503 27.2338 17.3881 27.3701 17.718C27.3271 17.718 27.284 17.7023 27.2338 17.7023C26.746 17.6552 26.0502 17.7416 25.8207 17.8673C25.5194 18.0244 25.2827 18.26 24.9742 18.5507C24.8881 18.6292 24.8595 18.7706 24.9097 18.8727C24.9742 19.0062 25.046 19.1948 25.3114 19.3597C25.5553 19.509 25.8924 19.6504 26.2654 19.7446C26.7245 19.8625 27.0975 19.8782 27.614 19.7918C28.1089 19.7132 28.6756 19.2655 28.4317 18.9434L28.1448 18.3464C28.2668 18.4171 28.4031 18.425 28.4963 18.425C28.7617 18.4328 29.0343 18.3621 29.2782 18.1893C29.5436 18.0008 30.1605 16.524 30.3829 15.2437C30.555 14.2146 30.3685 13.327 30.3685 13.327V13.3349ZM28.4174 11.6617C28.4174 11.6617 28.4963 13.9476 27.1908 15.3615C27.1908 15.3615 27.119 15.3615 27.119 15.2044C27.119 15.0787 27.2338 14.521 27.3916 14.0261C27.5064 13.6805 27.6714 13.3663 27.7144 13.2485C27.8077 12.9971 28.0157 12.2666 28.0587 12.1802C28.0587 12.1802 27.1621 13.4841 26.9971 14.6781C26.9971 14.6781 26.5237 12.5179 28.4102 11.6617H28.4174ZM26.868 11.2768C26.911 11.1355 27.2195 10.5228 27.571 10.0043C27.8148 9.64299 28.1089 9.33664 28.195 9.21882C28.3887 8.9596 28.8693 8.1898 28.9482 8.09554C28.9482 8.09554 27.4705 9.2738 26.8967 10.617C26.8967 10.617 27.0401 7.89916 29.5293 7.62423C29.5293 7.62423 28.8837 10.3342 26.8967 11.4889C26.8967 11.4889 26.8178 11.4575 26.868 11.2768ZM24.8021 9.06171C26.7891 9.73725 26.4878 11.9759 26.4878 11.9759C26.2224 10.782 25.2038 9.54873 25.2038 9.54873C25.254 9.63513 25.5337 10.3499 25.6485 10.6013C25.6987 10.7113 25.8924 11.0176 26.0359 11.3554C26.2224 11.8031 26.373 12.3137 26.4089 12.4865L26.33 12.6593C24.9168 11.3475 24.8021 9.06171 24.8021 9.06171ZM24.0847 14.0261C25.7059 14.0968 26.4304 14.8038 26.746 15.3536C26.7675 15.5422 26.7747 15.6993 26.7604 15.7857C26.6599 15.6993 26.5237 15.5971 26.3802 15.5186C25.9785 15.3065 25.4405 15.0709 25.0029 14.8745C24.6012 14.6938 24.2712 14.5603 24.2067 14.5053C24.0058 14.3639 24.0919 14.0183 24.0919 14.0183L24.0847 14.0261ZM26.7675 16.4612C26.6241 16.6104 26.4017 16.6497 26.2296 16.6497C25.8781 16.6497 25.505 16.3826 25.1751 16.0606C24.7447 15.6364 24.3932 15.1258 24.3717 14.9923C24.3215 14.6938 24.4864 14.8588 24.4864 14.8588L25.4333 15.4165C25.5337 15.4715 25.6413 15.5264 25.7489 15.5657L25.9426 15.6443C26.2511 15.77 26.538 15.9428 26.7962 16.1706L26.8178 16.1941C26.8178 16.2177 26.8321 16.2413 26.8393 16.2648C26.8106 16.3355 26.8106 16.4219 26.7675 16.4691V16.4612ZM26.4806 17.9301C26.7675 17.8751 27.2051 17.8437 27.4634 17.9615C27.5494 18.1815 27.6355 18.3936 27.7216 18.5899C27.3055 18.7313 26.3013 18.9984 25.4835 18.6135L25.3903 18.5428C25.3903 18.5428 25.7992 18.0558 26.4806 17.9301ZM27.5781 19.399C27.1764 19.4854 26.6097 19.4461 26.2869 19.399C25.7418 19.3283 25.3472 19.1319 25.2468 18.9984C25.046 18.7392 25.3329 18.6528 25.3329 18.6528C25.9068 19.0769 27.2912 18.9355 27.8292 18.857C27.8937 19.0062 27.944 19.1319 27.9942 19.2419C27.8579 19.3283 27.6642 19.3754 27.5781 19.3911V19.399ZM30.1533 14.1911C30.1031 15.0394 29.8592 16.6576 28.8908 17.7809C28.8908 17.7809 28.6756 17.7494 28.6111 17.4902C28.5609 17.286 28.6469 16.854 28.6756 16.7361C28.733 16.4612 28.8837 16.147 29.0056 15.8092C29.3499 14.8666 29.8879 13.9004 29.8879 13.9004L29.8592 13.7591C29.8592 13.7591 29.4145 14.3717 29.0271 15.1415C28.6254 15.9349 28.2811 16.8854 28.2094 17.2467C28.2094 17.2467 27.9583 17.6473 28.0444 16.3277C28.0874 15.6914 28.4317 15.008 28.8334 14.521C29.0989 14.1989 29.3858 13.9397 29.5723 13.7905C29.6942 13.6962 29.8305 13.6412 29.9812 13.6334L30.1462 13.5705C30.1462 13.5705 30.1749 13.8455 30.1533 14.1911Z" fill="#1F1F1F"/>
<path d="M48.7666 13.7897C48.2644 13.7976 47.8125 13.8447 47.4252 13.9625C46.9087 14.1196 46.4998 14.3867 46.2129 14.6538C46.0981 14.7559 46.0049 14.8658 45.926 14.968C45.9977 14.5045 46.1053 13.9547 46.1914 13.5148C46.2272 13.4676 46.3922 13.2398 46.6002 12.9728C46.7652 12.7607 46.9661 12.5407 47.1741 12.2108C47.4754 11.7238 47.7982 11.2054 47.9919 10.4356C48.1066 9.96428 48.1999 9.44584 48.1999 8.87242C48.1999 8.87242 47.8412 8.77031 47.4037 8.95097C47.088 9.08451 46.7868 9.36729 46.4998 9.78361C46.3205 10.0428 46.1555 10.3649 46.0551 10.7655C45.9546 9.40657 45.4812 8.59749 44.9719 8.0712C44.5559 7.63917 44.147 7.3721 43.7453 7.2857C43.1929 7.16787 42.7912 7.36425 42.7912 7.36425C42.8988 8.03978 43.0997 8.63677 43.3292 9.17091C43.6951 10.0428 44.1757 10.5927 44.6276 11.1033C44.936 11.4489 45.2086 11.661 45.4453 11.8809C45.6892 12.1087 45.8901 12.2972 45.9833 12.3915L45.9977 12.4622C45.9762 12.6429 45.9331 13.0356 45.8614 13.5305C45.804 13.122 45.6821 12.7843 45.5386 12.5015C45.3091 12.0616 45.0508 11.7395 44.7495 11.5667C44.3407 11.3311 43.982 11.3782 43.982 11.3782C43.9246 11.9281 43.9533 12.4543 44.0107 12.9256C44.1111 13.7033 44.3694 14.2532 44.6061 14.7716C44.7711 15.1172 44.936 15.3529 45.0795 15.5885C45.2373 15.8477 45.3521 16.0598 45.4023 16.1462C45.2588 16.7668 45.101 17.3088 44.9217 17.623C44.8715 17.7172 44.8213 17.8037 44.7782 17.8822C44.7639 17.8822 44.7495 17.8901 44.7424 17.8979C44.7639 17.8272 44.7854 17.7644 44.7926 17.7172C45.0293 16.4447 44.4124 14.7873 43.9174 14.1589C43.3364 13.4127 42.2676 13.3184 42.2676 13.3184C42.2676 13.3184 42.0667 14.206 42.2246 15.235C42.4254 16.5154 43.0136 18.0157 43.279 18.2043C43.5157 18.3771 43.7883 18.4556 44.0537 18.4556C44.147 18.4556 44.2833 18.4556 44.4052 18.3849L44.1111 18.9741C43.8601 19.2883 44.4196 19.7517 44.9145 19.8381C45.4382 19.9324 45.804 19.9245 46.2631 19.8145C46.6361 19.7281 46.9733 19.5946 47.2243 19.4454C47.4969 19.2883 47.5686 19.0997 47.6332 18.9662C47.6834 18.8562 47.6619 18.7227 47.5758 18.6363C47.2674 18.3378 47.0378 18.1021 46.7437 17.9293C46.5142 17.8036 45.8255 17.7015 45.3306 17.7408C45.2804 17.7408 45.2373 17.7487 45.1943 17.7565C45.3306 17.4266 45.4669 17.0967 45.5745 16.7982C45.6964 17.1517 46.6433 17.1674 47.0809 16.8689C47.5686 16.5311 47.8556 16.2169 48.1712 15.7692C48.4294 15.4078 48.6088 15.023 48.7307 14.7166C48.9746 14.0882 48.7666 13.7818 48.7666 13.7818V13.7897ZM44.2474 11.6767C46.1268 12.5643 45.6175 14.7166 45.6175 14.7166C45.474 13.5148 44.5989 12.1951 44.5989 12.1951C44.6419 12.2894 44.8428 13.0199 44.9289 13.2713C44.9719 13.3891 45.1297 13.7033 45.2373 14.0568C45.388 14.5516 45.4884 15.1172 45.4884 15.2429C45.4884 15.3921 45.4167 15.4 45.4167 15.4C44.1326 13.9547 44.2474 11.6767 44.2474 11.6767ZM44.3765 17.2695C44.312 16.9082 43.982 15.9499 43.5946 15.1486C43.2216 14.3788 42.7841 13.7504 42.7841 13.7504L42.7554 13.8918C42.7554 13.8918 43.279 14.8659 43.6018 15.8163C43.7166 16.1541 43.8601 16.4761 43.9174 16.7511C43.939 16.8689 44.025 17.3009 43.9677 17.5052C43.8959 17.7644 43.6807 17.7958 43.6807 17.7958C42.7338 16.649 42.5115 15.0229 42.4756 14.1825C42.4613 13.8368 42.4971 13.5619 42.4971 13.5619L42.6621 13.6326C42.8128 13.6405 42.949 13.7033 43.0638 13.7976C43.2432 13.9468 43.5301 14.2139 43.7883 14.5359C44.1829 15.0387 44.52 15.7221 44.5487 16.3583C44.6132 17.678 44.3694 17.2695 44.3694 17.2695H44.3765ZM47.2961 19.084C47.1885 19.2176 46.7939 19.4061 46.2488 19.4689C45.926 19.5003 45.3593 19.5318 44.9576 19.4375C44.8715 19.4139 44.6778 19.3668 44.5415 19.2804C44.5917 19.1704 44.6491 19.0448 44.7137 18.8955C45.2517 18.9819 46.6361 19.1547 47.21 18.7384C47.21 18.7384 47.4897 18.8327 47.2889 19.084H47.2961ZM46.0909 17.9765C46.7652 18.1179 47.1741 18.6049 47.1741 18.6049L47.0809 18.6756C46.2631 19.0448 45.2588 18.762 44.85 18.6127C44.936 18.4163 45.0293 18.2043 45.1154 17.9922C45.3736 17.8743 45.8112 17.9136 46.0981 17.9765H46.0909ZM47.9058 9.14735C47.9058 9.14735 47.7551 11.4332 46.3277 12.7136L46.2488 12.5407C46.2846 12.3679 46.4424 11.8652 46.6361 11.4175C46.7868 11.0797 46.9876 10.7812 47.0378 10.6712C47.1598 10.4277 47.4467 9.71291 47.4969 9.62651C47.4969 9.62651 46.4568 10.8362 46.1699 12.0223C46.1699 12.0223 45.9044 9.77576 47.9058 9.1395V9.14735ZM45.7753 11.5353C43.8098 10.3413 43.2073 7.62346 43.2073 7.62346C45.6964 7.93767 45.7968 10.6634 45.7968 10.6634C45.2373 9.31231 43.7883 8.11048 43.7883 8.11048C43.8672 8.20474 44.3407 8.98239 44.5272 9.24947C44.6133 9.36729 44.9002 9.6815 45.1441 10.0507C45.4812 10.577 45.7825 11.1975 45.8255 11.3389C45.8757 11.5117 45.7897 11.551 45.7897 11.551L45.7753 11.5353ZM48.2429 15.0858C48.2214 15.2193 47.8627 15.7221 47.4252 16.1384C47.088 16.4526 46.715 16.7118 46.3564 16.7039C46.1842 16.7039 45.9618 16.6647 45.8184 16.5076C45.7753 16.4604 45.7753 16.3819 45.7466 16.3033C45.7538 16.2798 45.761 16.2562 45.7681 16.2326L45.7897 16.2091C46.0479 15.9891 46.342 15.8242 46.6505 15.6985L46.8513 15.6199C46.9589 15.5807 47.0665 15.5257 47.1669 15.4707L48.121 14.9287C48.121 14.9287 48.286 14.7637 48.2358 15.0622L48.2429 15.0858ZM48.4223 14.6066C48.3577 14.6538 48.0277 14.7873 47.6189 14.9601C47.1741 15.1486 46.6361 15.3764 46.2272 15.5728C46.0766 15.6514 45.9403 15.7456 45.8399 15.832C45.8327 15.7378 45.8399 15.5885 45.8614 15.4C46.1842 14.858 46.923 14.1589 48.537 14.1275C48.537 14.1275 48.6231 14.4731 48.4151 14.6066H48.4223Z" fill="#1F1F1F"/>
<path d="M20.4682 69.1507C20.2386 69.567 19.9373 69.9047 19.5715 70.1561C19.1985 70.4075 18.8111 70.5332 18.4023 70.5332C17.6562 70.5332 17.068 70.1561 16.6376 69.4099C16.2072 68.6636 15.992 67.4147 15.992 65.6709C15.992 63.927 16.1929 62.7173 16.5874 61.9554C16.9819 61.1935 17.4841 60.8164 18.0795 60.8164C18.6748 60.8164 18.8327 60.9342 19.1411 61.1699C19.4496 61.4056 19.7078 61.7119 19.9158 62.0732C20.1454 62.4424 20.3103 62.8587 20.4251 63.3143H20.9488V60.5965H20.626C20.6116 60.6043 20.5184 60.675 20.3677 60.7929C20.2099 60.9342 20.0593 61.1306 19.9086 61.382C19.715 61.1935 19.5285 61.0364 19.3348 60.9264C18.8327 60.6122 18.3305 60.4551 17.8356 60.4551C17.0178 60.4551 16.3005 60.6593 15.6764 61.0599C15.0523 61.4684 14.5717 62.0575 14.2274 62.843C13.8831 63.6285 13.7109 64.5711 13.7109 65.663C13.7109 67.3283 14.1055 68.6165 14.8874 69.5198C15.6692 70.4232 16.7596 70.8788 18.1512 70.8788C19.5428 70.8788 19.2128 70.7374 19.6719 70.4546C20.131 70.1718 20.4897 69.7948 20.7551 69.3235C21.0205 68.8522 21.1496 68.3416 21.1496 67.7996H20.8268C20.8268 68.263 20.712 68.7108 20.4825 69.1271L20.4682 69.1507Z" fill="#1F1F1F"/>
<path d="M29.4309 67.3997C29.2157 66.8577 28.7996 66.4807 28.1899 66.2686C27.946 66.1822 27.6663 66.1272 27.3435 66.1115V66.0408C27.8814 66.033 28.3908 65.923 28.8714 65.7266C29.3233 65.5459 29.6963 65.271 29.9832 64.9018C30.2701 64.5326 30.4136 64.0535 30.4136 63.4643C30.4136 62.5846 30.0908 61.9012 29.438 61.4142C28.7853 60.9271 27.7236 60.6758 26.2388 60.6758H22.7812V60.8879L23.5631 61.1V70.2433L22.7812 70.4554V70.6674H26.6333V70.4554L25.7223 70.2433V66.4178H26.6405L27.8743 69.4578C28.2042 70.2668 28.7279 70.6753 29.438 70.6753H31.2672V70.4632L30.6145 70.2511L29.438 67.3919L29.4309 67.3997ZM25.7079 65.7187V61.0371H26.2316C26.8413 61.0371 27.3219 61.2492 27.6663 61.6655C28.0106 62.0818 28.1899 62.6867 28.1899 63.4643C28.1899 64.242 28.0177 64.8468 27.6663 65.2632C27.5013 65.4595 27.3076 65.6088 27.0852 65.7187H25.7079Z" fill="#1F1F1F"/>
<path d="M38.8471 68.6565C38.6248 69.0728 38.4885 69.5127 38.4454 69.9761H35.3609V66.0407H36.8888C36.9534 66.3471 37.061 66.6456 37.2045 66.9126C37.2762 67.054 37.3551 67.1954 37.4555 67.3289H37.8501V64.1162H37.4555C37.3623 64.2498 37.2762 64.3912 37.2045 64.5325C37.0682 64.7839 36.9749 65.051 36.9104 65.3338H35.3681V61.3984H38.1944C38.2374 61.8618 38.3737 62.3017 38.5961 62.718C38.718 62.938 38.8615 63.1186 39.0265 63.26H39.421V60.6914H32.4414V60.9035L33.2233 61.1156V70.2589L32.4414 70.471V70.6831H39.6792V68.1145H39.2847C39.1197 68.2558 38.9763 68.4365 38.8543 68.6565H38.8471Z" fill="#1F1F1F"/>
<path d="M44.6878 60.6836H41.3594V60.8957L42.1413 61.1078V70.2511L41.3594 70.4632V70.6753H44.6878C46.2444 70.6753 47.4351 70.2354 48.2672 69.3635C49.0993 68.4837 49.5154 67.2583 49.5154 65.6794C49.5154 64.1006 49.0993 62.8673 48.2672 61.9954C47.4351 61.1156 46.2444 60.6836 44.6878 60.6836ZM46.5672 69.2456C46.1224 69.9683 45.4983 70.3218 44.6878 70.3218H44.2932V61.0371H44.6878C45.4983 61.0371 46.1224 61.3984 46.5672 62.1132C47.0119 62.8359 47.2343 64.022 47.2343 65.6794C47.2343 67.3368 47.0119 68.523 46.5672 69.2456Z" fill="#1F1F1F"/>
<path d="M58.2602 70.2511L55.3192 64.7761L57.4927 61.2335L58.3248 60.8879V60.6758H55.8428V60.8879L56.6893 61.2571L54.939 64.1084L53.7482 61.8855C53.5187 61.477 53.282 61.1707 53.0237 60.9743C52.7655 60.7779 52.4212 60.6758 51.9836 60.6758H50.0898V60.8879L50.7426 61.1L53.5617 66.3471L51.2734 70.0862L50.3553 70.4632V70.6753H52.8372V70.4632L52.041 70.1097L53.9347 67.0148L55.2546 69.4578C55.4841 69.8662 55.7209 70.1726 55.9863 70.369C56.2517 70.5653 56.5888 70.6674 57.0192 70.6674H58.913V70.4554L58.2602 70.2433V70.2511Z" fill="#1F1F1F"/>
</svg>
