<svg width="100" height="72" viewBox="0 0 100 72" fill="none" xmlns="http://www.w3.org/2000/svg">
<path d="M10.4907 72C9.42767 72 8.54183 71.9213 7.9119 71.813C3.65987 71.0945 0.825185 69.1653 0.342894 66.6653C-1.05476 59.4112 2.26221 58.4762 2.40985 58.4368C2.50828 58.4073 2.61655 58.4565 2.66576 58.5549C2.71497 58.6533 2.69529 58.7616 2.60671 58.8305C2.59686 58.8305 1.51417 59.7656 1.20905 60.74C0.884239 61.8128 1.38622 62.9644 1.84882 63.4467C2.8823 64.5097 5.42171 65.7597 8.29577 66.0649C9.63437 66.2027 13.2958 66.0156 18.5518 64.4113C19.979 63.9782 21.5834 63.2695 23.1385 62.5806C24.0047 62.1967 24.8216 61.8424 25.5992 61.5274C25.6779 61.4979 33.0993 58.5549 37.0757 58.112C42.9124 57.4624 46.82 59.5195 46.9873 59.5982C47.066 59.6376 47.1054 59.7164 47.1054 59.8049C47.1054 59.8935 47.0463 59.9723 46.9676 60.0018L41.6034 62.2459C41.564 62.2656 41.5246 62.2656 41.4852 62.2656C41.4557 62.2656 38.9261 61.9408 35.993 62.9841C32.9615 64.0668 29.1032 65.8483 25.7074 67.433C23.3255 68.5354 21.0814 69.5787 19.2999 70.2972C16.0518 71.6161 12.8332 72 10.4808 72H10.4907ZM0.657857 61.4585C0.273993 63.0924 0.490534 65.0609 0.785814 66.5767C1.22873 68.8897 3.92563 70.6712 7.99065 71.3602C8.20718 71.3996 13.3352 72.2264 19.1424 69.874C20.9141 69.1555 23.1483 68.1121 25.5303 67.0098C28.9358 65.4251 32.804 63.6337 35.8552 62.551C38.6309 61.5668 41.0817 61.7538 41.4951 61.803L46.3377 59.7754C45.8947 59.5785 45.1369 59.2833 44.1231 59.0274C42.5778 58.6238 40.1171 58.2203 37.1446 58.5451C33.2272 58.9781 25.8649 61.9014 25.7862 61.9309C25.0086 62.2459 24.2015 62.6002 23.3354 62.9841C21.7704 63.6731 20.1463 64.3916 18.6995 64.8345C13.3746 66.4586 9.63437 66.6456 8.26624 66.5078C6.01227 66.2716 2.97088 65.2479 1.5437 63.7617C1.06141 63.2695 0.677543 62.3739 0.667701 61.4683L0.657857 61.4585Z" fill="white"/>
<path d="M45.9199 59.7647C45.9199 59.7647 40.162 57.8749 33.528 59.7647C30.9099 60.5128 22.6223 63.8986 18.7837 65.4636C15.0632 66.9892 11.323 67.255 9.92529 67.3534C6.07681 67.6192 1.25391 64.5089 1.25391 64.5089C1.25391 64.5089 1.27359 65.5227 1.58856 66.625C1.6673 66.8908 2.10037 67.9144 2.91732 68.692C3.64567 69.381 4.74805 69.8338 5.27956 70.0109C7.80912 70.8574 12.947 71.8121 19.827 68.8692C19.827 68.8692 23.8133 67.0483 27.396 65.4144C30.1717 64.1447 32.7111 62.9833 32.9867 62.8553C33.6067 62.56 38.4198 60.5817 41.7663 61.1525L42.6423 61.3789L43.6561 60.9458L45.9298 59.7647H45.9199Z" fill="white"/>
<path d="M1.88648 60.3246C1.90617 60.1868 1.96522 60.0589 2.03412 59.9408C2.37861 59.4388 3.49084 58.1986 5.9515 58.6514C6.0893 58.6809 6.22709 58.7301 6.35505 58.7892C6.81765 59.0254 7.92003 59.675 8.21531 60.3739L6.5519 63.12C6.5519 63.12 5.42 62.7558 4.544 63.307C4.544 63.307 1.12859 64.8523 1.87664 60.3246H1.88648ZM4.04202 61.5648C4.16013 61.6534 3.90423 61.8601 3.90423 61.8601C3.74674 63.366 5.92198 61.4664 5.92198 61.4664C5.92198 61.4664 5.63654 61.2695 5.41016 61.0628C5.18377 60.8561 5.75465 60.7774 5.75465 60.7774L5.72512 60.4624C5.69559 60.1475 6.49285 60.4624 6.49285 60.4624C6.13851 59.4979 4.9377 59.4782 4.31762 59.5569C3.68769 59.6258 3.17587 60.1868 3.15618 60.551C3.12665 60.925 3.93375 61.4762 4.05187 61.5648H4.04202Z" fill="white"/>
<path d="M8.73364 58.19C6.89306 56.3002 6.79463 53.5246 7.02101 51.9793C7.5033 48.6427 9.72774 47.3926 9.38325 50.0797C9.03876 52.7667 10.3675 54.1841 10.3675 54.1841C12.5231 56.3396 14.6491 56.9597 16.6767 56.7432C19.2062 56.4774 21.598 54.499 23.7634 52.9734C25.4071 51.8218 26.9229 51.1132 28.2713 50.5915C32.8383 48.8395 37.297 50.1486 37.297 50.1486C37.297 50.1486 43.1042 54.3514 43.0648 54.8632C43.0452 55.0896 40.5156 53.8593 39.7676 54.0758C38.7833 54.3514 38.173 57.2451 38.173 57.2451C36.8541 56.3199 35.7911 58.5247 35.7911 58.5247L33.1927 59.1448L30.3186 60.0405L30.4466 59.4597C31.0076 58.1802 31.8836 57.0581 32.986 56.192L34.7183 54.8534C34.7872 54.8042 34.7478 54.6959 34.6691 54.6959C33.4781 54.6368 31.2832 55.6309 29.6099 56.9695C27.3067 58.82 25.6729 61.2117 25.6729 61.2117L25.5744 61.8023L20.3086 64.0267L19.5704 63.9578C16.7554 63.8988 15.7515 62.3141 15.7515 62.3141C23.6453 63.446 27.5528 55.1191 27.5528 55.1191C27.5528 55.1191 23.1335 59.1645 18.7141 60.4834C14.4522 61.4381 9.75727 59.2432 8.73364 58.19ZM8.8419 49.873C8.52694 50.2372 8.29071 50.4439 8.12339 50.7391C7.75921 51.3691 7.71984 51.9695 7.81826 52.3238C7.90685 52.6289 8.1037 52.8356 8.3104 52.9734C8.57615 53.1604 8.8419 53.2293 8.8419 53.2293V49.873ZM24.0587 60.2964C20.8106 62.8259 18.6944 62.9145 18.6944 62.9145C19.1767 63.2885 19.8263 63.2295 20.5153 62.9539C21.2338 62.6586 22.7791 61.7728 23.3992 61.2609C24.2358 60.5818 24.0587 60.2964 24.0587 60.2964ZM31.9722 58.19C31.9131 58.4263 32.2379 58.3475 32.3462 58.2589C34.6494 56.4971 35.1218 55.7392 35.1612 55.4243C35.1907 55.2569 34.8954 55.3357 34.8069 55.3947C32.6021 56.8711 32.0608 57.7471 31.9623 58.1802L31.9722 58.19ZM25.7614 54.4597C25.7614 54.4597 28.0745 54.1349 28.3304 53.9282C28.5863 53.7215 30.0627 53.8593 30.043 53.9479C30.0233 54.0364 28.9505 54.9912 29.2556 55.1782C29.5607 55.3652 31.3816 53.9282 32.9367 53.6526C34.4919 53.377 36.4998 53.1211 37.612 53.8593C37.612 53.8593 37.0313 54.6467 36.7754 54.5778C36.5195 54.5089 36.8246 55.1782 37.4742 54.5975C38.1238 54.0168 38.1927 53.5049 38.1927 53.5049C38.1927 53.5049 38.3502 52.7372 35.4171 52.6486C32.4741 52.56 32.1985 52.373 32.1985 52.373H31.1552L31.0666 52.1663C31.0666 52.1663 32.73 51.5659 36.1651 51.8415L33.8521 51.123L36.0962 51.5364L34.7084 50.7982L36.3718 51.4281L34.7478 50.5718C34.7478 50.5718 30.6434 49.7352 27.1 51.8021C25.289 52.6092 25.2004 53.0029 25.2004 53.0029L25.7516 54.4597H25.7614ZM10.5152 55.3357L9.98365 57.3534C15.0329 60.0897 18.6944 58.0719 18.6944 58.0719L18.1137 57.5404C13.3695 58.19 10.5152 55.3357 10.5152 55.3357ZM19.8558 57.2845L19.4129 56.94L18.5566 57.2845L18.9503 57.7668L19.8558 57.2845Z" fill="white"/>
<path d="M49.273 62.5703C48.4954 62.9443 47.7277 63.84 47.0781 64.8046C46.6056 65.5133 46.4383 66.4483 46.1332 67.0389C45.7789 67.7279 45.3359 68.0133 45.3359 68.0133C45.3359 68.0133 46.6844 68.2003 47.3045 66.842C48.0919 65.09 49.273 62.5802 49.273 62.5802V62.5703Z" fill="white"/>
<path d="M43.6016 61.5075C43.6016 61.5075 44.3299 61.4386 44.3988 61.8225C44.4579 62.1965 44.3988 62.7871 44.3988 62.7871C44.3988 62.7871 47.2729 60.4544 48.8969 60.7201C48.8969 60.7201 48.1193 59.9425 46.5445 60.2378C44.7236 60.5823 43.6016 61.5075 43.6016 61.5075Z" fill="white"/>
<path d="M41.5405 62.1471L45.2709 59.9817C45.8319 59.6175 46.7867 59.4798 47.4264 59.6569L49.8379 60.1392V62.8361C49.8379 62.8361 49.3556 63.8597 48.765 65.2968C48.6765 65.4936 48.5288 65.7889 48.4501 65.9956C48.0957 66.9208 47.6725 67.7771 46.8851 68.2299C46.2552 68.6039 45.5268 68.7417 44.6213 68.5055C44.3949 68.4464 44.3949 68.1511 44.4539 68.0724L44.8575 67.5999C45.1528 67.2161 45.3201 66.8913 45.5563 66.468C45.9008 65.8184 46.2552 64.8145 46.5603 64.3814C47.4953 63.092 48.8339 62.4129 48.8339 62.4129C46.5012 62.8853 44.7197 67.1177 44.7197 67.1177C44.7197 67.1177 44.5425 67.6393 43.6862 67.4523C42.8299 67.2751 42.574 66.1531 42.574 66.1531C43.637 66.468 44.2866 65.3263 44.2866 65.3263L42.8594 65.3755L44.7 63.9582C44.7 63.9582 43.6075 64.2042 42.2393 63.9582C40.8712 63.7121 41.5602 62.1471 41.5602 62.1471H41.5405ZM46.0681 62.9444L47.456 62.3341L46.6882 62.8951C46.6882 62.8951 46.5603 63.0231 46.6981 62.9936C46.9638 62.9247 47.5839 62.5211 48.0662 62.403C48.9717 62.1865 49.7985 62.2357 49.7985 62.2357L48.9914 62.5802C48.3516 62.8558 47.6823 63.5448 47.0721 64.3519C46.8063 64.7062 46.5111 65.0901 46.3044 65.5035C46.1567 65.8086 46.0977 66.1531 45.9402 66.409C45.3595 67.4031 44.8477 68.033 44.8477 68.033C44.8477 68.033 44.6705 68.1708 44.8477 68.2299C45.0248 68.2889 46.393 68.6531 47.4363 67.3539C47.6528 67.0783 47.8398 66.2909 48.0465 65.8873C48.8339 64.3912 49.5229 62.7967 49.5229 62.7967L49.7887 62.2455V61.8814L49.6213 61.6255C49.3753 61.6255 49.1194 61.6451 48.8635 61.6845C48.1843 61.7928 47.5052 62.029 46.9835 62.2751C46.3733 62.5605 46.0485 62.7475 45.9992 62.8656C45.9402 62.9936 46.0583 62.9542 46.0583 62.9542L46.0681 62.9444ZM43.637 65.1097C43.6764 65.1196 43.7354 65.2279 43.8535 65.2279C44.0012 65.2279 44.1882 65.1294 44.3358 65.1097C44.4835 65.0901 44.6016 65.1491 44.6016 65.1491C43.9224 66.7141 42.8791 66.409 42.8791 66.409C44.3949 67.8952 45.3299 64.9621 45.3299 64.6078C45.3299 64.4404 45.202 64.4798 45.074 64.5684C45.074 64.529 45.0347 64.4995 44.9067 64.4995C44.4736 64.4798 43.637 65.1294 43.637 65.1294V65.1097ZM42.9283 63.279C43.7945 63.5349 44.5917 62.8361 44.5917 62.8361C44.5917 62.8361 48.2631 60.7199 49.6804 61.4975C49.6804 61.4975 49.3457 60.405 47.7414 59.9227C46.137 59.4404 42.9972 61.4483 42.9972 61.4483C42.9972 61.4483 43.7157 62.2554 43.7157 62.3735C43.7157 62.4916 43.3417 63.1019 42.8791 62.6097C42.4165 62.1176 42.5346 61.7436 42.5346 61.7436L42.0031 62.0881C42.0031 62.0881 42.1016 63.0329 42.9283 63.2692V63.279Z" fill="white"/>
<path d="M89.1519 71.9996C86.8093 71.9996 83.5908 71.6157 80.3329 70.2968C78.5513 69.5783 76.3072 68.535 73.9253 67.4326C70.5296 65.8578 66.6713 64.0664 63.6397 62.9837C60.7066 61.9404 58.177 62.2553 58.1475 62.2652C58.1081 62.2652 58.0688 62.2652 58.0294 62.2455L52.6651 60.0014C52.5864 59.9718 52.5273 59.8931 52.5273 59.8045C52.5273 59.7159 52.5667 59.6372 52.6455 59.5978C52.8128 59.5092 56.7203 57.4521 62.557 58.1116C66.5335 58.5545 73.9548 61.4975 74.0336 61.527C74.8111 61.8419 75.6281 62.1963 76.4942 62.5801C78.0494 63.2691 79.6537 63.9778 81.0809 64.4109C86.3369 66.0152 89.9984 66.2022 91.337 66.0644C94.211 65.7593 96.7603 64.5192 97.7839 63.4463C98.2465 62.964 98.7485 61.8124 98.4237 60.7396C98.1284 59.7651 97.0359 58.8399 97.026 58.8301C96.9473 58.7612 96.9276 58.6431 96.967 58.5545C97.0162 58.4659 97.1245 58.4167 97.2229 58.4364C97.3607 58.4758 100.688 59.4108 99.2898 66.6648C98.8076 69.1649 95.9729 71.0941 91.7208 71.8126C91.0909 71.9208 90.2051 71.9996 89.1421 71.9996H89.1519ZM59.1416 61.7632C60.1948 61.7632 61.9172 61.8912 63.7874 62.5605C66.8386 63.6432 70.7067 65.4444 74.1123 67.0192C76.4844 68.1216 78.7285 69.1649 80.5002 69.8834C86.3074 72.2358 91.4354 71.409 91.6519 71.3696C95.717 70.6807 98.404 68.8893 98.8568 66.5861C99.152 65.0605 99.3587 63.092 98.9847 61.4679C98.9847 62.3833 98.591 63.2691 98.1087 63.7613C96.6717 65.2475 93.6401 66.2711 91.3862 66.5074C90.018 66.655 86.2778 66.468 80.953 64.8341C79.4962 64.3912 77.882 63.6727 76.3171 62.9837C75.4607 62.5998 74.6438 62.2455 73.8662 61.9305C73.7973 61.901 66.4252 58.9777 62.5078 58.5447C59.5353 58.21 57.0747 58.6234 55.5294 59.0269C54.5156 59.2927 53.7577 59.588 53.3148 59.775L58.1573 61.8026C58.2951 61.7927 58.6396 61.7632 59.1514 61.7632H59.1416Z" fill="white"/>
<path d="M53.7286 59.7647C53.7286 59.7647 59.4866 57.8749 66.1205 59.7647C68.7387 60.5128 77.0262 63.8986 80.8648 65.4636C84.5853 66.9892 88.3256 67.255 89.7232 67.3534C93.5717 67.6192 98.3946 64.5089 98.3946 64.5089C98.3946 64.5089 98.3749 65.5227 98.06 66.625C97.9812 66.8908 97.5481 67.9144 96.7312 68.692C96.0028 69.381 94.9005 69.8338 94.369 70.0109C91.8394 70.8574 86.7015 71.8121 79.8215 68.8692C79.8215 68.8692 75.8352 67.0483 72.2525 65.4144C69.4769 64.1447 66.9374 62.9833 66.6619 62.8553C66.0418 62.56 61.2287 60.5817 57.8822 61.1525L57.0062 61.3789L55.9924 60.9458L53.7188 59.7647H53.7286Z" fill="white"/>
<path d="M97.7507 60.3246C97.731 60.1868 97.672 60.0589 97.6031 59.9408C97.2586 59.4388 96.1464 58.1986 93.6857 58.6514C93.5479 58.6809 93.4101 58.7301 93.2821 58.7892C92.8195 59.0254 91.7172 59.675 91.4219 60.3739L93.0853 63.12C93.0853 63.12 94.2172 62.7558 95.0932 63.307C95.0932 63.307 98.5086 64.8523 97.7606 60.3246H97.7507ZM95.5952 61.5648C95.4771 61.6534 95.733 61.8601 95.733 61.8601C95.8904 63.366 93.7152 61.4664 93.7152 61.4664C93.7152 61.4664 94.0007 61.2695 94.227 61.0628C94.4534 60.8561 93.8825 60.7774 93.8825 60.7774L93.9121 60.4624C93.9416 60.1475 93.1443 60.4624 93.1443 60.4624C93.4987 59.4979 94.6995 59.4782 95.3196 59.5569C95.9495 59.6258 96.4613 60.1868 96.481 60.551C96.5105 60.925 95.7034 61.4762 95.5853 61.5648H95.5952Z" fill="white"/>
<path d="M90.9095 58.19C92.7501 56.3002 92.8485 53.5246 92.6222 51.9793C92.1399 48.6427 89.9154 47.3926 90.2599 50.0797C90.6044 52.7667 89.2757 54.1841 89.2757 54.1841C87.1201 56.3396 84.9941 56.9597 82.9665 56.7432C80.4369 56.4774 78.0452 54.499 75.8798 52.9734C74.2361 51.8218 72.7203 51.1132 71.3719 50.5915C66.8049 48.8395 62.3461 50.1486 62.3461 50.1486C62.3461 50.1486 56.539 54.3514 56.5783 54.8632C56.598 55.0896 59.1276 53.8593 59.8756 54.0758C60.8599 54.3514 61.4701 57.2451 61.4701 57.2451C62.7891 56.3199 63.8521 58.5247 63.8521 58.5247L66.4505 59.1448L69.3246 60.0405L69.1966 59.4597C68.6356 58.1802 67.7596 57.0581 66.6572 56.192L64.9249 54.8534C64.856 54.8042 64.8954 54.6959 64.9741 54.6959C66.1651 54.6368 68.36 55.6309 70.0333 56.9695C72.3364 58.82 73.9703 61.2117 73.9703 61.2117L74.0687 61.8023L79.3346 64.0267L80.0728 63.9578C82.8878 63.8988 83.8917 62.3141 83.8917 62.3141C75.9979 63.446 72.0904 55.1191 72.0904 55.1191C72.0904 55.1191 76.5097 59.1645 80.9291 60.4834C85.191 61.4381 89.8859 59.2432 90.9095 58.19ZM90.8013 49.873C91.1162 50.2372 91.3525 50.4439 91.5198 50.7391C91.884 51.3691 91.9233 51.9695 91.8249 52.3238C91.7363 52.6289 91.5395 52.8356 91.3328 52.9734C91.067 53.1604 90.8013 53.2293 90.8013 53.2293V49.873ZM75.5845 60.2964C78.8326 62.8259 80.9488 62.9145 80.9488 62.9145C80.4665 63.2885 79.8169 63.2295 79.1279 62.9539C78.4094 62.6586 76.8641 61.7728 76.244 61.2609C75.4073 60.5818 75.5845 60.2964 75.5845 60.2964ZM67.671 58.19C67.7301 58.4263 67.4053 58.3475 67.297 58.2589C64.9938 56.4971 64.5214 55.7392 64.482 55.4243C64.4525 55.2569 64.7477 55.3357 64.8363 55.3947C67.0411 56.8711 67.5824 57.7471 67.6809 58.1802L67.671 58.19ZM73.8817 54.4597C73.8817 54.4597 71.5687 54.1349 71.3128 53.9282C71.0569 53.7215 69.5805 53.8593 69.6002 53.9479C69.6199 54.0364 70.6927 54.9912 70.3876 55.1782C70.0825 55.3652 68.2616 53.9282 66.7064 53.6526C65.1513 53.377 63.1434 53.1211 62.0312 53.8593C62.0312 53.8593 62.6119 54.6467 62.8678 54.5778C63.1237 54.5089 62.8186 55.1782 62.169 54.5975C61.5193 54.0168 61.4504 53.5049 61.4504 53.5049C61.4504 53.5049 61.293 52.7372 64.2261 52.6486C67.169 52.56 67.4446 52.373 67.4446 52.373H68.4879L68.5765 52.1663C68.5765 52.1663 66.9131 51.5659 63.478 51.8415L65.7911 51.123L63.5469 51.5364L64.9347 50.7982L63.2713 51.4281L64.8954 50.5718C64.8954 50.5718 68.9998 49.7352 72.5431 51.8021C74.3542 52.6092 74.4428 53.0029 74.4428 53.0029L73.8916 54.4597H73.8817ZM89.1182 55.3357L89.6497 57.3534C84.6004 60.0897 80.9389 58.0719 80.9389 58.0719L81.5196 57.5404C86.2638 58.19 89.1182 55.3357 89.1182 55.3357ZM79.7873 57.2845L80.2303 56.94L81.0866 57.2845L80.6929 57.7668L79.7873 57.2845Z" fill="white"/>
<path d="M50.375 62.5703C51.1526 62.9443 51.9203 63.84 52.5699 64.8046C53.0424 65.5133 53.2097 66.4483 53.5148 67.0389C53.8691 67.7279 54.3121 68.0133 54.3121 68.0133C54.3121 68.0133 52.9636 68.2003 52.3435 66.842C51.5561 65.09 50.375 62.5802 50.375 62.5802V62.5703Z" fill="white"/>
<path d="M56.0375 61.5075C56.0375 61.5075 55.3092 61.4386 55.2403 61.8225C55.1812 62.1965 55.2403 62.7871 55.2403 62.7871C55.2403 62.7871 52.3662 60.4544 50.7422 60.7201C50.7422 60.7201 51.5198 59.9425 53.0946 60.2378C54.9155 60.5823 56.0375 61.5075 56.0375 61.5075Z" fill="white"/>
<path d="M58.1021 62.1471L54.3717 59.9817C53.8106 59.6175 52.8559 59.4798 52.2161 59.6569L49.8047 60.1392V62.8361C49.8047 62.8361 50.287 63.8597 50.8775 65.2968C50.9661 65.4936 51.1138 65.7889 51.1925 65.9956C51.5468 66.9208 51.9701 67.7771 52.7575 68.2299C53.3874 68.6039 54.1158 68.7417 55.0213 68.5055C55.2477 68.4464 55.2477 68.1511 55.1886 68.0724L54.7851 67.5999C54.4898 67.2161 54.3225 66.8913 54.0862 66.468C53.7418 65.8184 53.3874 64.8145 53.0823 64.3814C52.1472 63.092 50.8086 62.4129 50.8086 62.4129C53.1414 62.8853 54.9229 67.1177 54.9229 67.1177C54.9229 67.1177 55.1 67.6393 55.9563 67.4523C56.8127 67.2751 57.0686 66.1531 57.0686 66.1531C56.0056 66.468 55.3559 65.3263 55.3559 65.3263L56.7831 65.3755L54.9426 63.9582C54.9426 63.9582 56.0351 64.2042 57.4032 63.9582C58.7714 63.7121 58.0824 62.1471 58.0824 62.1471H58.1021ZM53.5744 62.9444L52.1866 62.3341L52.9543 62.8951C52.9543 62.8951 53.0823 63.0231 52.9445 62.9936C52.6787 62.9247 52.0587 62.5211 51.5764 62.403C50.6708 62.1865 49.8441 62.2357 49.8441 62.2357L50.6512 62.5802C51.2909 62.8558 51.9602 63.5448 52.5705 64.3519C52.8362 64.7062 53.1315 65.0901 53.3382 65.5035C53.4858 65.8086 53.5449 66.1531 53.7024 66.409C54.2831 67.4031 54.7949 68.033 54.7949 68.033C54.7949 68.033 54.9721 68.1708 54.7949 68.2299C54.6178 68.2889 53.2496 68.6531 52.2063 67.3539C51.9898 67.0783 51.8027 66.2909 51.5961 65.8873C50.8086 64.3912 50.1197 62.7967 50.1197 62.7967L49.8539 62.2455V61.8814L50.0212 61.6255C50.2673 61.6255 50.5232 61.6451 50.7791 61.6845C51.4583 61.7928 52.1374 62.029 52.6591 62.2751C53.2693 62.5605 53.5941 62.7475 53.6433 62.8656C53.7024 62.9936 53.5843 62.9542 53.5843 62.9542L53.5744 62.9444ZM56.0056 65.1097C55.9662 65.1196 55.9071 65.2279 55.789 65.2279C55.6414 65.2279 55.4544 65.1294 55.3067 65.1097C55.1591 65.0901 55.041 65.1491 55.041 65.1491C55.7201 66.7141 56.7635 66.409 56.7635 66.409C55.2477 67.8952 54.3126 64.9621 54.3126 64.6078C54.3126 64.4404 54.4406 64.4798 54.5685 64.5684C54.5685 64.529 54.6079 64.4995 54.7359 64.4995C55.1689 64.4798 56.0056 65.1294 56.0056 65.1294V65.1097ZM56.7142 63.279C55.8481 63.5349 55.0508 62.8361 55.0508 62.8361C55.0508 62.8361 51.3795 60.7199 49.9622 61.4975C49.9622 61.4975 50.2968 60.405 51.9012 59.9227C53.5055 59.4404 56.6453 61.4483 56.6453 61.4483C56.6453 61.4483 55.9268 62.2554 55.9268 62.3735C55.9268 62.4916 56.3008 63.1019 56.7635 62.6097C57.2261 62.1176 57.1079 61.7436 57.1079 61.7436L57.6395 62.0881C57.6395 62.0881 57.541 63.0329 56.7142 63.2692V63.279Z" fill="white"/>
<path d="M83.4638 45.0899C83.4048 44.6273 82.8438 43.8301 82.8438 43.8301L83.4638 45.0899Z" fill="white"/>
<path d="M84.8301 47.5496L84.4659 46.3291C84.4659 46.3291 84.3478 47.3134 84.8301 47.5496Z" fill="white"/>
<path d="M83.2461 39.626C83.6103 39.9016 83.9055 40.2756 84.1418 40.6595C84.4272 41.1122 84.6438 41.5748 84.7127 42.126C84.9292 43.8386 84.6437 45.6202 84.6437 45.6202C86.0906 40.6102 83.2461 39.6358 83.2461 39.6358V39.626Z" fill="white"/>
<path d="M74.5664 29.2816C74.5863 29.2816 74.5963 29.2717 74.6062 29.2617C74.6062 29.2518 74.6062 29.2617 74.5664 29.2816Z" fill="white"/>
<path d="M77.3306 31.5569C77.2026 30.0018 78.1771 26.4092 78.1771 26.4092C76.553 28.9781 77.3306 31.5569 77.3306 31.5569Z" fill="white"/>
<path d="M79.6807 23.5639C79.789 24.1052 79.6217 24.8238 79.6217 24.8238C80.5469 23.9773 80.4189 23.2883 80.4189 23.2883C79.7201 22.6584 80.0252 22.5107 80.0252 22.5107C80.0252 22.5107 79.4642 22.7765 79.5823 23.2686C79.5528 23.5934 79.474 24.1249 79.2969 24.4793C79.2969 24.4793 79.5626 24.1741 79.661 23.5639H79.6807Z" fill="white"/>
<path d="M76.003 20.7576L76.0817 20.2852L74.8711 20.9151V21.1021L76.003 20.7576Z" fill="white"/>
<path d="M77.6676 19.4387H78.3763C78.3763 19.4387 78.583 19.3009 78.5732 19.1729C78.5633 19.045 78.1302 18.2871 78.1302 18.2871C78.1302 18.2871 77.4609 19.0942 77.4609 19.2812C77.4609 19.4682 77.6676 19.4387 77.6676 19.4387Z" fill="white"/>
<path d="M89.5144 31.555C89.416 31.4369 89.4849 31.2007 89.3766 31.1023C88.481 30.3641 87.29 30.4625 87.29 30.4625C83.097 31.368 84.977 35.246 84.977 35.246C84.977 35.246 84.6029 35.8464 84.7899 36.3582C85.0459 37.0669 85.7742 37.8642 86.286 38.6319C86.9849 39.6752 87.4475 40.6496 87.2506 40.9745C87.0734 41.2599 86.3451 41.2697 85.9711 41.2599C85.9415 41.1123 85.9022 40.9646 85.8234 40.8367C85.7053 40.6103 85.538 40.2855 85.3411 39.8819C84.6325 38.3957 81.4434 36.7323 80.4789 34.5275C79.2879 31.8109 80.223 30.5019 80.7151 29.5274C81.3942 31.2499 82.4179 30.9743 82.4179 30.9743C82.4179 30.9743 82.9297 30.9054 83.3726 30.6889C83.7466 30.5019 84.0518 30.1869 84.0813 30.0688C84.101 29.9704 83.5695 30.0491 83.0773 30.0983C82.8805 29.8522 82.6344 29.3306 83.0281 28.4251C83.0281 28.4251 82.9789 29.055 83.2151 28.9762C83.4415 28.8877 83.3726 28.5924 83.7958 28.5924C84.2191 28.5924 84.7703 28.5136 84.8589 26.5156C84.8589 26.5156 85.7348 27.8345 86.0793 27.9034C86.4238 27.9723 85.8923 26.6435 85.8923 26.6435C85.8923 26.6435 85.8431 24.488 86.099 24.4782C86.3549 24.4585 86.0498 21.732 82.5163 19.9801C82.5163 19.9801 81.847 19.793 82.5163 20.2556C83.1856 20.7183 85.2132 21.6632 85.4396 26.299C85.4396 26.299 84.9573 26.2498 84.8884 25.5215C84.7112 23.4939 84.3667 22.2832 83.7368 21.4368L84.0517 22.2832C84.2584 23.0214 84.347 23.7793 84.3273 24.547L84.2585 26.0136L84.1797 27.677C84.1797 27.677 83.9533 27.8936 83.6974 27.864C83.4907 27.8345 83.2742 27.5491 83.038 27.6475C82.6836 27.7951 82.3883 28.1593 82.3982 28.9762C82.3982 28.9762 82.3293 29.7145 82.408 30.1377C81.1777 30.0885 81.6009 28.553 81.6009 28.553L81.1186 26.4762C81.9848 26.0136 83.5596 25.1475 83.5891 24.8719C83.6384 24.488 83.1856 23.8384 83.1856 23.8384C83.1659 24.4093 83.0872 24.5471 82.9691 24.7341C82.7131 25.1475 82.3096 25.0786 82.1226 24.7833C81.9946 24.5766 81.8371 24.301 81.7387 23.9565C81.5025 23.1002 81.4434 22.0175 81.4927 22.0765C81.6108 22.2242 81.9257 23.8285 81.9257 23.8285C81.9257 23.8285 81.9454 23.0214 81.8568 22.1356C81.8076 21.5647 81.6698 20.9939 81.6206 20.4919C81.6009 20.236 81.532 19.9801 81.4434 19.7438L81.6994 19.5863L81.6206 19.4289C81.6206 19.4289 81.4631 19.4682 81.3155 19.4485C80.9513 18.6808 80.3804 18.1395 80.3804 18.1395C80.095 17.982 79.8686 17.9131 79.7013 17.8934C79.4355 17.8737 79.2977 17.9918 79.2288 18.1788C79.1796 18.3265 79.3371 18.5037 79.347 18.7005C79.3863 19.2222 79.4355 19.793 79.4355 19.793C79.2584 23.0018 77.0339 22.5391 76.9158 22.5391C76.7977 22.5391 76.8272 22.2242 76.5812 22.5391C76.3351 22.8541 75.4788 23.0313 75.4788 23.0313C75.4788 23.0313 75.4985 22.5785 75.2721 22.3029C75.0457 22.0273 74.7701 22.7754 74.6225 22.9821C74.465 23.1888 72.2307 24.3207 71.6303 24.2419C71.0299 24.1632 70.8331 23.1592 70.8331 23.1592C71.1775 23.1199 71.2071 22.8738 71.6598 22.5884C72.1126 22.3029 72.9886 21.9781 73.4906 21.5549C73.9335 21.1809 74.0811 20.7379 74.5241 20.3442C74.8981 19.9997 75.8036 19.6848 76.1481 19.3796C76.2957 19.2517 76.3646 19.1237 76.4631 19.0056C76.6796 18.7596 76.8666 18.543 77.093 18.3659C78.5989 17.1847 79.7308 17.5095 80.1737 17.4899C80.6167 17.4702 82.3194 19.3501 82.6541 19.3698C82.9887 19.3895 83.7466 20.5116 84.534 20.8954C85.3116 21.2793 86.1876 21.2498 86.1482 20.9151C86.1286 20.7281 84.8687 20.1375 84.0025 19.7635C85.1738 19.8127 86.0203 18.1198 85.4396 18.5529C84.7801 19.0548 83.8647 18.3462 83.8647 18.3462C81.0497 14.6945 75.8627 17.2241 75.7052 17.5588C75.5378 17.8934 75.7052 18.7596 75.7052 18.7596L74.6422 19.5174C74.2977 19.7635 73.9827 20.0588 73.7071 20.3934C73.5299 20.61 73.2937 21.0529 72.7819 21.3876C72.3488 21.6631 71.837 21.8502 71.3941 22.047C70.833 22.3128 70.3901 22.5588 70.3901 22.5588C69.9275 22.9033 69.8193 23.5628 70.1441 24.0451C70.587 24.7144 71.1775 24.9408 71.7779 25.0884C72.1913 25.1868 72.6933 25.4132 73.1165 25.2164C73.8252 24.8719 74.9079 24.5175 75.528 24.3797C76.719 24.114 77.28 24.2321 77.28 24.2321L75.3508 25.3443C73.9433 26.1219 72.7032 27.1652 71.6992 28.4054L70.2819 30.1574L69.6618 29.8424L68.1362 28.3266C67.6736 27.8247 67.1617 27.5195 66.4826 27.4703L65.5279 27.4014L64.5042 27.2243V28.9959H65.4491L65.8625 29.055C66.4629 29.1436 66.9944 29.5078 67.3094 30.0294L69.1893 33.2086C68.9236 33.2283 68.6578 33.3169 68.4019 33.4448C67.8113 33.8582 66.9747 34.8228 66.4531 35.62C65.9708 36.3582 65.5279 36.9882 65.5279 36.9882L64.4648 37.0275V38.878L64.8487 39.6063L67.772 36.2401C68.0673 35.8956 68.4905 35.6791 68.9531 35.6299L70.459 35.4823L70.6559 36.0138C71.089 37.2047 71.8862 38.2382 72.9295 38.9567L74.8587 40.1477C75.3607 40.4626 75.843 40.817 76.276 41.2205L76.5418 41.4666L74.7012 43.0906C73.3036 44.321 72.7721 46.2797 73.3528 48.0513L73.6185 48.8683C73.8941 49.3014 73.9532 49.6655 74.0024 49.9707C74.2288 51.2699 72.8311 51.4274 72.8311 51.4274L75.1441 52.6971L76.2859 52.2049C76.7583 51.9982 76.906 51.7325 77.2111 51.3191L76.9847 49.6951C76.8765 48.9273 76.8469 48.1498 76.8863 47.382C76.8863 47.2049 76.9749 47.0375 77.1028 46.9096C77.7524 46.2403 78.6481 45.8663 79.5832 45.8663H81.4631C81.4828 46.0336 81.6895 46.2206 81.8076 46.4076C81.9946 46.7029 82.5655 47.697 82.9297 48.0218C84.1305 49.1045 85.6266 49.5671 86.4041 50.0199C86.6207 50.1478 86.7388 50.384 86.7191 50.6301L86.4435 53.7109C86.3352 54.9018 85.8431 56.014 85.0262 56.89L87.3589 56.1223L88.8254 50.0297C88.8747 49.8525 88.8156 49.6655 88.668 49.5474L87.2408 48.4352L86.2171 47.6872C85.5085 46.8801 85.2722 45.8466 85.4494 44.7836L85.4986 44.4883C85.9317 43.6713 86.1187 42.756 86.04 41.8406C88.481 41.8111 87.5754 39.9311 87.5754 39.9311C87.5754 39.9311 86.9849 37.4016 87.9396 39.9311C88.6778 41.8701 87.0144 42.3032 86.1975 42.4016C88.0085 42.5887 88.5203 41.7422 88.5203 40.9056C88.5203 40.4528 88.2644 40 88.2939 39.7048C88.3825 38.8681 88.0971 39.252 88.0971 39.252C88.0971 39.252 87.8707 40.5906 87.8707 39.1536C87.8707 37.7165 86.916 36.7224 87.0439 35.2756C88.0577 34.2027 88.038 33.996 88.038 33.996C87.9987 32.9822 88.8648 33.2873 88.8648 33.2873C88.8648 33.2873 89.2487 34.0748 89.5538 34.0748C89.8589 34.0748 89.7703 34.4783 89.7703 34.4783C89.7703 34.4783 89.7113 35.3051 89.7703 35.4724C89.8294 35.6397 90.1936 35.3346 90.1936 35.3346L90.3215 33.2578C90.2822 32.4113 89.8491 31.9586 89.5046 31.5452L89.5144 31.555ZM84.8096 45.5021C84.7014 46.0828 84.7899 46.6832 85.0655 47.2049C85.0655 47.2049 86.1778 48.4254 85.9514 48.5828C85.725 48.7403 83.658 47.2541 83.658 47.2541C83.284 47.0277 83.0084 46.6635 82.9002 46.2304L82.162 43.3564C82.0832 43.0808 81.9454 42.8347 81.7584 42.6182L80.9119 41.6438C80.7741 41.4764 80.6068 41.3386 80.4395 41.2107L78.4021 39.754L77.5753 38.9764L76.6993 37.8937C76.3253 37.4606 76.1579 36.8799 76.2465 36.309L76.3056 35.7874L76.2268 35.7677C76.6697 35.6791 77.2702 35.6693 77.2702 35.6693C77.1324 35.6102 76.6304 35.6299 76.1776 35.6693C76.4434 35.3149 76.8272 34.9606 76.8272 34.9606C76.6894 35.0098 76.3351 35.3543 76.03 35.6889C75.9709 35.6889 75.9119 35.6988 75.8528 35.7086H75.8233C76.089 35.3445 76.4827 34.9704 76.4827 34.9704C76.3449 35.0196 76.0103 35.3543 75.7052 35.6791L75.6264 35.6594C75.8725 35.2657 76.3942 34.7637 76.3942 34.7637C76.2367 34.813 75.8036 35.2559 75.4689 35.62L75.3016 35.5807C75.4985 35.1673 76.1481 34.557 76.1481 34.557C75.9709 34.6161 75.4591 35.1574 75.1146 35.5413L74.9473 35.5019C75.1244 35.0984 75.8036 34.4488 75.8036 34.4488C75.6264 34.5078 75.0851 35.0787 74.7504 35.4527H74.7111C74.967 35.0492 75.4689 34.5669 75.4689 34.5669C75.3115 34.6161 74.9079 35.0393 74.5733 35.3937C74.652 35 75.4689 34.2322 75.4689 34.2322C75.2721 34.3011 74.6422 34.9803 74.3075 35.3543L74.2189 35.3346C74.2288 34.9606 75.1146 34.124 75.1146 34.124C74.9276 34.183 74.3567 34.8031 74.0122 35.1771C73.5693 35 74.15 34.2322 74.15 34.2322C73.904 34.311 73.5398 35.0393 73.4709 35.1771L73.3331 35.1476C73.5004 34.7342 73.8055 34.2618 73.8055 34.2618C73.6874 34.3405 73.4512 34.7342 73.2347 35.1181C73.1461 34.8917 73.5299 34.37 73.5299 34.37C73.3036 34.4291 72.9492 34.8031 72.7524 35.0295L72.5358 34.9803C72.5063 34.685 72.841 34.2421 72.841 34.2421C72.6638 34.3011 72.4374 34.6653 72.2996 34.9311L72.1224 34.8917C72.1224 34.8917 72.1224 34.8917 72.1224 34.872C72.2898 34.498 72.526 34.1436 72.526 34.1436C72.4374 34.2027 72.2799 34.4291 72.1224 34.7047C72.1126 34.6259 72.0732 34.5472 71.9748 34.5472C71.7681 34.5472 71.2563 35.2657 71.2563 35.2657L70.7838 35.187C70.2819 35.0393 69.2877 34.7145 68.5003 35.1673C67.0535 36.0039 65.7444 37.9724 65.6853 37.8642C65.5869 37.6969 65.6853 37.4311 65.6853 37.4311C65.6853 37.4311 68.3429 34.3405 68.9334 33.9763C69.5338 33.6023 75.1835 32.805 75.1835 32.805L75.4099 32.618V32.3917L75.2229 32.3424L75.1835 32.4999L75.0162 32.4606L75.2524 32.2342L75.1835 32.1456C75.1835 32.1456 74.9473 32.2539 74.9079 32.372C74.8587 32.4802 74.6619 32.3129 74.6619 32.3129L74.7996 32.1062L74.8685 31.9389H74.8193L74.1697 32.057L74.1205 31.9783L74.7111 31.6141L74.7307 31.4566H74.2091C74.2091 31.4468 74.6028 31.1515 74.6028 31.1515V31.0038L74.1402 31.0432L74.5536 30.6692L74.0319 30.6003L74.5142 30.1869C74.5142 30.1869 74.3174 30.1082 74.1796 30.0688C74.3567 29.9999 74.652 29.7341 74.652 29.7341C74.652 29.7341 74.3272 29.6554 74.1697 29.6456C74.2878 29.5767 74.4847 29.3995 74.5733 29.3404C74.465 29.3601 74.1992 29.2912 74.1992 29.2912L74.6323 29.0156L74.3666 28.9762L74.6422 28.7696L74.4355 28.7105L74.839 28.4841L74.5733 28.3758C74.5733 28.3266 74.593 28.2676 74.6225 28.1987C75.1343 27.9625 76.906 27.1455 77.0733 26.929L76.1383 27.2243C76.3351 27.1258 76.4827 27.0274 76.5418 26.9585L75.2721 27.2439C75.2721 27.2341 75.2918 27.2243 75.3016 27.2144C75.8134 26.988 76.9552 26.4664 77.0733 26.3187L75.8823 26.6632C76.2465 26.3581 76.6501 26.0727 77.0438 25.8266C77.3981 25.6101 77.7426 25.423 78.0477 25.1573C78.8351 24.4782 79.2485 23.6809 79.1599 23.6711C78.9139 23.6317 79.0123 23.2281 79.0123 23.2281C79.78 22.175 80.0753 21.3285 80.1737 20.6887C80.2426 20.1966 80.2033 19.8324 80.1737 19.5863C80.1442 19.3501 80.1344 19.232 80.2525 19.2222C80.6462 19.1926 81.4533 20.6494 81.0399 20.9545C80.6265 21.2596 80.9808 22.1454 80.9808 22.1454C81.3253 23.8285 81.0005 25.4526 80.7741 26.2794C80.6757 26.6239 80.597 26.8305 80.597 26.8305C80.597 26.8305 80.6068 26.8305 80.6363 26.8109L80.41 27.2046C79.2288 29.2715 78.7662 31.683 79.0911 34.0452L79.7505 35.2165C80.3312 36.2303 81.0497 37.1653 81.9061 37.9724L83.9238 39.7244C84.1896 39.9508 84.4258 40.2166 84.6128 40.5217C84.977 41.0926 85.3805 41.88 85.41 42.3229L84.8096 45.5808V45.5021ZM87.2113 38.937C87.3195 39.2421 87.162 39.124 86.9356 38.7402C86.7388 38.3957 86.5026 37.8346 86.1089 37.4508C85.5183 36.8898 85.0754 36.0925 85.4986 36.0236C85.4986 36.0236 86.8471 37.9232 87.2113 38.937ZM88.5794 31.7519L86.7191 32.3523C86.2368 32.5098 85.8923 32.9232 85.8136 33.4054C85.8037 33.4842 86.0301 33.7598 86.0104 33.9271C85.9908 34.0551 85.7348 34.0748 85.7348 34.0748L86.0006 34.4685L85.8333 34.7441L86.0498 34.9409L85.912 35.0689L86.1876 35.3346L86.0104 35.6693L86.1975 35.876L86.3549 36.8898C86.3549 36.8898 85.4002 35.6988 85.2329 34.2618C85.1738 33.7795 84.9573 33.2184 85.2329 32.7361C86.3451 30.807 87.0833 30.9448 87.4573 31.4074C87.8313 31.87 87.9494 31.6239 88.3333 31.555C88.7172 31.4861 88.6089 31.7617 88.6089 31.7617L88.5794 31.7519Z" fill="white"/>
<path d="M25.4215 49.0254C21.888 45.6296 26.9078 45.3836 26.1401 43.169C25.3723 40.9544 21.4353 40.5311 19.7423 40.915C18.0395 41.2989 18.3939 44.3796 18.3939 44.3796C21.7896 45.3934 20.9628 43.4741 22.0061 44.104C23.0495 44.7241 21.8585 45.8363 21.1006 47.4997C20.3427 49.1632 25.5101 52.0372 25.5101 52.0372L29.2208 50.3935C27.8921 50.423 26.5436 50.0884 25.4314 49.0254H25.4215ZM21.9963 47.8049C21.829 47.4899 23.4825 45.482 23.4136 44.0647C23.3447 42.6473 20.2935 43.0607 20.2935 43.0607C19.2797 42.0764 20.2542 41.5548 20.766 41.3776C20.9235 41.3185 21.0908 41.3087 21.2581 41.3382C21.8782 41.4465 23.581 41.8008 24.831 42.6572C26.396 43.7202 24.89 44.2812 24.8113 44.2812C24.7326 44.2812 22.5672 46.3088 23.266 47.8049C23.9648 49.3108 27.3113 50.4329 27.3113 50.4329L26.4944 51.1711C25.4708 50.9742 22.1538 48.1198 21.9865 47.8049H21.9963Z" fill="white"/>
<path d="M34.4176 25.6991L34.6735 24.1636C34.6735 24.1636 34.5554 23.9766 34.1321 23.8192C33.7089 23.6518 33.9254 24.144 33.138 23.8881C32.3506 23.6321 33.8368 22.9038 33.8368 22.9038L33.4333 22.7758C32.7246 22.6577 32.8919 23.2188 32.1242 22.9038C31.3565 22.5888 32.449 21.8605 32.449 21.8605C31.7797 21.762 30.4608 22.825 30.3919 23.1794C30.323 23.5436 31.7404 24.1636 31.2974 24.6558C30.8545 25.1479 29.3683 28.8586 29.0631 28.9275C28.758 28.9964 28.4627 28.8094 28.4627 28.8094L28.2265 27.9137C28.1084 27.707 27.882 27.0968 27.6064 26.5456C27.2127 25.768 26.4548 25.0003 26.13 24.7148C25.3918 23.8979 24.5355 23.0219 24.5946 22.1262C24.6536 21.6735 25.0769 20.8467 25.8938 22.9924C25.8938 22.9924 26.1005 22.6872 26.6419 22.0967C27.1635 21.5258 26.9568 21.329 26.8682 20.886C26.819 20.6695 26.8485 20.3447 26.8485 20.3447C26.6517 20.3742 26.4155 20.5908 26.1891 20.827C26.1891 20.827 25.7757 21.014 25.4115 20.2266C25.1064 19.5671 25.1851 19.0356 25.5001 18.7403C25.7363 18.7994 26.0021 18.9372 26.1497 19.0651C26.3564 19.2423 26.4942 19.4687 26.6123 19.7148C26.9076 20.3348 27.1438 21.0534 27.9017 21.2305C28.9942 21.4864 30.0671 20.2069 29.4864 19.1931C29.4864 19.1931 29.4864 19.823 29.0533 20.1577C28.3053 20.7482 27.6556 20.3053 27.2127 19.7541C26.7796 19.2128 26.3367 18.7305 25.5493 18.7108C25.9233 18.4057 26.573 18.4057 27.2816 18.8289C27.3801 18.888 27.4883 18.9569 27.5867 19.0455C27.5867 19.0455 27.4686 19.3112 27.4785 19.7049C27.4785 19.7246 27.4785 19.7443 27.4785 19.7738C27.4785 19.7738 27.9608 19.5671 28.1478 19.3998C28.6694 18.8978 29.4864 17.8447 29.2797 17.6084C28.9942 17.2935 26.8485 16.447 26.8485 16.447C26.8485 16.447 26.8978 16.1616 26.4942 16.0041C26.2285 15.9056 24.2698 15.1379 22.3012 15.5907C21.9174 15.5907 21.4351 15.2954 19.3583 14.7344C19.3583 14.7344 19.3091 16.2994 20.2146 16.8505C19.6339 17.195 19.8012 16.9785 19.3484 17.6872C19.3484 17.6872 18.9252 18.7699 17.9901 19.2915C17.9901 19.2915 18.4429 19.764 19.2205 19.3309C19.191 19.3604 18.187 20.325 17.9705 21.201C17.9705 21.201 18.6594 20.6301 19.1122 20.9057C19.0039 20.9254 18.9252 20.9648 18.9055 21.0238L19.063 21.1026C18.6594 21.4963 17.5177 22.7758 17.8425 24.6263C17.8228 24.9609 18.0295 24.1341 18.315 23.8979C18.0787 24.7739 17.8523 25.7286 17.8523 25.7286C17.5866 25.9747 17.0649 27.4216 17.0453 27.6184C17.0256 27.8153 17.9606 27.018 18.1181 26.8802C18.2657 26.7424 18.2756 26.8704 18.2756 26.8704C17.2027 29.4787 17.3701 30.4826 17.3996 30.1578C17.4291 29.833 18.1083 29.3606 18.1083 29.3606C18.4035 31.0634 16.7893 32.9433 16.8779 33.15C16.9665 33.3567 19.3681 31.3586 19.3681 31.3586C19.3583 31.7523 19.2894 32.1264 19.0532 32.4905C18.0295 34.0555 15.3326 35.2662 15.4311 35.3055C15.0078 35.4827 14.4369 36.0142 13.8267 36.6343C13.1476 37.3331 12.4192 38.4158 11.8483 38.9178C11.4349 39.282 11.1003 39.2131 10.9034 39.1245C10.1751 38.7898 12.3503 37.4316 11.3956 37.3627C10.4408 37.2839 10.5885 36.7918 10.5885 36.7918C10.7459 36.467 11.1495 36.3489 11.6219 36.0733C12.2716 35.6894 13.3936 35.2465 13.7775 34.7937C14.8799 33.5043 15.0275 32.1854 15.0275 32.1854L15.3523 32.8055C15.5393 32.0673 15.4015 31.2405 15.0964 30.4137C14.7125 29.3803 13.5511 28.5928 12.9212 27.7464C12.0353 26.5653 11.7007 25.4727 11.7007 25.4727C15.9133 22.9136 13.8365 21.0041 13.8365 21.0041C11.4743 21.073 11.1495 21.9786 10.8542 24.3113C10.5589 26.644 11.8975 28.4944 13.7775 30.6204C15.6574 32.7464 10.7558 35.65 10.7558 35.65C9.80105 36.1815 9.61404 36.7229 9.45655 37.2938C9.04316 38.78 9.93885 39.971 10.6081 40.3942C11.2873 40.8273 12.0845 40.8765 12.0845 40.8765C12.3503 43.3076 13.4035 45.0399 13.1771 45.0891C12.9507 45.1285 10.6574 45.8766 10.6574 45.8766C9.88963 49.1148 12.2027 54.233 12.2027 54.233C11.6613 54.3216 11.6515 56.0736 11.6515 56.0736L12.4192 56.1228C12.3208 55.5716 13.1082 55.0893 13.1082 55.0893C13.1082 55.0893 14.0137 56.4279 14.122 56.1622C14.2204 55.8964 14.1417 55.1287 14.1417 55.1287C14.4763 55.2763 15.3425 55.5913 15.3425 55.5913C15.3425 55.0204 14.9881 54.6168 14.9881 54.6168C15.3622 54.8235 16.4744 54.9909 16.4744 54.9909C16.4744 54.5775 15.7066 53.9771 15.7066 53.9771C15.8641 53.7605 16.9468 54.3117 16.9468 54.3117C17.1338 52.353 13.5216 51.8707 13.5216 51.8707C13.1771 51.5951 13.059 48.3077 13.059 48.3077C15.2736 47.5301 16.435 46.5557 17.1634 45.4238C17.8327 44.3903 17.9311 43.3273 18.0689 42.5005C18.1575 41.9592 18.3346 41.5163 18.4429 41.2308C18.8957 40.0103 20.5099 39.7052 22.5867 39.282C24.6536 38.8587 24.6044 37.8154 24.7717 37.6678C24.9391 37.5201 25.4509 38.4552 25.4509 38.4552C25.2836 39.9218 26.1103 39.6658 26.1792 39.8627C26.2481 40.0595 26.9371 39.0753 26.9765 38.8194C27.0257 38.5635 27.2324 38.5832 27.2324 38.5832C27.695 39.7741 26.9765 39.469 26.8387 39.5379C26.7009 39.6068 26.4253 40.906 26.8879 40.5615C27.3505 40.217 27.5572 39.9808 27.5572 40.7288C27.5572 41.4769 26.445 41.2899 26.8092 41.5852C27.1832 41.8903 28.3446 41.3293 28.5316 41.2111C28.7186 41.093 28.7679 41.3981 28.7679 41.3981C28.01 43.5242 29.1813 43.721 29.1813 43.721C29.762 43.7702 29.8998 42.7466 29.8998 42.7466C30.264 43.3765 31.1793 44.4395 31.1793 44.4395C31.9667 43.6521 31.5927 42.5301 31.5927 42.5301C32.2226 43.0419 33.2758 43.1797 33.2758 43.1797C33.1971 41.595 32.1734 41.4867 32.1931 41.3686C32.2128 41.2505 33.8467 41.7623 33.8467 41.7623L33.6597 41.0438C33.3841 39.5084 30.2935 39.3017 30.2935 39.3017C29.26 37.6087 28.6104 36.3292 28.1871 35.4237C27.6163 34.213 27.3899 33.6323 27.4686 33.3173C27.5572 32.9827 27.8033 32.9827 27.8033 32.9827L28.7285 33.2386C28.7875 33.7602 28.9746 33.9276 29.2206 33.9079C29.4962 33.8784 29.9391 33.9473 30.2344 33.6421C30.6281 33.2386 30.8348 32.4315 30.8348 32.4315C32.3408 32.3823 31.947 31.083 31.947 31.083C32.449 30.9452 32.7541 30.709 32.9313 30.4334C33.3152 29.8527 33.1577 29.144 33.1577 29.0062C33.1577 28.8094 33.453 27.018 33.453 27.018L34.4372 25.768L34.4176 25.6991ZM25.756 21.2108C26.0021 21.2896 26.2678 21.2601 26.4942 21.1321L26.7403 20.9943L26.7009 21.4471C26.6911 21.6144 26.632 21.7719 26.5336 21.8998L26.0316 22.579L25.3229 21.0632L25.7659 21.201L25.756 21.2108ZM26.6714 16.8309L28.6694 17.6675C28.7875 17.7167 28.8171 17.9923 28.7482 18.0907L27.7442 19.3506L27.8722 18.8191C27.8722 18.8191 26.9076 17.9923 26.071 18.2088L26.7993 17.4608L26.6714 16.8407V16.8309ZM24.8308 16.2305C25.067 16.447 26.0119 16.5651 26.1891 16.7324C26.3663 16.8998 26.2088 17.3328 26.2088 17.3328C26.2088 17.3328 26.13 17.0474 25.441 16.762C24.7717 16.4765 24.8308 16.2403 24.8308 16.2305ZM22.1733 16.0336L24.1517 16.2895L21.1792 16.5946L20.1949 15.5808L22.1733 16.0238V16.0336ZM21.1201 16.9588L20.8445 18.0907L23.5217 19.262L24.9292 20.6203L24.1517 22.0081C24.1517 22.0081 23.945 23.0317 24.8308 24.0455L24.4371 23.8388C23.3741 22.9924 20.9134 20.9156 20.3032 20.7679L22.6851 20.8467L19.5158 19.823L22.6064 19.5081L19.3287 18.6518L21.1201 16.9391V16.9588ZM22.0945 38.1205C21.2776 38.6225 20.0571 38.9276 18.9941 39.2131C17.7441 39.5477 16.9271 40.7387 17.0551 42.0281L17.0945 42.4612C17.2716 44.2722 16.2578 45.9848 14.5944 46.7132L12.2519 47.727C12.2519 47.727 12.3601 52.0479 13.6692 52.4712C15.687 52.6483 16.0807 53.5932 16.0807 53.5932C16.0807 53.5932 14.2991 53.3078 14.7224 53.5046C15.1456 53.7015 15.7657 54.3314 15.7657 54.4987C15.7657 54.6661 14.0531 53.5834 14.0531 53.5834C14.0531 53.5834 14.8897 54.548 14.8405 55.1582C14.7618 55.1385 14.6535 55.0401 14.5649 54.8924C14.3779 54.607 13.5117 53.8983 13.5117 53.8983L13.6594 54.3905C13.7775 54.7743 13.8464 55.1779 13.8562 55.5716V55.6799L12.9015 54.3314C12.5767 54.6562 12.1436 55.296 12.1436 55.296C12.0845 54.6956 12.429 54.1149 12.6259 53.8393C11.7204 51.477 11.366 46.4966 11.366 46.4966L14.0629 45.788C14.8011 45.5911 15.2637 44.8726 15.1358 44.1246L14.9094 42.7958C14.9094 42.7958 15.244 42.9336 15.2342 42.8155C15.2145 42.6974 15.0177 42.2938 15.0177 42.2938C14.9586 42.1167 14.3287 41.6344 14.3287 41.3981C14.3287 41.2702 14.8306 41.4277 14.7716 41.2505C14.7027 41.0635 14.2696 40.6501 14.2106 40.4729C14.0432 39.971 13.9054 39.5084 13.8858 39.2426C13.8759 39.0753 14.5255 40.0694 14.5058 39.9021C14.4862 39.7249 14.4566 39.5477 14.4271 39.3706C14.3976 39.2426 14.3385 38.8981 14.2007 38.7308C14.0826 38.5832 13.8858 38.6028 13.8661 38.5044C13.7972 37.9827 14.8208 37.1658 14.9488 37.0477C15.4507 36.6048 15.4507 36.5457 17.0945 35.2268C21.376 31.7917 22.941 35.3646 22.941 35.3646V36.6146C22.941 37.215 22.6359 37.7662 22.1241 38.0812L22.0945 38.1205ZM27.4883 30.2661C27.4883 30.2661 26.573 30.0003 26.819 30.4236C27.0651 30.8567 27.3308 32.2445 27.3308 32.2445H26.4352C26.8387 34.4394 29.762 39.7151 29.762 39.7151C33.0789 40.2466 33.2463 40.9749 33.2463 40.9749C33.2463 40.9749 32.636 40.7682 32.1341 40.7879C31.6321 40.8174 31.2384 41.0832 31.4451 41.0832C31.8781 41.0832 32.6557 42.5694 32.6557 42.5694C31.7403 41.8214 30.4411 41.5163 30.6183 41.6934C30.7955 41.8706 30.9923 43.475 30.9923 43.475C30.5986 42.9238 29.9785 42.1659 29.4864 42.0478C28.9942 41.9297 28.9549 43.0025 28.9549 43.0025C28.6005 42.5104 29.0336 41.4375 29.0336 41.4375L28.6202 40.3056C28.6202 40.1777 28.571 39.9808 28.512 39.7741C28.4234 39.469 28.384 39.1245 28.2659 38.8981C28.1871 38.7406 28.0395 38.6422 28.0001 38.6324C27.8623 38.6127 27.9903 39.2721 27.8427 39.2721C27.695 39.2721 27.8623 38.7898 27.8427 38.6225C27.823 38.4552 27.2226 37.2249 27.0159 37.1264C26.8092 37.028 26.5926 37.5989 26.5926 37.5989C26.5926 37.5989 25.884 38.0516 26.0218 37.717C26.1596 37.3823 25.884 36.8902 25.8544 36.6934C25.8348 36.5063 26.5237 36.5752 26.4253 36.4079C26.3269 36.2406 25.4509 35.5516 25.4509 35.5516C25.4509 35.5516 25.6871 36.0044 25.382 36.0044C25.0769 36.0044 24.5749 35.0299 24.5749 35.0299L25.0375 35.3843L24.9489 35.1382C24.7521 34.6067 24.2698 34.1146 23.9646 33.6421L23.0099 32.0771C22.6556 31.6145 22.3308 31.1323 22.0355 30.6303L19.3189 26.083C19.1614 25.8172 19.0532 25.5318 19.0335 25.2267C18.9547 24.2916 19.25 23.4451 19.5453 22.8743C19.7618 22.4707 19.998 22.1951 20.0571 22.1262C20.1949 21.9392 20.2638 22.4707 20.2638 22.4707L19.5453 24.1046C19.5453 24.1046 19.8996 23.455 20.1358 23.0219C20.1654 22.9727 20.1752 22.9235 20.2047 22.8644C20.2638 22.7463 20.2835 22.7069 20.3229 22.6676C20.3819 22.6085 20.3819 22.6872 20.3229 22.825C20.2835 22.9136 20.2638 23.0022 20.254 23.1006C20.2047 23.6518 20.254 24.4786 20.254 24.39C20.254 24.3014 20.6378 24.144 20.6378 24.144C20.6378 24.144 20.5492 24.0258 21.2481 24.4885C21.9469 24.9412 22.2127 26.1715 22.3701 26.4668C22.5276 26.7621 22.5571 25.6597 22.5571 25.6597C22.5571 25.6597 22.7146 25.7385 22.9312 25.8467C23.1477 25.955 23.0886 26.3586 23.1674 26.6735C23.2461 26.9983 23.3249 26.2306 23.3249 26.2306C23.3249 26.2306 23.5611 26.0338 23.7579 26.3487C23.945 26.6735 23.2757 27.392 23.5414 27.4511C23.8072 27.5003 24.0532 26.457 24.0532 26.457L24.378 26.7523C24.378 26.7523 25.0473 25.5711 24.6733 26.7523C24.2993 27.9334 24.5946 27.9039 24.6733 27.9039C24.7521 27.9039 25.1851 27.1755 25.1851 27.1755C25.1851 27.1755 25.1064 28.1106 25.4214 28.0318C25.7363 27.9531 25.5592 27.1755 25.5592 27.1755C26.3663 27.146 27.5671 28.4846 27.4391 28.6716C27.3013 28.8586 27.1734 29.1834 27.1734 29.1834C27.9509 29.9019 27.4982 30.2563 27.4982 30.2563L27.4883 30.2661ZM29.3191 32.6579L29.3781 31.8705C29.6832 31.2897 29.7324 30.6007 29.7324 30.6007C29.7029 30.7878 29.5848 31.0437 29.4175 31.3094L29.4372 31.0634C29.9293 30.207 30.008 29.1342 30.008 29.1342C29.9687 29.4295 29.762 29.833 29.4962 30.2464L29.5159 30.02C29.5159 30.02 31.8978 25.6597 31.9569 25.0987C32.0061 24.5475 31.6124 23.268 31.1301 23.1794C30.6478 23.0908 31.5041 22.579 31.5041 22.579C31.5041 22.579 31.4648 23.3073 32.1242 23.3369C32.8624 23.3762 32.4687 23.1302 33.0199 23.0416C33.0199 23.0416 32.3801 23.7404 32.7148 23.8388C33.0494 23.9274 33.0396 24.5081 33.4431 24.3014C33.8467 24.0849 33.3053 25.7778 32.6262 26.3586C31.947 26.9294 31.3466 29.6263 31.3466 29.6263L29.3092 32.6579H29.3191ZM32.39 27.9728C32.2128 28.4649 32.4195 29.0751 32.3211 29.459C32.0553 30.522 31.2187 30.709 31.2187 30.709C31.2187 30.709 32.1439 29.9118 32.0061 29.1243C31.9372 28.7799 32.0652 28.2877 32.2128 27.8448C32.4293 27.2247 32.8624 26.7031 33.4136 26.3389C33.4136 26.3389 32.7049 27.0771 32.39 27.9629V27.9728Z" fill="white"/>
<path d="M49.5422 61.2505L36.8156 50.709C34.8471 49.0161 33.6758 46.4471 33.6758 43.829V24.0354L49.5323 21.3877L65.1034 24.0354V43.829C65.1034 46.4865 63.9124 48.9964 61.8356 50.709L49.5422 61.2505ZM34.5813 24.7933V43.8191C34.5813 46.1814 35.6345 48.4944 37.3963 50.0102L49.5323 60.0595L61.2549 50.0102C63.125 48.4649 64.1979 46.2109 64.1979 43.8191V24.7933L49.5323 22.2932L34.5715 24.7933H34.5813Z" fill="white"/>
<mask id="mask0_15668_5627" style="mask-type:luminance" maskUnits="userSpaceOnUse" x="33" y="21" width="33" height="41">
<path d="M49.5422 61.2505L36.8156 50.709C34.8471 49.0161 33.6758 46.4471 33.6758 43.829V24.0354L49.5323 21.3877L65.1034 24.0354V43.829C65.1034 46.4865 63.9124 48.9964 61.8356 50.709L49.5422 61.2505Z" fill="white"/>
</mask>
<g mask="url(#mask0_15668_5627)">
<path fill-rule="evenodd" clip-rule="evenodd" d="M40.1289 25.9434H59.0564V28.1875H40.1289V25.9434ZM57.5406 29.2702V31.5143H41.6447V29.2702H57.5406Z" fill="white"/>
<path d="M64.8165 21.377H34.3633V24.7825H64.8165V21.377Z" fill="white"/>
<path fill-rule="evenodd" clip-rule="evenodd" d="M45.2831 61.8393V35.0869H43.7969V32.8428H47.5272V61.8393H45.2831Z" fill="white"/>
<path d="M50.7285 32.8428H48.4844V63.4338H50.7285V32.8428Z" fill="white"/>
<path fill-rule="evenodd" clip-rule="evenodd" d="M51.6719 61.8393V32.8428H55.4022V35.0869H53.916V61.8393H51.6719Z" fill="white"/>
</g>
<path d="M50.5204 14.1642C50.3826 14.1346 50.2546 14.0953 50.1365 14.0264C50.0873 13.9969 50.0381 13.9673 49.9889 13.9378C50.1365 14.0461 50.2448 14.1937 50.3235 14.3512C50.4318 14.5677 50.481 14.8138 50.481 15.0599C50.4416 14.9614 50.3826 14.863 50.3334 14.7744C50.294 14.7154 50.2645 14.6465 50.2251 14.5973C50.2546 14.7547 50.2841 14.9221 50.2645 15.0894C50.2448 15.2666 50.2251 15.4339 50.2251 15.611C50.2054 15.5815 50.2054 15.5422 50.1857 15.5028C50.0873 15.2666 49.9889 15.0303 49.8904 14.7843C49.7526 14.4595 49.6148 14.1248 49.4377 13.8197C49.2014 13.3669 48.8668 12.9634 48.5026 12.5992C48.3058 12.422 48.0892 12.2547 47.8432 12.1464C47.7152 12.0874 47.5873 12.0283 47.4495 11.9988C47.538 11.9988 47.6365 12.0283 47.725 12.048C48.1089 12.1366 48.4829 12.2645 48.8274 12.4712C49.0243 12.5795 49.2113 12.7173 49.3786 12.8649C49.605 13.052 49.792 13.2685 49.979 13.485C50.1168 13.6425 50.2349 13.8098 50.3826 13.9575C50.3334 13.8984 50.2841 13.8394 50.2349 13.7803C49.9889 13.4457 49.733 13.111 49.4278 12.8256C49.2408 12.6582 49.0538 12.4909 48.8471 12.363C48.601 12.1956 48.3255 12.0578 48.0499 11.9496C47.9022 11.9004 47.7546 11.8413 47.6069 11.8118C47.3215 11.7527 47.0361 11.7527 46.7408 11.7724C46.7014 11.8413 46.6522 11.9004 46.6325 11.9791C46.5242 11.7724 46.3372 11.6149 46.1404 11.4968C46.0616 11.4574 45.9731 11.4279 45.8845 11.3984C46.0223 11.5362 46.1797 11.6641 46.2979 11.8118C46.4652 12.0382 46.603 12.2842 46.6817 12.55C46.7506 12.7764 46.7802 13.0224 46.7211 13.2587C46.7014 13.1504 46.6916 13.052 46.662 12.9437C46.6325 12.8551 46.5833 12.7764 46.5341 12.6976C46.4652 12.5992 46.3766 12.5303 46.288 12.4614C46.3766 12.5697 46.4258 12.7075 46.4652 12.8354C46.5341 13.0618 46.5538 13.298 46.5242 13.5342C46.4947 13.7114 46.416 13.8787 46.3274 14.0362C46.3569 13.9575 46.3766 13.8689 46.3864 13.7902C46.416 13.5441 46.4061 13.2882 46.2683 13.0716C46.288 13.3768 46.1502 13.6917 45.914 13.8886C45.6975 14.0756 45.4317 14.1937 45.1561 14.2626C45.038 14.2921 44.91 14.3118 44.7821 14.3413C44.723 14.3512 44.664 14.3709 44.6049 14.3807C44.7132 14.3315 44.8116 14.2724 44.9002 14.1937C44.9986 14.1051 45.0971 13.9968 45.1364 13.8689C45.1955 13.6917 45.0577 13.4752 44.8707 13.4752C44.7329 13.4949 44.5951 13.5342 44.4868 13.6228C44.4179 13.6819 44.3589 13.7508 44.349 13.8394C44.2211 13.7114 44.0833 13.5638 44.0439 13.3768C44.0045 13.2193 44.0734 13.0421 44.1915 12.9338C44.1325 12.8945 44.0734 12.8453 44.0439 12.7862C44.0045 12.7173 44.0242 12.6287 44.034 12.55C44.0045 12.4909 43.9258 12.4417 43.9258 12.363C43.9258 12.3039 43.9947 12.2645 44.034 12.235C44.1029 12.1956 44.162 12.1366 44.2407 12.0972C44.3982 12.0185 44.5656 11.9397 44.723 11.8511C44.7722 11.8019 44.7919 11.733 44.8313 11.674C44.851 11.6543 44.8805 11.6445 44.9002 11.6346C45.038 11.5657 45.1561 11.4771 45.3038 11.4181C45.3234 11.2606 45.353 11.1031 45.4317 10.9653C45.5301 10.7783 45.6876 10.6208 45.8845 10.5421C45.8254 10.5913 45.7762 10.6307 45.727 10.6897C45.5892 10.8472 45.5203 11.0637 45.4809 11.2704C45.5301 11.1326 45.5892 10.9948 45.6778 10.8767C45.8353 10.6897 46.0518 10.5814 46.2683 10.5027C46.4652 10.4437 46.6817 10.4141 46.8983 10.4338C46.8392 10.4535 46.7802 10.4633 46.7211 10.4929C46.6227 10.5322 46.5439 10.6011 46.4652 10.6602C46.3569 10.7488 46.2782 10.8669 46.1798 10.9653C46.3963 10.8177 46.6424 10.6897 46.918 10.67C47.1837 10.6503 47.4396 10.7291 47.6857 10.8472C47.9416 10.9653 48.168 11.1425 48.4337 11.2409C48.4928 11.2704 48.5617 11.2803 48.6306 11.3098C48.3845 11.3492 48.1483 11.2409 47.9022 11.2114C47.7447 11.1917 47.5873 11.1818 47.4298 11.2015C47.5774 11.2114 47.7349 11.2212 47.8825 11.2704C48.0499 11.3196 48.2172 11.3787 48.3747 11.4771C48.6699 11.6543 48.8865 11.9299 49.2014 12.0677C49.4081 12.1661 49.6542 12.1956 49.8708 12.1169C49.8412 12.176 49.792 12.2252 49.7428 12.2645C49.605 12.3925 49.418 12.4516 49.231 12.4712C49.4278 12.6484 49.6247 12.8157 49.8019 13.0224C49.979 13.2291 50.1365 13.4555 50.294 13.6819C50.4318 13.8886 50.5991 14.0854 50.8255 14.1937C50.7271 14.1937 50.6385 14.1937 50.5401 14.1642H50.5204ZM44.1128 13.3275C44.1128 13.4358 44.1915 13.5342 44.2407 13.6228C44.2506 13.5835 44.2309 13.5047 44.29 13.5047C44.29 13.5146 44.29 13.5342 44.29 13.5441C44.2998 13.5146 44.3096 13.485 44.3293 13.4555C44.3293 13.4752 44.3293 13.4949 44.3392 13.5146C44.4671 13.426 44.6246 13.4063 44.7526 13.3079C44.7624 13.298 44.7723 13.2783 44.7821 13.2685C44.6049 13.1898 44.4474 13.0716 44.2801 12.9831C44.2506 12.9634 44.2309 12.9831 44.2112 13.0027C44.1226 13.0815 44.0833 13.2094 44.1029 13.3177L44.1128 13.3275ZM45.5203 11.5263C45.5794 11.487 45.6384 11.4476 45.7073 11.4181C45.6089 11.4181 45.5105 11.4279 45.4219 11.4476C45.3234 11.4771 45.2349 11.5263 45.1463 11.5756C45.0971 11.6051 45.038 11.6346 45.0085 11.6937C44.9789 11.7035 44.9396 11.7134 44.91 11.733C44.8707 11.7724 44.851 11.8315 44.8215 11.8807C44.7919 11.9102 44.7624 11.9397 44.7427 11.9693C44.6935 11.9496 44.6541 11.9889 44.6148 11.9988C44.4278 12.0874 44.2309 12.1563 44.0734 12.3039C44.162 12.3039 44.2604 12.3039 44.3392 12.3433C44.4278 12.3039 44.4967 12.235 44.5852 12.1956C44.664 12.1563 44.7427 12.0972 44.8313 12.0677C44.91 12.0086 44.9297 11.8905 44.9986 11.8216C45.1266 11.7626 45.2742 11.7724 45.3923 11.8216C45.4317 11.8413 45.4711 11.8413 45.5006 11.8807C45.4416 11.8807 45.3727 11.8807 45.3136 11.9102C45.2841 11.9397 45.2644 11.9889 45.2152 12.0086C45.1561 12.0382 45.0774 12.0086 45.0183 12.0086C44.9691 12.0283 44.9297 12.0677 44.8805 12.0972C44.8313 12.1267 44.7722 12.1366 44.723 12.1661C44.6049 12.2252 44.4967 12.2941 44.3884 12.363C44.29 12.4122 44.2014 12.4811 44.1226 12.5598C44.0931 12.6287 44.0833 12.7075 44.1226 12.7764C44.162 12.8354 44.2112 12.8846 44.2801 12.9142C44.349 12.9437 44.4179 12.9732 44.4868 12.9831C44.5852 13.0126 44.6443 13.0027 44.6443 13.0027C44.7526 13.0027 44.8707 12.9831 44.9691 12.924C45.0282 12.8846 45.0675 12.8059 45.038 12.737C44.9691 12.609 44.8411 12.5106 44.6935 12.4811C44.8116 12.4614 44.9396 12.4811 45.038 12.55C45.0872 12.5894 45.1266 12.6386 45.166 12.6878C45.1364 12.5893 45.0774 12.5008 44.9888 12.4417C44.9396 12.4122 44.8707 12.4023 44.8116 12.4023C44.91 12.363 45.0085 12.3728 45.1167 12.3728C45.0774 12.3433 45.0282 12.3433 44.9789 12.3433L44.9593 12.363C44.9593 12.363 44.9593 12.3531 44.9593 12.3433C45.0971 12.2842 45.2447 12.2842 45.3923 12.2645C45.5597 12.235 45.7171 12.0874 45.7073 11.9102C45.7467 11.9397 45.7664 11.9889 45.7959 12.0283C45.8549 12.1267 45.9042 12.2252 45.9337 12.3334C46.0321 12.7468 45.914 13.1996 45.6384 13.5146C45.8353 13.3571 45.9927 13.1307 46.0616 12.8846C46.1207 12.6484 46.1109 12.4023 46.0321 12.176C45.9337 11.9102 45.7467 11.6937 45.5301 11.5263H45.5203ZM46.7309 11.1425C46.6424 11.0342 46.4849 11.0047 46.3569 11.0539C46.2585 11.0834 46.1798 11.1523 46.1207 11.2311C46.2388 11.1917 46.3471 11.1326 46.475 11.1523C46.5439 11.1523 46.6227 11.1917 46.6522 11.2606C46.6719 11.3787 46.6522 11.5067 46.6325 11.6248C46.6325 11.7134 46.6227 11.8118 46.6325 11.9004C46.662 11.7429 46.7506 11.5952 46.7802 11.4279C46.7998 11.3295 46.7998 11.2311 46.7408 11.1425H46.7309Z" fill="white"/>
<path d="M55.3703 18.6632C55.1833 18.7321 54.9766 18.7124 54.7798 18.6632C54.5534 18.5844 54.3368 18.4762 54.1498 18.3384C53.9038 18.171 53.6675 17.9939 53.4411 17.8069C53.4018 17.7773 53.3722 17.738 53.3329 17.7183C53.4116 17.8659 53.4904 18.0037 53.5494 18.1612C53.6577 18.427 53.7266 18.7124 53.7758 18.9978C53.7955 19.1159 53.825 19.2439 53.8545 19.362C53.9431 19.6376 54.0514 19.9132 54.2384 20.1494C54.3565 20.3069 54.514 20.4447 54.701 20.5136C54.7601 20.9664 54.7994 21.4191 54.8093 21.8817C54.8093 22.0589 54.8093 22.2459 54.8093 22.4231C54.7108 22.4034 54.6124 22.3837 54.514 22.3739C54.199 22.3345 53.8939 22.2656 53.5789 22.2361C53.51 22.2361 53.4411 22.2262 53.3821 22.2065C53.451 22.1278 53.5297 22.0589 53.6282 22.0195C53.7758 21.9703 53.953 21.9802 54.1006 22.0392C54.1006 21.9113 54.1006 21.7833 54.0809 21.6553C54.012 21.3502 53.8545 21.0648 53.6183 20.8581C53.4707 20.7203 53.2837 20.6416 53.1065 20.5431C52.8506 20.3955 52.6045 20.238 52.388 20.0412C52.201 19.8738 52.0336 19.6671 51.9057 19.4506C51.8073 19.6967 51.7777 19.9821 51.8171 20.2478C51.8663 20.5234 52.014 20.7794 52.2403 20.9368C52.2403 20.9664 52.2403 20.986 52.2207 21.0156C52.1025 21.3305 51.9352 21.616 51.758 21.9014C51.7384 21.9408 51.7187 21.9802 51.6892 22.0195C51.4136 21.9998 51.138 21.9703 50.8624 21.9506C50.9903 21.7931 51.138 21.6357 51.2069 21.4388C51.2462 21.3207 51.2462 21.2026 51.2167 21.0845C51.197 20.9762 51.1183 20.8876 51.0395 20.8089C50.8722 20.6416 50.7246 20.4644 50.5769 20.2774C50.4588 20.1297 50.3702 19.9723 50.2816 19.8049C50.1931 19.6474 50.1438 19.4801 50.0848 19.303C49.8387 19.3817 49.573 19.3915 49.3171 19.362C49.2285 19.362 49.1399 19.3226 49.0513 19.2931C49.1596 19.3817 49.258 19.4604 49.386 19.5195C49.258 19.49 49.1399 19.4506 49.0218 19.4014C48.9726 19.3817 48.9332 19.3423 48.8741 19.3325C48.7757 19.6278 48.7068 19.9427 48.6281 20.2478C48.5592 20.5628 48.4706 20.8778 48.4804 21.1927C48.4804 21.2124 48.4804 21.242 48.4706 21.2616C48.3131 21.4585 48.1852 21.6849 48.0867 21.9211C47.9588 21.9211 47.8407 21.9211 47.7127 21.9408C47.7718 21.8817 47.821 21.8128 47.8604 21.7439C47.9883 21.5175 48.1064 21.2715 48.1458 21.0156C48.1753 20.8679 48.1852 20.7203 48.2048 20.5727C48.2737 19.9821 48.3426 19.3915 48.3623 18.801C48.4509 19.175 48.4608 19.5687 48.4312 19.9624C48.4608 19.8148 48.5001 19.677 48.5198 19.5293C48.5395 19.362 48.5887 19.1947 48.5986 19.0274C48.6084 18.9092 48.5789 18.801 48.5493 18.6829C48.4903 18.486 48.4312 18.2695 48.4509 18.0628C48.4804 17.8364 48.569 17.6199 48.6871 17.423C48.6871 17.551 48.6871 17.6691 48.7364 17.7872C48.8249 18.0136 48.9726 18.2301 49.1793 18.3679C49.3958 18.5155 49.6419 18.6041 49.8978 18.6435C50.1635 18.6829 50.4391 18.673 50.7049 18.6435C50.5572 18.614 50.4194 18.5549 50.2816 18.4959C50.0553 18.3974 49.8387 18.2596 49.6419 18.1021C49.7797 18.1021 49.9076 18.1021 50.0454 18.112C50.3407 18.112 50.6458 18.1514 50.9214 18.2793C51.01 18.3187 51.0986 18.3679 51.1675 18.4466C51.0592 18.2006 50.9214 17.9545 50.7541 17.7478C50.6163 17.5903 50.4687 17.4328 50.2915 17.3147C50.2029 17.2655 50.1143 17.2065 50.0159 17.1868C50.4785 17.2557 50.9116 17.4624 51.2364 17.7872C51.3939 17.9348 51.512 18.1218 51.6399 18.299C51.7974 18.5352 51.8958 18.801 52.0533 19.0372C52.1813 19.2341 52.3289 19.4309 52.5061 19.5982C52.6144 19.7065 52.7128 19.8148 52.8309 19.8935C52.6045 19.6671 52.4569 19.3719 52.3388 19.0766C52.2108 18.7518 52.1616 18.4073 52.0533 18.0726C51.9844 17.8462 51.8762 17.6395 51.7384 17.4525C51.8466 17.551 51.9352 17.6691 52.014 17.797C52.1616 18.0332 52.2403 18.299 52.3388 18.5549C52.447 18.86 52.5947 19.1553 52.7718 19.4309C52.8703 19.5884 52.9982 19.7262 53.1262 19.8738C53.3132 20.0805 53.5494 20.238 53.766 20.4053C54.1104 20.6908 54.386 21.0845 54.4648 21.5372C54.4648 21.2715 54.386 21.0057 54.2876 20.7498C54.2778 20.7203 54.2581 20.6809 54.2482 20.6514C54.327 20.74 54.4353 20.7892 54.5337 20.8483C54.4648 20.7794 54.3959 20.7105 54.327 20.6416C54.2778 20.5825 54.2187 20.5431 54.1793 20.4841C53.9726 20.2675 53.7856 20.0116 53.6577 19.736C53.5494 19.49 53.4805 19.2144 53.4411 18.9486C53.4116 18.7616 53.3722 18.5746 53.323 18.3876C53.2148 18.0431 53.0474 17.7084 52.8014 17.4328C52.5258 17.1179 52.1419 16.9112 51.7384 16.7832C51.6203 16.7439 51.4923 16.6946 51.3742 16.6651C51.1183 16.5962 50.8624 16.5076 50.6163 16.3994C50.449 16.3206 50.3013 16.232 50.1537 16.1238C50.0651 16.0647 50.0061 15.9761 49.9372 15.8974C49.8289 16.3009 49.6222 16.675 49.3072 16.9506C49.445 16.5962 49.445 16.2025 49.3958 15.8383C49.3663 15.6513 49.3072 15.4742 49.2383 15.297C49.2383 15.3659 49.2482 15.4249 49.258 15.4938C49.2777 15.8088 49.2285 16.1238 49.0907 16.3994C49.0513 16.4683 49.0218 16.547 48.9627 16.6061C49.0316 16.3994 49.1104 16.1828 49.0907 15.9663C49.0808 15.9761 49.071 15.9958 49.071 16.0155C49.0119 16.232 48.8938 16.4191 48.7659 16.5962C48.5592 16.862 48.3131 17.0884 48.0474 17.2852C47.8505 17.4328 47.6537 17.6002 47.4765 17.7773C47.3879 17.8758 47.319 17.9742 47.2501 18.0825C47.2501 18.0037 47.26 17.925 47.2698 17.8561C47.2993 17.5903 47.4174 17.3344 47.5946 17.1277C47.2599 17.3541 47.0139 17.6986 46.9056 18.0825C46.8269 18.3482 46.8072 18.6337 46.8662 18.8994C46.9155 19.1258 47.0139 19.3325 47.132 19.5195C47.0828 19.4014 47.0237 19.2833 46.9942 19.1553C46.9351 18.8994 46.9155 18.6238 46.9745 18.3679C47.0434 18.486 47.0926 18.6041 47.1714 18.7222C47.2796 18.9191 47.4174 19.1061 47.4962 19.3325C47.5552 19.5096 47.5749 19.6967 47.5946 19.8837C47.6438 20.4152 47.6241 20.9565 47.4371 21.4683C47.4076 21.5471 47.3879 21.6258 47.3387 21.6947C47.4371 21.675 47.5454 21.6947 47.634 21.7439C47.5454 21.7439 47.4568 21.7242 47.3682 21.7439C47.2796 21.7636 47.2107 21.8227 47.1615 21.8916C47.1222 21.9408 47.1222 22.0097 47.0926 22.0786C47.0729 22.0786 47.0533 22.0786 47.0336 22.0786C47.0336 22.0097 47.0434 21.9309 47.0828 21.8719C47.1418 21.7931 47.2304 21.7439 47.319 21.7046C47.2107 21.7046 47.1025 21.7242 47.004 21.7735C46.8761 21.8325 46.7875 21.9506 46.758 22.0786C46.7284 22.0884 46.6989 22.0983 46.6694 22.0983C46.6792 21.9605 46.758 21.8325 46.8662 21.7636C46.8072 21.7735 46.7383 21.803 46.6891 21.8424C46.6202 21.9113 46.5808 22.0097 46.5808 22.0983C46.1969 22.1376 45.8131 22.2065 45.4391 22.2853C45.4587 22.1278 45.5375 21.9605 45.6753 21.8719C45.8131 21.7735 46.0001 21.7636 46.1674 21.7833C46.2068 21.6947 46.256 21.6061 46.2855 21.5077C46.3643 21.2223 46.3741 20.927 46.3544 20.6317C46.3151 20.1297 46.1773 19.6474 46.0788 19.1553C46.0788 19.1159 46.0493 19.0963 46.0296 19.0667C45.9607 18.988 45.882 18.9092 45.8328 18.8108C45.7737 18.6927 45.7343 18.5746 45.6851 18.4466C45.6359 18.5352 45.6162 18.6337 45.5867 18.7321C45.5375 18.9486 45.5375 19.1652 45.5867 19.3817C45.5178 19.2636 45.4292 19.1652 45.3603 19.047C45.193 18.7518 45.0749 18.4368 45.0552 18.1021C45.0257 17.7675 45.0552 17.423 45.1438 17.0982C45.2717 16.6454 45.4784 16.2124 45.7737 15.8482C45.8623 15.7301 45.9804 15.6316 46.0788 15.5332C46.1773 15.4446 46.2855 15.3659 46.384 15.2871C46.0001 15.5037 45.6458 15.799 45.38 16.1631C45.1635 16.4683 45.006 16.8226 44.9371 17.1966C44.8387 17.6199 44.8288 18.0628 44.9371 18.486C44.878 18.4073 44.8288 18.3187 44.7796 18.2301C44.5434 17.797 44.3957 17.3049 44.4253 16.8128C44.4253 16.5864 44.504 16.36 44.5926 16.1533C44.7107 15.8875 44.8977 15.6612 45.0946 15.4545C45.4194 15.1592 45.7934 14.9131 46.2068 14.7655C46.1379 14.7655 46.0788 14.795 46.0198 14.8147C45.6851 14.9328 45.3603 15.0805 45.0749 15.3068C44.691 15.612 44.3859 16.0253 44.2579 16.5076C44.2383 16.5962 44.2284 16.6848 44.2186 16.7734C44.1792 16.4978 44.1398 16.2025 44.2087 15.9269C44.2678 15.6513 44.4253 15.4151 44.6221 15.2281C44.7894 15.0608 45.006 14.9328 45.2127 14.8245C45.2422 14.8245 45.2619 14.8049 45.2914 14.7852C45.2717 14.7852 45.252 14.7852 45.2422 14.7852C45.2028 14.8147 45.1635 14.8245 45.1241 14.8442C44.8387 14.9919 44.5631 15.169 44.3465 15.4151C44.189 15.612 44.0512 15.8187 43.9922 16.0647C44.0119 15.7498 44.0906 15.4446 44.2678 15.1789C44.3859 14.9722 44.5532 14.795 44.7501 14.6572C44.5532 14.6277 44.376 14.5391 44.1792 14.5293C44.2875 14.5096 44.3957 14.4899 44.504 14.4702C44.6221 14.4505 44.7402 14.4407 44.8583 14.421C45.1438 14.3816 45.4489 14.3226 45.695 14.1749C45.8623 14.0765 46.0099 13.9485 46.1379 13.8009C46.069 13.9584 45.9902 14.106 45.882 14.2438C45.7934 14.3423 45.7147 14.4505 45.5965 14.5194C45.7442 14.4899 45.882 14.4407 46.0198 14.4013C46.1477 14.3619 46.2658 14.3127 46.384 14.2537C46.571 14.1454 46.7678 14.0273 46.9056 13.8501C47.0926 13.6336 47.1517 13.3383 47.1517 13.0627C47.2796 13.545 47.2698 14.0667 47.0926 14.5293C47.004 14.7556 46.8958 14.982 46.7088 15.1493C46.8466 15.0411 46.9647 14.923 47.0631 14.7852C47.2304 14.5686 47.3289 14.3029 47.3584 14.0273C47.3682 13.9289 47.3879 13.8304 47.3781 13.732C47.4568 14.0863 47.447 14.4604 47.3682 14.8147C47.2993 15.1198 47.1615 15.4053 46.9844 15.6612C46.8466 15.858 46.6891 16.0352 46.5119 16.1927C46.6005 16.1336 46.6792 16.0647 46.7678 16.0057C46.9745 15.8482 47.1812 15.6809 47.3485 15.4742C47.4765 15.3167 47.5651 15.1395 47.6438 14.9525C47.7718 14.6277 47.8013 14.2734 47.7619 13.9289C47.7422 13.7418 47.7029 13.545 47.634 13.3678C47.506 13.0332 47.3387 12.6985 47.0828 12.4426C47.2599 12.541 47.4174 12.6887 47.5454 12.8462C47.7324 13.0627 47.8997 13.3186 47.9785 13.5942C47.9489 13.4072 47.8997 13.23 47.8308 13.0529C47.7422 12.8068 47.5946 12.5903 47.4076 12.4131C47.4568 12.4229 47.4962 12.4426 47.5355 12.4623C47.7029 12.541 47.8604 12.6296 48.0178 12.7281C48.1852 12.8363 48.3426 12.9643 48.4903 13.1021C48.6182 13.2103 48.7265 13.3383 48.8446 13.4564C49.0316 13.6631 49.1891 13.8895 49.3368 14.1257C49.4549 14.3226 49.5533 14.5293 49.6419 14.736C49.76 15.0214 49.8289 15.3167 49.9076 15.612C49.9076 15.6612 49.947 15.6907 49.9765 15.7202C50.1537 15.9072 50.3604 16.0647 50.5769 16.1927C50.8427 16.3502 51.1183 16.4781 51.4037 16.5569C51.7285 16.6454 52.0632 16.7143 52.3683 16.8521C52.8703 17.049 53.3132 17.3738 53.7266 17.7084C53.9628 17.8954 54.1892 18.0923 54.4549 18.2498C54.6124 18.3482 54.7797 18.427 54.9569 18.4466C55.075 18.4565 55.2227 18.4466 55.3112 18.3482C55.4294 18.2301 55.4392 18.0529 55.4097 17.9053C55.3605 17.7084 55.262 17.5313 55.1439 17.3738C54.9766 17.1376 54.7601 16.9309 54.5337 16.7439C54.4451 16.6848 54.3565 16.6159 54.2581 16.5765C54.0415 16.4879 53.8152 16.3994 53.6183 16.2714C53.4313 16.1533 53.2738 15.9958 53.1557 15.799C53.0671 15.6612 53.0376 15.4938 53.0081 15.3265C52.9785 15.0706 53.0179 14.8147 53.0868 14.5686C53.0868 14.8049 53.077 15.0509 53.1557 15.2773C53.264 15.5726 53.4411 15.858 53.6971 16.0549C53.7758 16.1139 53.8447 16.173 53.9333 16.2124C53.5888 15.9958 53.3624 15.6316 53.2541 15.2576C53.1655 14.9131 53.1459 14.5489 53.2541 14.2045C53.2541 14.3226 53.2738 14.4308 53.3033 14.5489C53.3722 14.7655 53.5002 14.9623 53.6577 15.1297C53.7266 15.1986 53.7955 15.2478 53.8742 15.297C54.0022 15.3856 54.1104 15.484 54.199 15.612C54.3467 15.8186 54.4057 16.0746 54.3959 16.3206C54.3171 16.1139 54.1695 15.9368 54.012 15.7793C54.1498 15.986 54.2679 16.2025 54.386 16.4191C54.4057 16.4584 54.4353 16.4978 54.4648 16.5175C54.7699 16.7242 55.0357 16.9899 55.2719 17.2754C55.4097 17.4624 55.5278 17.6592 55.5967 17.8758C55.6656 18.0825 55.6754 18.3187 55.5573 18.5057C55.4983 18.5943 55.4097 18.6632 55.3112 18.7026L55.3703 18.6632ZM49.3466 18.7026C49.0808 18.5943 48.8545 18.3974 48.7167 18.1415C48.7659 18.2793 48.8249 18.4171 48.9332 18.5155C49.0907 18.673 49.2875 18.7813 49.5041 18.8207C49.6714 18.8502 49.8387 18.8699 50.0061 18.8699C49.7797 18.8305 49.5533 18.7911 49.3466 18.6927V18.7026ZM47.2895 21.5963C47.3781 21.4191 47.4273 21.2321 47.4666 21.0451C47.5355 20.6809 47.5355 20.3069 47.506 19.9427C47.4273 20.1494 47.3682 20.3561 47.2895 20.553C47.1615 20.8975 47.0631 21.2518 46.945 21.6061C47.0533 21.5569 47.1714 21.5569 47.2895 21.5864V21.5963ZM48.7757 13.9387C48.7363 13.8107 48.6773 13.6926 48.5986 13.5745C48.5297 13.4662 48.4608 13.358 48.3722 13.2596C48.5297 13.4761 48.6674 13.7123 48.7068 13.9781C48.7757 14.3226 48.7265 14.6867 48.5789 15.0017C48.4903 15.2084 48.3426 15.3757 48.1852 15.5332C48.0769 15.6415 47.9489 15.7399 47.8308 15.8285C47.6537 15.9663 47.4568 16.0844 47.2698 16.2124C47.0631 16.3502 46.8564 16.4978 46.6792 16.675C46.571 16.7931 46.4627 16.9112 46.3741 17.049C46.256 17.2557 46.1576 17.4722 46.0985 17.7084C45.9902 18.1514 46.0198 18.6336 46.2265 19.0372C46.2855 19.1455 46.3446 19.2537 46.4332 19.3325C46.1576 18.9486 46.0591 18.4466 46.1379 17.984C46.1969 17.6789 46.3151 17.3738 46.5119 17.1277C46.5808 17.0391 46.6595 16.9604 46.7383 16.8817C46.9351 16.6848 47.1714 16.5175 47.4174 16.3797C47.634 16.2419 47.8702 16.1336 48.0769 15.986C48.2541 15.8777 48.4214 15.7399 48.5395 15.5627C48.7068 15.3364 48.8052 15.0608 48.8545 14.7852C48.9037 14.4997 48.8741 14.2045 48.7757 13.9289V13.9387Z" fill="white"/>
<path d="M44.7734 12.7467C44.7734 12.7268 44.7834 12.7168 44.8033 12.7168C44.8232 12.7168 44.8332 12.7268 44.8332 12.7467C44.8332 12.7666 44.8232 12.7765 44.8033 12.7765C44.7834 12.7765 44.7734 12.7666 44.7734 12.7467Z" fill="white"/>
<path d="M44.7199 12.7467C44.7199 12.7666 44.7099 12.7765 44.69 12.7765C44.6701 12.7765 44.6602 12.7666 44.6602 12.7467C44.6602 12.7268 44.6701 12.7168 44.69 12.7168C44.7099 12.7168 44.7199 12.7268 44.7199 12.7467Z" fill="white"/>
<path d="M44.5941 12.7566C44.5842 12.7566 44.5742 12.7566 44.5742 12.7367C44.5742 12.7168 44.5742 12.7168 44.5941 12.7168C44.614 12.7168 44.614 12.7168 44.614 12.7367C44.614 12.7566 44.614 12.7566 44.5941 12.7566Z" fill="white"/>
<path d="M44.7681 12.8447C44.7881 12.8447 44.798 12.8646 44.798 12.8746C44.798 12.8945 44.7781 12.9045 44.7681 12.9045C44.7482 12.9045 44.7383 12.8846 44.7383 12.8746C44.7383 12.8547 44.7582 12.8447 44.7681 12.8447Z" fill="white"/>
<path d="M44.6847 12.8746C44.6847 12.8945 44.6748 12.9045 44.6549 12.9045C44.635 12.9045 44.625 12.8945 44.625 12.8746C44.625 12.8547 44.635 12.8447 44.6549 12.8447C44.6748 12.8447 44.6847 12.8547 44.6847 12.8746Z" fill="white"/>
<path d="M44.5512 12.875C44.5412 12.875 44.5312 12.865 44.5312 12.8451C44.5312 12.8352 44.5412 12.8252 44.5611 12.8252C44.5711 12.8252 44.581 12.8352 44.581 12.8551C44.581 12.865 44.5711 12.875 44.5512 12.875Z" fill="white"/>
<path d="M44.4613 12.8562C44.4514 12.8562 44.4414 12.8562 44.4414 12.8363C44.4414 12.8264 44.4414 12.8164 44.4613 12.8164C44.4713 12.8164 44.4812 12.8164 44.4812 12.8363C44.4812 12.8463 44.4812 12.8562 44.4613 12.8562Z" fill="white"/>
<path d="M55.2647 2.33271L54.4183 1.75199L54.8809 1.14175L54.7037 0H53.6702L53.1092 0.580714L52.7942 0.127953L51.8395 0.15748L51.8001 1.11222V1.87011C51.7903 1.87011 45.8945 7.58869 45.8945 7.58869L46.8493 8.68123L53.119 3.08075H53.5128L53.7785 5.14771C53.7785 5.14771 56.4065 5.03944 56.6427 2.12601L55.2647 2.34255V2.33271ZM52.745 0.52166L52.5875 0.649613L51.9576 0.29528L52.745 0.52166ZM49.556 6.03355L47.2135 8.13988H46.9477L47.1938 7.97256L49.369 5.77765L49.7627 5.85639L49.5658 6.03355H49.556ZM53.0698 2.815L50.7273 4.92133H50.4615V4.62605L52.6368 2.63783H53.2765L53.0797 2.815H53.0698ZM54.4773 4.72448L53.9655 4.65558L54.0147 4.2225C54.0147 4.2225 56.0718 2.76579 56.0915 2.46067L56.3573 2.41145C56.3573 2.41145 55.1762 4.72448 54.4773 4.73432V4.72448Z" fill="white"/>
<path d="M47.8623 1.87011V1.11222C47.8524 1.11222 47.8032 0.15748 47.8032 0.15748L46.8485 0.127953L46.5335 0.580714L45.9725 0H44.939L44.7618 1.14175L45.2244 1.75199L44.378 2.33271L43 2.11617C43.2362 5.03944 45.8642 5.13787 45.8642 5.13787L46.13 3.07091H46.5237L52.7935 8.67138L53.7482 7.57885L47.8623 1.86026V1.87011ZM45.1654 4.72448C44.4764 4.72448 43.2854 2.40161 43.2854 2.40161L43.5512 2.45082C43.5709 2.76578 45.628 4.21266 45.628 4.21266L45.6674 4.64574L45.1555 4.71463L45.1654 4.72448ZM47.6851 0.29528L47.0552 0.649613L46.8977 0.52166L47.6851 0.29528ZM49.191 4.92133H48.9253L46.5827 2.815L46.3859 2.63783H47.0257L49.2009 4.62605V4.92133H49.191ZM52.4391 8.13988L50.0966 6.03355L49.8997 5.85639L50.2934 5.77765L52.4686 7.97256L52.7147 8.13988H52.449H52.4391Z" fill="white"/>
<path d="M41.6616 15.7085C41.6616 15.7085 40.1852 15.807 39.3781 16.7223C38.6891 17.4999 37.8033 19.557 38.0986 21.1614C38.1084 21.2106 38.1281 21.2992 38.1675 21.3878C38.1478 21.3878 38.1379 21.3779 38.1182 21.3681C38.0592 21.2598 37.9903 21.1515 37.9214 21.0334C37.6852 20.6397 37.4785 19.9606 37.3013 19.1732C37.3702 19.0649 37.5375 18.7991 37.7541 18.4842C37.9509 18.1987 38.1871 17.9035 38.4234 17.4704C38.7679 16.8306 39.132 16.1416 39.2797 15.177C39.3781 14.5766 39.4273 13.927 39.3486 13.238C39.3486 13.238 38.8564 13.1691 38.2954 13.4546C37.882 13.6613 37.5178 14.055 37.193 14.6062C36.9863 14.9605 36.8092 15.3739 36.7206 15.8956C36.6418 15.2755 36.5828 14.7833 36.5533 14.5569L36.5729 14.4684C36.7009 14.3601 36.9765 14.1239 37.321 13.8384C37.6556 13.5727 38.0395 13.3168 38.4627 12.8837C39.0927 12.2636 39.762 11.5746 40.2836 10.4919C40.6084 9.82262 40.8939 9.08443 41.0612 8.23796C41.0612 8.23796 40.51 7.98205 39.7521 8.11985C39.2009 8.21827 38.6301 8.55292 38.0592 9.07459C37.3505 9.7242 36.6812 10.7282 36.5139 12.4309C36.3761 11.929 36.1596 11.5254 35.9233 11.1908C35.5395 10.6593 35.1359 10.2951 34.7028 10.1277C34.1024 9.89152 33.6103 10.0096 33.6103 10.0096C33.6103 10.7183 33.7186 11.3778 33.8662 11.9683C34.1123 12.9329 34.5454 13.6022 34.9489 14.2125C35.2245 14.6258 35.4903 14.9014 35.7166 15.177C36.0021 15.5215 36.2186 15.807 36.2678 15.866C36.3761 16.4172 36.5139 17.1062 36.6025 17.6869C36.4942 17.5491 36.3663 17.4113 36.2088 17.2834C35.8151 16.9487 35.2639 16.6042 34.565 16.3877C34.0335 16.2302 33.4233 16.1613 32.7245 16.1416C32.7245 16.1416 32.4292 16.5156 32.754 17.3129C32.9115 17.6968 33.1477 18.1889 33.502 18.6417C33.9253 19.2027 34.3091 19.6062 34.9784 20.0393C35.569 20.4232 36.8682 20.4232 37.0454 19.9901C37.193 20.3641 37.3604 20.7874 37.5474 21.2007C37.4883 21.2007 37.4293 21.1811 37.3604 21.1811C36.6911 21.122 35.7363 21.2303 35.4214 21.3878C35.008 21.5846 34.6832 21.8799 34.2599 22.2441C34.1418 22.3425 34.1024 22.5197 34.1713 22.6476C34.2599 22.8149 34.3583 23.0512 34.7225 23.2579C35.0572 23.4449 35.5198 23.622 36.0316 23.7402C36.6615 23.8878 37.1733 23.9075 37.882 23.7992C38.5612 23.7008 39.3387 23.1398 39.0041 22.7362L38.6104 21.9882C38.7777 22.0767 38.9647 22.0866 39.0927 22.0866C39.4569 22.0964 39.8309 22.0078 40.1655 21.7913C40.5297 21.5551 41.3762 19.7047 41.6813 18.1003C41.9175 16.8109 41.6616 15.6987 41.6616 15.6987V15.7085ZM38.9844 13.6121C38.9844 13.6121 39.0927 16.4763 37.3013 18.2479C37.3013 18.2479 37.2029 18.2479 37.2029 18.0511C37.2029 17.8936 37.3604 17.1948 37.5769 16.5747C37.7344 16.1416 37.9608 15.7479 38.0198 15.6003C38.1478 15.2853 38.4332 14.3699 38.4923 14.2617C38.4923 14.2617 37.2619 15.8956 37.0356 17.3916C37.0356 17.3916 36.3859 14.6849 38.9746 13.6121H38.9844ZM36.8584 13.1298C36.9174 12.9526 37.3407 12.1849 37.823 11.5353C38.1576 11.0825 38.5612 10.6986 38.6793 10.551C38.945 10.2262 39.6045 9.26159 39.7128 9.14348C39.7128 9.14348 37.6852 10.6199 36.8978 12.303C36.8978 12.303 37.0946 8.89741 40.51 8.55292C40.51 8.55292 39.6242 11.9486 36.8978 13.3955C36.8978 13.3955 36.7895 13.3561 36.8584 13.1298ZM34.0237 10.3541C36.7501 11.2006 36.3367 14.0058 36.3367 14.0058C35.9725 12.5097 34.5749 10.9644 34.5749 10.9644C34.6438 11.0726 35.0277 11.9683 35.1851 12.2833C35.254 12.4211 35.5198 12.805 35.7166 13.2282C35.9725 13.7892 36.1792 14.429 36.2285 14.6455L36.1202 14.8621C34.1812 13.2183 34.0237 10.3541 34.0237 10.3541ZM33.0394 16.5747C35.2639 16.6633 36.258 17.5491 36.6911 18.2381C36.7206 18.4743 36.7304 18.6712 36.7107 18.7795C36.573 18.6712 36.3859 18.5432 36.1891 18.4448C35.6379 18.179 34.8997 17.8838 34.2993 17.6377C33.7481 17.4113 33.2953 17.244 33.2068 17.1751C32.9312 16.9979 33.0493 16.5649 33.0493 16.5649L33.0394 16.5747ZM36.7206 19.6259C36.5237 19.8129 36.2186 19.8621 35.9824 19.8621C35.5001 19.8621 34.9883 19.5275 34.5355 19.1239C33.945 18.5924 33.4627 17.9527 33.4331 17.7853C33.3642 17.4113 33.5906 17.618 33.5906 17.618L34.8899 18.3168C35.0277 18.3857 35.1753 18.4546 35.3229 18.5039L35.5887 18.6023C36.0119 18.7598 36.4056 18.9763 36.76 19.2617L36.7895 19.2913C36.7895 19.3208 36.8092 19.3503 36.819 19.3799C36.7796 19.4684 36.7796 19.5767 36.7206 19.6358V19.6259ZM36.3269 21.4665C36.7206 21.3976 37.321 21.3582 37.6753 21.5059C37.7934 21.7815 37.9115 22.0472 38.0297 22.2933C37.4588 22.4705 36.0808 22.8051 34.9588 22.3228L34.8308 22.2342C34.8308 22.2342 35.3918 21.624 36.3269 21.4665ZM37.8328 23.3071C37.2816 23.4153 36.504 23.3661 36.0611 23.3071C35.3131 23.2185 34.7717 22.9724 34.6339 22.8051C34.3583 22.4803 34.7521 22.372 34.7521 22.372C35.5395 22.9035 37.4391 22.7264 38.1773 22.6279C38.2659 22.8149 38.3348 22.9724 38.4037 23.1102C38.2167 23.2185 37.9509 23.2776 37.8328 23.2972V23.3071ZM41.3663 16.7814C41.2974 17.8444 40.9628 19.872 39.634 21.2795C39.634 21.2795 39.3387 21.2401 39.2502 20.9153C39.1813 20.6594 39.2994 20.1181 39.3387 19.9704C39.4175 19.6259 39.6242 19.2322 39.7915 18.809C40.2639 17.6279 41.0021 16.4172 41.0021 16.4172L40.9628 16.24C40.9628 16.24 40.3525 17.0078 39.821 17.9724C39.2698 18.9665 38.7974 20.1574 38.699 20.6102C38.699 20.6102 38.3545 21.1122 38.4726 19.4586C38.5316 18.6613 39.0041 17.805 39.5553 17.1948C39.9195 16.7912 40.3132 16.4664 40.5691 16.2794C40.7364 16.1613 40.9234 16.0924 41.1301 16.0826L41.3565 16.0038C41.3565 16.0038 41.3959 16.3483 41.3663 16.7814Z" fill="white"/>
<path d="M66.9111 16.2799C66.2221 16.2898 65.602 16.3488 65.0705 16.4964C64.3618 16.6933 63.8008 17.028 63.4071 17.3626C63.2496 17.4906 63.1216 17.6284 63.0134 17.7563C63.1118 17.1756 63.2594 16.4866 63.3775 15.9354C63.4268 15.8764 63.6532 15.5909 63.9386 15.2563C64.165 14.9905 64.4406 14.7149 64.726 14.3015C65.1394 13.6913 65.5823 13.0417 65.8481 12.0771C66.0055 11.4865 66.1335 10.8369 66.1335 10.1184C66.1335 10.1184 65.6414 9.99045 65.041 10.2168C64.6079 10.3842 64.1945 10.7385 63.8008 11.2601C63.5547 11.585 63.3283 11.9885 63.1905 12.4905C63.0527 10.7877 62.4031 9.77391 61.7043 9.11445C61.1334 8.5731 60.5724 8.23845 60.0212 8.13018C59.2633 7.98254 58.7121 8.22861 58.7121 8.22861C58.8598 9.07508 59.1354 9.82312 59.4503 10.4924C59.9523 11.585 60.6118 12.2739 61.2319 12.9137C61.6551 13.3468 62.0291 13.6125 62.3539 13.8881C62.6886 14.1736 62.9642 14.4098 63.0921 14.5279L63.1118 14.6165C63.0823 14.8429 63.0232 15.335 62.9248 15.9551C62.846 15.4433 62.6787 15.0201 62.4819 14.6657C62.1669 14.1145 61.8126 13.711 61.3992 13.4944C60.8381 13.1992 60.346 13.2582 60.346 13.2582C60.2673 13.9472 60.3066 14.6067 60.3854 15.1972C60.5232 16.1716 60.8775 16.8606 61.2023 17.5102C61.4287 17.9433 61.6551 18.2386 61.8519 18.5339C62.0685 18.8587 62.226 19.1244 62.2949 19.2327C62.098 20.0103 61.8815 20.6894 61.6354 21.0831C61.5665 21.2012 61.4976 21.3095 61.4385 21.4079C61.4189 21.4079 61.3992 21.4178 61.3893 21.4276C61.4189 21.339 61.4484 21.2603 61.4582 21.2012C61.783 19.6067 60.9366 17.5299 60.2574 16.7425C59.4602 15.8075 57.9936 15.6893 57.9936 15.6893C57.9936 15.6893 57.718 16.8016 57.9346 18.091C58.2102 19.6953 59.0173 21.5753 59.3814 21.8115C59.7062 22.028 60.0803 22.1265 60.4444 22.1265C60.5724 22.1265 60.7594 22.1265 60.9267 22.0379L60.5232 22.7761C60.1787 23.1698 60.9464 23.7505 61.6256 23.8588C62.3441 23.9769 62.846 23.967 63.476 23.8292C63.9878 23.721 64.4504 23.5536 64.7949 23.3666C65.1689 23.1698 65.2673 22.9336 65.3559 22.7662C65.4248 22.6284 65.3953 22.4611 65.2772 22.3528C64.854 21.9788 64.539 21.6835 64.1354 21.467C63.8205 21.3095 62.8756 21.1816 62.1964 21.2308C62.1275 21.2308 62.0685 21.2406 62.0094 21.2505C62.1964 20.8371 62.3834 20.4237 62.5311 20.0497C62.6984 20.4926 63.9976 20.5123 64.598 20.1382C65.2673 19.715 65.661 19.3213 66.0941 18.7603C66.4485 18.3075 66.6945 17.8252 66.8619 17.4413C67.1965 16.6539 66.9111 16.2701 66.9111 16.2701V16.2799ZM60.7102 13.6322C63.289 14.7445 62.5901 17.4413 62.5901 17.4413C62.3933 15.9354 61.1925 14.2818 61.1925 14.2818C61.2515 14.4 61.5271 15.3153 61.6452 15.6303C61.7043 15.7779 61.9208 16.1716 62.0685 16.6146C62.2752 17.2346 62.413 17.9433 62.413 18.1008C62.413 18.2878 62.3145 18.2977 62.3145 18.2977C60.5527 16.4866 60.7102 13.6322 60.7102 13.6322ZM60.8874 20.6402C60.7988 20.1875 60.346 18.9866 59.8145 17.9827C59.3027 17.0181 58.7023 16.2307 58.7023 16.2307L58.6629 16.4079C58.6629 16.4079 59.3814 17.6284 59.8243 18.8193C59.9818 19.2426 60.1787 19.6461 60.2574 19.9906C60.287 20.1382 60.4051 20.6796 60.3263 20.9355C60.2279 21.2603 59.9326 21.2997 59.9326 21.2997C58.6334 19.8626 58.3283 17.8252 58.2791 16.772C58.2594 16.339 58.3086 15.9945 58.3086 15.9945L58.535 16.0831C58.7417 16.0929 58.9287 16.1716 59.0861 16.2898C59.3322 16.4768 59.7259 16.8114 60.0803 17.215C60.6216 17.8449 61.0842 18.7012 61.1236 19.4985C61.2122 21.152 60.8775 20.6402 60.8775 20.6402H60.8874ZM64.8933 22.9139C64.7457 23.0812 64.2043 23.3174 63.4563 23.3962C63.0134 23.4355 62.2358 23.4749 61.6846 23.3568C61.5665 23.3273 61.3007 23.2682 61.1137 23.1599C61.1826 23.0221 61.2614 22.8647 61.35 22.6776C62.0882 22.7859 63.9878 23.0024 64.7752 22.4808C64.7752 22.4808 65.1591 22.5989 64.8835 22.9139H64.8933ZM63.2397 21.5261C64.165 21.7032 64.726 22.3135 64.726 22.3135L64.598 22.402C63.476 22.8647 62.098 22.5103 61.537 22.3233C61.6551 22.0772 61.783 21.8115 61.9011 21.5457C62.2555 21.3981 62.8559 21.4473 63.2496 21.5261H63.2397ZM65.7299 10.4629C65.7299 10.4629 65.5233 13.3271 63.5646 14.9315L63.4563 14.7149C63.5055 14.4984 63.722 13.8685 63.9878 13.3074C64.1945 12.8842 64.4701 12.5102 64.539 12.3724C64.7063 12.0673 65.1 11.1716 65.1689 11.0633C65.1689 11.0633 63.7417 12.5791 63.348 14.0653C63.348 14.0653 62.9838 11.2503 65.7299 10.4531V10.4629ZM62.8067 13.4551C60.1098 11.959 59.283 8.55342 59.283 8.55342C62.6984 8.94712 62.8362 12.3625 62.8362 12.3625C62.0685 10.6696 60.0803 9.16366 60.0803 9.16366C60.1885 9.28177 60.8381 10.2562 61.0941 10.5908C61.2122 10.7385 61.6059 11.1322 61.9405 11.5948C62.4031 12.2543 62.8165 13.0318 62.8756 13.209C62.9445 13.4255 62.8264 13.4747 62.8264 13.4747L62.8067 13.4551ZM66.1925 17.9039C66.163 18.0713 65.6709 18.7012 65.0705 19.2229C64.6079 19.6166 64.0961 19.9414 63.6039 19.9315C63.3677 19.9315 63.0626 19.8823 62.8657 19.6855C62.8067 19.6264 62.8067 19.528 62.7673 19.4296C62.7772 19.4 62.787 19.3705 62.7968 19.341L62.8264 19.3115C63.1807 19.0359 63.5842 18.8292 64.0075 18.6717L64.2831 18.5733C64.4307 18.524 64.5784 18.4551 64.7161 18.3862L66.0252 17.7071C66.0252 17.7071 66.2516 17.5004 66.1827 17.8744L66.1925 17.9039ZM66.4386 17.3035C66.35 17.3626 65.8973 17.5299 65.3362 17.7465C64.726 17.9827 63.9878 18.2681 63.4268 18.5142C63.2201 18.6126 63.0331 18.7307 62.8953 18.839C62.8854 18.7209 62.8953 18.5339 62.9248 18.2977C63.3677 17.6185 64.3815 16.7425 66.5961 16.7031C66.5961 16.7031 66.7142 17.1362 66.4288 17.3035H66.4386Z" fill="white"/>
</svg>
